<svg xmlns="http://www.w3.org/2000/svg" preserveAspectRatio="xMidYMid" width="376" height="194" viewBox="0 0 376 194"><path d="M0 93L376 0v101L0 194V93z" fill="#a81010" opacity=".75"/><path d="M333.465 43.201l22.309-5.823 1.959 24.427-16.069 4.194c6.589 4.675 14.366 7.547 23.333 8.617-1.541 2.77-3.217 6.097-5.029 9.981-9.669-2.498-17.737-6.75-24.207-12.758l1.571 19.59-9.362 2.444-1.479-18.442c-5.012 8.224-12.072 15.987-21.18 23.291-2.201-2.647-4.257-4.905-6.169-6.774 8.636-5.854 15.65-12.634 21.043-20.342l-16.101 4.203-1.959-24.427 21.978-5.737-.419-5.22-27.422 7.158-.743-9.256 27.422-7.157-.491-6.125 9.362-2.443.491 6.124 27.555-7.193.743 9.256-27.555 7.193.419 5.219zm1.317 16.424l13.279-3.466-.675-8.421-13.28 3.466.676 8.421zm-10.038-5.977l-13.014 3.397.676 8.421 13.014-3.397-.676-8.421zm-42.532 47.977l-18.658 4.87.329 4.106-8.897 2.323-2.399-29.925 36.452-9.515 2.399 29.925-8.897 2.322-.329-4.106zm-1.39-17.329l-18.658 4.871.709 8.838 18.658-4.87-.709-8.839zm-6.739-21.474l14.608-3.813.664 8.282-37.846 9.879-.665-8.282 13.944-3.639-.608-7.586-14.641 3.821 2.313.533c-4.785 10.202-8.926 18.578-12.423 25.127a412.89 412.89 0 0 1 10.131-3.853c-.013 3.225.04 6.148.16 8.769-9.605 3.644-16.117 6.409-19.535 8.296l-3.215-7.118c2.603-3.332 5.599-8.519 8.988-15.562-3.299 1.122-6.152 2.175-8.559 3.158l-3.093-7.292c3.136-5.413 6.358-13.975 9.668-25.686l9.038 1.122c-2.947 7.78-5.905 14.852-8.874 21.216l6.084-1.908 3.411-8.173 4.558 1.048-.611-7.62 15.935-4.16-.703-8.768 9.296-2.427.703 8.769 16.599-4.333.665 8.281-16.6 4.333.608 7.586zm-95.641 57.719l24.766-6.464c2.058-.538 3.697-1.308 4.915-2.314 1.219-1.004 1.914-2.411 2.085-4.221.172-1.808.356-5.711.553-11.707 4.036.746 7.53 1.208 10.482 1.384-.592 5.863-1.119 10.346-1.582 13.451-.463 3.105-1.827 5.681-4.092 7.729-2.265 2.048-5.422 3.6-9.472 4.657l-28.817 7.522c-9.473 2.473-14.625-1.487-15.459-11.88l-2.388-29.785 9.826-2.566.542 6.751 32.136-8.389-1.177-14.684-43.756 11.422-.765-9.534 53.649-14.004 2.707 33.752-42.029 10.971 1.004 12.527c.376 4.686 2.667 6.48 6.872 5.382zm-33.233 16.864c-.847 1.274-2.004 2.34-3.472 3.197-1.468.857-5.408 2.158-11.821 3.903a173.423 173.423 0 0 0-3.228-9.815c2.937-.577 5.368-1.117 7.293-1.62 1.284-.335 2.247-.858 2.891-1.571.643-.713.985-1.59 1.026-2.63.041-1.041-.101-4.64-.425-10.796-.325-6.155-.814-13.742-1.469-22.761l-8.599 2.245c.631 10.398.826 17.908.587 22.529-.24 4.622-1.106 9.46-2.598 14.516-1.493 5.055-3.58 9.744-6.261 14.067a61.727 61.727 0 0 0-8.569-3.731 49.798 49.798 0 0 0 3.17-5.268l-18.294 6.445c-2.739 1.07-4.814 2.109-6.224 3.117l-4.792-7.347c2.166-2.578 4.425-10.604 6.78-24.079l-8.267 2.158-.714-8.908 30.675-8.007.715 8.908-12.749 3.327a439.332 439.332 0 0 1-5.016 21.133 433.611 433.611 0 0 0 10.887-3.304 287.908 287.908 0 0 0-5.717-11.688l7.164-4.498 8.477 15.691c2.571-6.544 3.209-17.463 1.915-32.756l-6.739 1.759-.737-9.186 6.939-1.811-.849-11.857 8.83-2.305.816 11.865 17.396-4.541 2.39 39.52c.291 5.324.341 8.686.148 10.086-.193 1.4-.713 2.738-1.559 4.013zM83.672 92.773l25.496-6.655.715 8.908-25.497 6.655-.714-8.908zm-9.464 35.153l2.534 31.596-9.03 2.357-.28-3.48-23.438 6.118.285 3.549-9.03 2.358-2.539-31.665 16.068-4.195-.703-8.768-18.658 4.87-.67-8.351 18.658-4.87-.656-8.178-16.413 4.96c-.46-2.343-1.072-4.907-1.838-7.691 14.714-4.173 28.77-8.67 42.166-13.494l1.777 7.778a839.261 839.261 0 0 1-16.439 5.499l.698 8.699 18.791-4.905.67 8.351-18.791 4.905.703 8.769 16.135-4.212zm-31.81 16.688l.938 11.691 23.438-6.118-.938-11.691-23.438 6.118zm-19.125-22.931c-2.484-1.672-6.338-4.077-11.56-7.214l5.014-7.632c4.562 2.22 8.598 4.364 12.108 6.432l-5.562 8.414zm5.508 10.357l-5.6 8.78c-4.44-2.962-8.581-5.576-12.424-7.841l4.898-8.242c4.713 2.418 9.088 4.852 13.126 7.303zm.584 12.352c-1.52 10.912-3.161 20.316-4.923 28.213a131.067 131.067 0 0 0-9.386-.392c1.814-7.815 3.534-17.358 5.161-28.63a73.5 73.5 0 0 0 9.148.809zm222.711-38.169a901.38 901.38 0 0 0-22.478 9.633l-2.242-9.362a1118.831 1118.831 0 0 0 24.276-10.031c.047 3.967.195 7.22.444 9.76z" fill="#902221"/><path d="M238.935 60.904l9.009-2.418.864 9.861-6.488 1.742c2.679 1.868 5.834 3.006 9.465 3.411a65.1 65.1 0 0 0-2.005 4.047c-3.919-.981-7.196-2.674-9.831-5.082l.693 7.908-3.78 1.015-.653-7.445c-2.004 3.337-4.837 6.494-8.5 9.471a36.177 36.177 0 0 0-2.516-2.718c3.476-2.39 6.294-5.15 8.453-8.279l-6.502 1.745-.865-9.861 8.875-2.382-.185-2.107-11.073 2.973-.328-3.737 11.074-2.972-.217-2.473 3.78-1.014.217 2.472 11.127-2.987.328 3.737-11.127 2.986.185 2.107zm.581 6.63l5.363-1.439-.299-3.399-5.362 1.439.298 3.399zm-4.078-2.384l-5.256 1.411.299 3.399 5.255-1.411-.298-3.399zm-17.066 19.505l-7.535 2.022.146 1.658-3.593.964-1.059-12.08 14.719-3.951 1.06 12.08-3.593.964-.145-1.657zm-.614-6.996l-7.534 2.023.313 3.568 7.534-2.023-.313-3.568zm-2.79-8.654l5.899-1.583.293 3.343-15.283 4.103-.293-3.344 5.63-1.511-.268-3.062-5.912 1.587.937.208c-1.906 4.135-3.556 7.53-4.951 10.186a166.484 166.484 0 0 1 4.087-1.586 70.38 70.38 0 0 0 .091 3.541c-3.876 1.501-6.502 2.637-7.879 3.409l-1.322-2.866c1.043-1.353 2.24-3.457 3.59-6.312a62.964 62.964 0 0 0-3.453 1.301l-1.273-2.936c1.252-2.196 2.531-5.664 3.835-10.404l3.66.427c-1.169 3.151-2.345 6.016-3.527 8.595l2.455-.788 1.356-3.312 1.848.41-.27-3.076 6.435-1.727-.311-3.54 3.754-1.008.31 3.54 6.703-1.799.294 3.343-6.703 1.799.268 3.062zm-38.524 23.598l10.001-2.685c.831-.223 1.491-.539 1.982-.949.49-.409.767-.98.831-1.711.064-.731.127-2.308.188-4.731 1.636.29 3.051.466 4.246.529-.223 2.369-.423 4.182-.601 5.437-.178 1.256-.722 2.301-1.632 3.134-.911.834-2.183 1.471-3.819 1.91l-11.636 3.123c-3.826 1.027-5.922-.557-6.29-4.753l-1.055-12.024 3.969-1.065.239 2.725 12.977-3.483-.52-5.928-17.67 4.743-.337-3.849 21.664-5.815 1.195 13.625-16.972 4.556.444 5.057c.166 1.892 1.098 2.609 2.796 2.154zm-13.396 6.909c-.339.518-.804.952-1.395 1.302-.591.351-2.182.888-4.771 1.612a70.28 70.28 0 0 0-1.335-3.955 51.031 51.031 0 0 0 2.946-.676c.518-.139.906-.353 1.165-.643.258-.29.394-.645.407-1.066.014-.42-.054-1.873-.204-4.359-.149-2.485-.37-5.549-.662-9.189l-3.472.932c.286 4.198.387 7.231.304 9.098-.083 1.868-.419 3.825-1.008 5.871a23.18 23.18 0 0 1-2.491 5.701 24.85 24.85 0 0 0-3.478-1.482c.469-.692.892-1.404 1.267-2.137l-7.383 2.657c-1.105.44-1.941.866-2.509 1.277l-1.96-2.953c.868-1.048 1.759-4.296 2.671-9.746l-3.338.896-.315-3.596 12.387-3.325.315 3.596-5.147 1.382a179.032 179.032 0 0 1-1.967 8.55c1.622-.483 3.087-.938 4.394-1.366a114.609 114.609 0 0 0-2.347-4.704l2.885-1.838 3.476 6.313c1.021-2.651 1.247-7.064.678-13.237l-2.721.73-.326-3.708 2.802-.752-.379-4.787 3.566-.957.366 4.79 7.025-1.885 1.084 15.955c.133 2.15.163 3.508.089 4.074a3.85 3.85 0 0 1-.619 1.625zm-25.029-17.845l10.296-2.764.315 3.596-10.296 2.764-.315-3.596zm-3.725 14.227l1.119 12.755-3.647.978-.123-1.404-9.465 2.54.126 1.433-3.646.979-1.121-12.783 6.488-1.741-.31-3.54-7.535 2.022-.295-3.371 7.534-2.022-.29-3.301-6.626 2.051a42.497 42.497 0 0 0-.766-3.101 259.09 259.09 0 0 0 17.02-5.575l.742 3.137a345.78 345.78 0 0 1-6.635 2.269l.309 3.512 7.587-2.037.296 3.371-7.588 2.037.311 3.54 6.515-1.749zm-12.82 6.835l.414 4.719 9.465-2.54-.415-4.72-9.464 2.541zm-7.806-9.206c-1.01-.668-2.576-1.628-4.698-2.88l2.006-3.097a70.285 70.285 0 0 1 4.917 2.562l-2.225 3.415zm2.259 4.167l-2.239 3.563a107.828 107.828 0 0 0-5.05-3.13l1.957-3.344a85.393 85.393 0 0 1 5.332 2.911zm.273 4.988c-.583 4.412-1.219 8.215-1.908 11.41a53.428 53.428 0 0 0-3.799-.131c.711-3.161 1.379-7.021 2.003-11.579 1.26.179 2.495.279 3.704.3zm89.993-16.077a363.456 363.456 0 0 0-9.066 3.958l-.935-3.775a454.186 454.186 0 0 0 9.792-4.124c.031 1.602.101 2.916.209 3.941zM308.929 90.475l-.341-1.269-9.7 2.604.34 1.269-1.518.407-4.351-16.228 12.737-3.419 4.351 16.228-1.518.408zm-3.992-14.888l-9.7 2.604 1.432 5.344 9.701-2.604-1.433-5.344zm1.792 6.684l-9.7 2.604 1.509 5.63 9.701-2.604-1.51-5.63zM287.99 93.998c-1.405.377-2.651.082-3.736-.885-1.086-.966-1.929-2.57-2.53-4.81-.655-2.442-.745-4.399-.272-5.871.474-1.471 1.479-2.413 3.015-2.825 2.93-.787 5.029 1.185 6.297 5.915.626 2.336.693 4.232.199 5.69-.493 1.457-1.484 2.386-2.973 2.786zm1.022-7.833c-1.037-3.866-2.454-5.558-4.253-5.075-1.899.509-2.323 2.727-1.27 6.653.986 3.676 2.41 5.264 4.274 4.764 1.834-.493 2.25-2.606 1.249-6.342zm-13.45 11.169c-1.31.351-2.432.391-3.367.118l-.487-1.814a5.281 5.281 0 0 0 3.502.238c.952-.255 1.645-.692 2.076-1.309.431-.617.542-1.319.331-2.105-.47-1.752-1.958-2.291-4.465-1.618l-1.152.309-.388-1.447 1.098-.295c2.221-.597 3.112-1.717 2.671-3.361-.408-1.519-1.46-2.051-3.157-1.596-.971.261-1.797.834-2.479 1.719l-.443-1.653c.765-.767 1.751-1.313 2.96-1.637 1.179-.317 2.209-.263 3.089.162.88.425 1.451 1.129 1.715 2.112.485 1.811-.125 3.223-1.832 4.237l.009.036c1.029-.161 1.915-.021 2.656.422.741.443 1.231 1.111 1.471 2.005.334 1.245.155 2.369-.537 3.373-.692 1.003-1.782 1.704-3.271 2.104zm-13.062 5.508a23.72 23.72 0 0 0-.67-1.43 42.656 42.656 0 0 0 2.619-.588c.965-.259 1.321-.859 1.068-1.8l-.795-2.967-9.28 2.491c.348 2.372.009 4.692-1.017 6.96-.48-.268-.987-.515-1.52-.742.82-1.561 1.195-3.258 1.125-5.091-.068-1.349-.404-3.149-1.008-5.401l-1.658-6.184 11.933-3.203 3.738 13.94c.473 1.764-.13 2.871-1.81 3.322a143 143 0 0 1-2.725.693zm-.308-16.222l-9.004 2.417.911 3.396 9.003-2.417-.91-3.396zm1.26 4.701l-9.003 2.417a44.12 44.12 0 0 1 .786 3.467l9.137-2.452-.92-3.432zm-17.623 13.994c-1.405.377-2.656.124-3.751-.761-1.096-.884-1.915-2.336-2.456-4.355-.655-2.443-.65-4.525.015-6.245.666-1.721 1.856-2.812 3.571-3.272.982-.264 1.789-.337 2.421-.219l.431 1.608a5.074 5.074 0 0 0-2.408.053c-1.197.321-2.019 1.101-2.466 2.338-.447 1.238-.434 2.761.038 4.569l.044-.012c.315-1.445 1.19-2.36 2.625-2.745 1.197-.321 2.258-.187 3.181.401.924.589 1.559 1.53 1.906 2.822.363 1.353.248 2.574-.343 3.666-.592 1.091-1.528 1.808-2.808 2.152zm1.424-5.153c-.256-.953-.679-1.634-1.271-2.044-.592-.41-1.302-.503-2.129-.281-.786.211-1.352.65-1.696 1.317a2.826 2.826 0 0 0-.222 2.1c.244.912.696 1.627 1.355 2.146.66.519 1.392.671 2.195.455.763-.204 1.307-.651 1.633-1.339.326-.687.371-1.472.135-2.354zm-8.374 6.779l.345 1.287-17.489 4.694-.345-1.286 8.021-2.154-.82-3.056-6.842 1.837-.345-1.287 6.842-1.837-.651-2.43 1.5-.403.652 2.431 6.735-1.808.345 1.287-6.735 1.807.819 3.057 7.968-2.139zm-8.881-10.338a92.035 92.035 0 0 1 6.219 3.197l-.883 1.349a74.302 74.302 0 0 0-1.575-.947c-4.14 1.226-7.779 2.391-10.917 3.495-.336.129-.786.352-1.352.67l-1.145-1.341c.598-.39 1.075-.825 1.432-1.304.936-1.317 1.833-2.912 2.691-4.784l-6.119 1.643-.345-1.287 16.667-4.474.345 1.287-8.583 2.304a66.656 66.656 0 0 1-3.259 5.664 689.353 689.353 0 0 1 9.006-2.762 91.627 91.627 0 0 0-2.907-1.557l.725-1.153zm-12.971 18.273c-.739.198-1.547.396-2.426.594a60.837 60.837 0 0 0-.708-1.496 21.189 21.189 0 0 0 2.299-.426c.881-.236 1.207-.854.978-1.853a194.003 194.003 0 0 0-2.132-9.237l-3.394.911.371 1.529c1.199 4.711.776 8.797-1.271 12.258a25.106 25.106 0 0 0-1.398-.927c1.895-2.885 2.305-6.545 1.231-10.983l-.362-1.493-2.644.71-.365-1.359 2.662-.714a194.056 194.056 0 0 0-.969-3.687l1.465-.393c.328 1.247.642 2.478.942 3.694l4.815-1.292c1.124 4.526 1.977 8.186 2.561 10.98.319 1.715-.233 2.776-1.655 3.184zm-17.743-11.963l7.164-1.923.355 1.322-7.164 1.923-.355-1.322zm-5.897 10.587l4.43-1.189 2.061 7.685-1.394.374-.287-1.072-7.521 2.019.287 1.072-1.393.374-2.06-7.685 4.43-1.189-.805-3.003-5.627 1.511-.365-1.359 5.628-1.51-.803-2.994c-1.44.463-3.011.959-4.715 1.486-.198-.406-.409-.835-.632-1.286 4.068-1.207 7.82-2.476 11.255-3.807l.664 1.335c-1.403.53-3.118 1.131-5.147 1.803l.825 3.075 5.823-1.564.365 1.359-5.824 1.563.805 3.002zm-4.139 2.491l1.083 4.039 7.521-2.019-1.083-4.039-7.521 2.019zm-9.458-8.133l.611-1.294c1.354.479 2.64.99 3.858 1.532-.213.491-.432.984-.657 1.479a60.77 60.77 0 0 0-3.812-1.717zm.802 11.433l-5.546 1.489c1.501 1.814 3.671 2.636 6.511 2.467-.3.643-.528 1.221-.683 1.736-2.674-.164-4.808-1.181-6.401-3.053-.166 2.025-1.741 4.089-4.726 6.193a8.755 8.755 0 0 0-1.35-1.036c3.158-1.934 4.749-3.868 4.773-5.803l-5.315 1.426-.33-1.233 1.554-.417-1.296-4.835a45.968 45.968 0 0 0-1.25-.517c1.135-2.054 1.904-4.183 2.309-6.386l1.514-.139a25.148 25.148 0 0 1-.465 1.907l5.395-1.448.321 1.197a96.28 96.28 0 0 1-1.437 3.068l3.198-.858 1.447 5.398 1.447-.389.33 1.233zm-10.245 1.429l2.787-.748c-.053-.625-.377-2.026-.974-4.203l-2.929.786 1.116 4.165zm-.903-8.188a26.005 26.005 0 0 1-1.241 2.977l4.431-1.189c.549-1.189.996-2.19 1.339-3.004l-4.529 1.216zm6.986 2.091l-3.001.805a71.363 71.363 0 0 1 1 4.196l3.117-.837-1.116-4.164zm-11.052 4.633a79.168 79.168 0 0 0 1.676-1.178c.168.581.306 1.048.414 1.403-.098.064-.667.466-1.707 1.205l1.543 5.755c.326 1.215-.053 1.994-1.135 2.336-.518.164-1.106.328-1.764.492a60.135 60.135 0 0 0-.63-1.421 15.91 15.91 0 0 0 1.672-.334c.429-.115.576-.423.442-.923l-1.354-5.049-1.85 1.311-.599-1.449a72.398 72.398 0 0 0 2.061-1.31l-1.109-4.137-2.09.561-.326-1.215 2.09-.562-.891-3.324 1.357-.364.892 3.324 2.018-.542.326 1.215-2.018.542.982 3.664zm-3.743 6.197c.141.907.236 1.712.284 2.414.11 1.222-.597 2.038-2.121 2.447l-2.304.619c-.918.246-1.6.225-2.047-.064-.427-.256-.751-.801-.975-1.635l-1.26-4.7-2.894.777c.399 2.038.365 3.625-.103 4.759-.624 1.483-2.009 2.934-4.156 4.354a14.54 14.54 0 0 0-1.252-1.025c2.075-1.31 3.368-2.532 3.881-3.666.488-.942.558-2.289.21-4.041l-2.403.645.22.822-1.429.383-2.08-7.756 8.164-2.192a41.264 41.264 0 0 0 1.217-3.89l1.567.346a62.568 62.568 0 0 1-1.203 3.12l3.975-1.067 2.08 7.757-1.429.383-.221-.822-2.697.724 1.198 4.468c.14.525.31.849.51.975.245.151.605.163 1.082.035l1.858-.499c.809-.217 1.188-.663 1.134-1.339a22.126 22.126 0 0 0-.432-2.47c.557.08 1.1.126 1.626.138zm-4.624-3.319l-1.169-4.361-10.861 2.916 1.169 4.361 10.861-2.916zm-12.361-5.533l.866-1.056a37.363 37.363 0 0 1 2.688 1.884l-.949 1.174a24.623 24.623 0 0 0-2.605-2.002zm-14.44 19.51a45.37 45.37 0 0 0-3.165-2.235l.829-1.123a64.862 64.862 0 0 1 3.292 2.066l-.956 1.292zm7.891-6.142l1.466.469a46.827 46.827 0 0 1-1.826 3.69l-1.302-.571c.696-1.259 1.25-2.455 1.662-3.588zm-12.18 7.715l7.575-2.034-1.169-4.361-6.396 1.717-.35-1.305 6.396-1.716-.671-2.502-4.645 1.246-.335-1.251a48.386 48.386 0 0 1-2.32 2.347 10.483 10.483 0 0 0-1.253-1.1c3.468-2.924 5.701-5.809 6.699-8.657l1.947-.523-.277.611c2.542 1.91 5.727 3.073 9.553 3.489-.2.54-.388 1.101-.563 1.684a19.417 19.417 0 0 1-3.076-.687l.326 1.215-4.627 1.242.671 2.502 6.36-1.707.349 1.305-6.359 1.707 1.169 4.361 7.61-2.043.355 1.322-16.614 4.46-.355-1.322zm10.948-13.093c-2.174-.681-4.308-1.737-6.402-3.167-.812 1.878-2.173 3.872-4.084 5.981l10.486-2.814zm-12.878 14.051a21.4 21.4 0 0 0-.638 1.762c-3.804.382-6.846-.5-9.126-2.647-.552 2.869-2.767 5.239-6.644 7.11-.347-.341-.76-.716-1.24-1.124 3.791-1.669 5.926-3.646 6.404-5.934l-7.101 1.907-.33-1.234 7.646-2.052c.03-.41.036-.84.018-1.289l1.465-.393c.022.441.025.868.008 1.282l7.941-2.132.331 1.233-7.298 1.959c2.155 1.753 5.01 2.27 8.564 1.552zm-12.783-4.538c1.646-.742 3.003-1.633 4.071-2.674a23.592 23.592 0 0 0-2.83-1.338l.623-1.106c1.067.41 2.116.882 3.147 1.416a9.407 9.407 0 0 0 1.872-4.124l-5.359 1.439c-.378 1.328-.901 2.522-1.567 3.582a5.255 5.255 0 0 0-1.317-.624c1.168-1.693 1.856-3.698 2.065-6.014l1.411-.092c-.065.637-.159 1.25-.282 1.839l6.243-1.676.297 1.108c-.555 4.07-2.985 7.2-7.287 9.39-.267-.376-.629-.751-1.087-1.126zm-1.801 2.284l-.917-3.423-3.737 3.063-.843-1.288a90.173 90.173 0 0 0 4.196-3.205l-1.43-5.335 1.394-.374 2.731 10.188-1.394.374zm-3.186-5.314c-1.155-.737-2.216-1.315-3.184-1.732l.641-1.111a27.412 27.412 0 0 1 3.272 1.632l-.729 1.211zm-5.361 7.302l-6.324 1.697.23.858-1.358.365-2.497-9.312 9.04-2.426 2.496 9.311-1.357.365-.23-.858zm-1.941-7.239l-6.324 1.698 1.615 6.023 6.324-1.698-1.615-6.023zm-10.453 5.795l2.661-.714.336 1.251-2.662.714.676 2.52.537-.853c.918.52 1.911 1.128 2.979 1.825l-.779 1.167a47.24 47.24 0 0 0-2.637-1.763l2.137 7.971-1.322.355-2.132-7.954c-.167 1.948-.529 3.693-1.086 5.235-.331-.473-.677-.93-1.037-1.369.66-1.966 1.048-4.209 1.163-6.731l-2.679.719-.336-1.251 2.859-.767-.762-2.842c-.759.268-1.576.551-2.453.85a11.09 11.09 0 0 0-.618-1.233c2.394-.783 4.461-1.548 6.201-2.296l.686 1.272c-.704.278-1.545.593-2.523.945l.791 2.949zm-8.501 3.738l-5.93 1.592a69.237 69.237 0 0 1-3.406 2.868 521.69 521.69 0 0 0 5.401-1.641c.718-.608 1.457-1.253 2.219-1.937l1.187.716a113.162 113.162 0 0 1-7.766 6.031 431.91 431.91 0 0 0 8.058-2.622 51.477 51.477 0 0 0-1.638-.787l.722-1.094c2.031.911 3.671 1.716 4.918 2.416l-.714 1.264a48.503 48.503 0 0 0-1.821-1.044c-1.438.45-2.889.907-4.354 1.37l.64 2.386c.396 1.478-.15 2.416-1.639 2.816-.762.204-1.615.427-2.559.668a26.62 26.62 0 0 0-.666-1.412 28.636 28.636 0 0 0 2.499-.537c.798-.214 1.08-.756.847-1.626l-.498-1.858c-1.575.506-3.169 1.016-4.779 1.532-.518.164-1.011.348-1.48.55l-.847-1.229c.704-.278 1.462-.711 2.275-1.3a81.486 81.486 0 0 0 3.511-2.724c-1.47.445-2.773.859-3.909 1.241-.562.189-.981.34-1.257.452l-.781-1.055a8.713 8.713 0 0 0 1.646-1.074 39.858 39.858 0 0 0 2.056-1.797l-3.35.899.139.518-1.358.365-1.82-6.792 14.13-3.793 1.821 6.792-1.358.364-.139-.518zm-7.781-3.525l-5.038 1.352.431 1.609 5.038-1.352-.431-1.609zm.69 2.574l-5.038 1.352.436 1.626 5.038-1.352-.436-1.626zm5.687-4.286l-5.055 1.357.431 1.609 5.056-1.357-.432-1.609zm.69 2.574l-5.055 1.357.436 1.626 5.056-1.357-.437-1.626zm-5.843 12.776a63.264 63.264 0 0 1-4.513 3.664 24.906 24.906 0 0 0-.947-1.029 56.708 56.708 0 0 0 4.359-3.527l1.101.892zm11.813-2.155l-.228 1.364a55.374 55.374 0 0 0-5.705-.634l.291-1.343c1.935.12 3.815.324 5.642.613zm11.792-6.173a71.2 71.2 0 0 1-2.691 5.607 14.135 14.135 0 0 0-1.282-.709c1.06-1.856 1.916-3.663 2.568-5.422l1.405.524zm7.981 1.555l-.997 1.283a58.97 58.97 0 0 0-4.443-3.501l.902-1.066a82.489 82.489 0 0 1 4.538 3.284zm75.795-32.569c1.425.409 2.767.867 4.026 1.372-.23.572-.442 1.089-.638 1.55-1.606-.705-2.919-1.221-3.938-1.548l.55-1.374zm5.058 5.08l-.3 7.092-1.787-.306c.292-2.198.417-4.563.377-7.094.694.159 1.264.261 1.71.308zm23.017-9.378l-4.109 1.103c-.338 2.811-.691 5.019-1.058 6.625 1.342-.469 2.78-.998 4.314-1.589a66.305 66.305 0 0 0-2.058-2.637l1.084-.885a95.583 95.583 0 0 1 3.367 4.269 93.73 93.73 0 0 0-1.182.949l-.432-.612c-2.212.824-4.22 1.593-6.027 2.308l-1.013-1.28c.444-.439.737-1.035.88-1.788.269-1.33.477-2.983.624-4.958l-3.019.811-.354-1.323 8.628-2.316.355 1.323z" fill="#fff"/><path d="M262.802 61.257l41.825-11.207M55.199 116.885l41.825-11.207" stroke="#fff" stroke-width="2" fill="none"/></svg>