<svg xmlns="http://www.w3.org/2000/svg" xmlns:xlink="http://www.w3.org/1999/xlink" style="display: none">
	<symbol id="email" viewBox="0 0 25 25">
		<path d="M18.8 12.5L24 7.6v9.9l-5.2-5zM11.7 16L1 5.7s-.4-1 1.2-1h20.5s1.2 0 1.3.8L13.2 16s-.7.7-1.5 0zM1 17.5V7.6l5.2 4.9-5.2 5zm6.2-4.1l3.6 3.6c2.3 1.6 3.6-.2 3.6-.2l3.4-3.4 5.8 5.6c1.2 1.3-.7 1.3-.7 1.3H2.1c-1.5-.1-.9-1-.9-1l6-5.9z"/>
	</symbol>

	<symbol id="skype" viewBox="0 0 25 25">
		<path d="M24 14.3c.1-.6.1-1.2.1-1.8C24.1 6.1 18.9.9 12.5.9c-.6 0-1.2.1-1.8.1C9.6.4 8.4 0 7 0 3.1 0 0 3.1 0 7c0 1.4.4 2.6 1 3.7-.1.6-.1 1.2-.1 1.8 0 6.4 5.2 11.6 11.6 11.6.6 0 1.2 0 1.8-.1 1.1.7 2.3 1 3.7 1 3.9 0 7-3.1 7-7 0-1.4-.4-2.6-1-3.7zm-6 3.5c-.5.7-1.2 1.3-2.2 1.7-.9.4-2.1.6-3.3.6-1.5 0-2.8-.3-3.8-.8-.7-.4-1.3-.9-1.7-1.6-.4-.7-.7-1.3-.7-1.9 0-.4.1-.7.4-1 .3-.3.6-.4 1.1-.4.3 0 .6.1.9.3.2.2.4.5.6.9.2.5.4.8.6 1.1.2.3.5.6 1 .7.4.2.9.3 1.6.3.9 0 1.7-.2 2.2-.6.6-.4.9-.9.9-1.5 0-.5-.1-.8-.5-1.1-.3-.3-.7-.5-1.2-.7-.5-.2-1.2-.3-2-.5-1.1-.2-2.1-.5-2.8-.9-.8-.3-1.4-.8-1.8-1.3-.5-.6-.7-1.3-.7-2.1s.2-1.5.7-2.2c.5-.6 1.2-1.1 2.1-1.4.8-.3 1.9-.4 3.1-.4 1 0 1.8.1 2.5.3.7.2 1.3.5 1.8.9s.8.8 1 1.2c.2.4.3.8.3 1.2 0 .4-.1.7-.4 1-.3.3-.6.4-1 .4s-.7-.1-.9-.3c-.2-.2-.4-.5-.6-.8-.3-.5-.6-1-1-1.3-.4-.3-1-.4-1.9-.4-.8 0-1.5.2-1.9.5-.6.3-.8.7-.8 1.1 0 .3.1.5.2.7.2.2.4.4.7.5.3.2.6.3.9.4.3.1.8.2 1.5.4.9.2 1.7.4 2.4.6.7.2 1.3.5 1.8.8.5.3.9.8 1.2 1.3.3.5.4 1.1.4 1.9 0 .9-.2 1.7-.7 2.4z"/>
	</symbol>

	<symbol id="qq" viewBox="0 0 25 25">
		<path d="M23.5 14.4c.5 1.2.7 2.5.3 3.8-.1.2-.2.4-.3.5-.3.4-.6.4-1 0-.3-.4-.6-.8-.8-1.3-.4 1.1-.9 2.1-1.8 2.9.1.1.2.2.3.2.4.2.8.4 1.2.7.8.6.8 1.5-.1 2-.7.4-1.4.6-2.1.7-1 .1-2.1.1-3.2-.1-.7-.1-1.5-.3-2.1-.6-.4-.2-.9 0-1.3-.2-.1 0-.1.1-.2.1-.5.3-1.1.6-1.7.8-1.1.3-2.2.3-3.2.2-.9-.1-1.8-.2-2.6-.5-.2-.1-.5-.2-.6-.4-.5-.4-.5-.9-.3-1.5.1-.6.5-.8 1-1 .3-.1.6-.1.9-.1-.1-.2-.3-.3-.5-.4-.5-.4-.9-.8-1.2-1.4-.3-.5-.6-1-.7-1.6 0-.1 0-.1-.1-.1s-.1.1-.1.1c-.2.5-.5.8-.9 1.2-.2.2-.4.3-.6.3-.3.1-.4 0-.5-.3C1 18 1 17.5 1 17c.1-1.3.5-2.5 1.2-3.6.5-.8 1.1-1.4 1.9-2 .1-.1.2-.2.1-.4-.1-.4 0-.8.2-1.2.2-.3.3-.6.3-1 0-.2.1-.4.3-.6.1-.2 0-.4.1-.7.2-1.3.7-2.4 1.4-3.4C7.6 2.6 9 1.4 10.9 1c1.2-.2 2.3-.3 3.5-.2 1.1.1 2.2.4 3.2 1 1.8 1 2.8 2.5 3.3 4.4.1.5.3 1.1.3 1.7 0 .4.2.7.4 1 .4.7.5 1.5.2 2.2-.1.2 0 .2.1.3.6 1 1.2 2 1.6 3zm-8.4 8.9c1.8.5 3.5.7 5.3.1.6-.2 1.1-.4 1.4-1 .2-.5-.1-.8-.6-.9h-.8c-.1 0-.1 0-.1-.1l.1-.1c.2-.1.4-.1.7-.2-.3-.3-.7-.4-1-.5-.3-.1-.4-.1-.7.1-1.4 1.2-3 1.9-4.8 2.2.1.4.3.3.5.4zM5 20.9l-.6.3-.3.3v.2c0 .1.1 0 .2 0s.3-.1.4-.1c-.2.2-.4.3-.6.5-.1.3-.1.6.1.9.4.4.9.5 1.4.7 1.6.4 3.2.3 4.8 0 .4-.1.9-.2 1.2-.5 0 0 .1-.1.1-.2s-.1 0-.2 0c-.8-.1-1.5-.3-2.3-.5-1-.3-2-.7-2.9-1.4-.4-.4-.8-.4-1.3-.2zm.2-3.4c.3 1.5 1.2 2.5 2.3 3.4.6.5 1.2.8 1.9 1.1 1.1.4 2.2.6 3.3.8.7.1 1.5.2 2.2 0 2-.4 3.6-1.4 4.8-3 .6-.8 1-1.7 1.1-2.8.1-1.3-.3-2.4-1.1-3.4-.1-.1-.1-.1-.2 0-.5.3-.9.6-1.4.8-1.7.8-3.4 1.2-5.3 1.2-.8 0-1.6-.1-2.3-.3v2.3c0 .4-.3.8-.6.8-.7.1-1.4.1-2.1-.1-.4-.3-.8-.7-.8-1.3-.1-1 0-1.9.1-2.9 0-.1 0-.2-.1-.2-.3-.1-.6-.3-.8-.5-.2-.2-.3-.1-.4.1 0 .1-.1.2-.1.2-.6 1.3-.7 2.6-.5 3.8zm4.3-2.1v1.3c-.1-.1-.1-.2-.1-.3-.2-.4-.2-.9-.2-1.4 0-.1 0-.2-.1-.2-.5-.1-.9-.3-1.4-.5-.1 0-.1 0-.2.1-.1.7-.3 1.5-.3 2.3 0 .8.3 1.2 1 1.3h1.5c.4 0 .5-.2.5-.5 0-.7 0-1.4-.1-2 0-.3-.3-.5-.5-.4-.2-.1-.1.2-.1.3zm2.6-10.8c-.5-.6-1.2-.6-1.7 0-.7.8-.6 2.4 0 3.3.5.6 1.1.6 1.6.1.4-.5.6-1.1.6-1.6 0-.8-.1-1.3-.5-1.8zm4 .2c-.5-.8-1.4-.8-1.9 0-.3.4-.4.9-.4 1.4 0 .6.1 1.2.5 1.7s.9.6 1.4.3c.4-.2.6-.6.7-.9.2-.9.2-1.8-.3-2.5zm2 5.2c-.6-.4-1.4-.7-2.1-.9-1.8-.5-3.7-.4-5.5 0-.8.2-1.6.5-2.4.9-.3.2-.3.4 0 .5.5.4.9.5 1.5.6-.1-.2-.3-.4-.4-.6 2.7 1.9 5.4 1.8 8.1-.1-.2.3-.4.5-.6.7.6 0 1-.2 1.4-.5.4-.2.4-.3 0-.6zm3.4-.6c-.6 1.7-1.5 3.1-3.3 3.7 1.3-.8 2.4-1.7 2.7-3.2-.1.1-.2.1-.3.2-1.6 1.4-3.5 2.2-5.6 2.5-2.1.2-4.1 0-6.1-.7-1.5-.5-2.9-1.3-3.8-2.7H5c0 .5-.1 1.1.2 1.5.3.5.5.9.8 1.3-.7-.5-1.2-1.2-1.3-2-.5.6-.4 1.3.1 2 .7.9 1.7 1.5 2.7 1.9 1.2.6 2.5.9 3.9 1.1 1.1.1 2.3.2 3.4-.1 1.9-.4 3.7-1.2 5.4-2.2.8-.5 1.3-1.2 1.5-2.1 0-.3 0-.9-.2-1.2zm-6.1-2.8c-.1 0-.2-.1-.2-.2s0-.4-.2-.4-.2.2-.3.4c0 .1 0 .2-.2.2-.1 0-.1-.1-.1-.2 0-.5.4-.9.7-.7.4.1.5.9.3.9zm-3.9.1c-.1-.2-.1-.3-.1-.5s0-.5.2-.6c.2-.2.5-.2.6 0 .2.4.2.7 0 1.1-.1.2-.2.3-.4.3-.1 0-.2-.1-.3-.3z"/>
	</symbol>

	<symbol id="globe" viewBox="0 0 25 25">
		<path d="M12.8 1C8.6 1 5 3.4 3.1 6.9c.2-.1.5-.1.7-.1.7 0 1.5.4 2.1 1.1.5.1.9.2 1.4.3-.1.4-.1.8-.2 1.2.9 1.7.5 2.7-.2 3.6 0 .5.1 1.1.1 1.6.3.4.7.9 1.3 1.5-.2-1-.3-2-.3-3.1h4.3v3.2c-1.2 0-2.4.1-3.5.3l1 1c.8-.1 1.7-.2 2.5-.2v.3c.4-.2.8-.4 1.3-.4.2 0 .5 0 .7.1.9.1 1.8.2 2.6.3-.1.4-.2.7-.4 1.1.3.3.6.6.8.9.2-.6.4-1.1.6-1.8.9.2 1.7.5 2.4.8-.7.9-1.6 1.7-2.5 2.3v.1c0 .8-.3 1.4-.7 1.9 4-1.8 6.7-5.8 6.7-10.6 0-6.1-4.9-11.3-11-11.3zM7.5 7.2c-.9-.3-1.7-.5-2.4-.9C6.2 4.8 7.7 3.7 9.4 3 8.7 4.1 8 5.5 7.5 7.2zm4.7 4.7H7.9c0-1.2.2-2.4.4-3.5 1.2.2 2.5.4 3.9.4v3.1zm0-4.1c-1.3 0-2.5-.1-3.6-.4.7-2.4 1.8-4.2 3.1-4.9h.5v5.3zm8.8-.6c.8 1.4 1.3 3 1.4 4.7h-3.8c0-1.3-.2-2.6-.4-3.7 1.1-.2 2-.6 2.8-1zm-7.7-4.7h.5c1.3.6 2.5 2.4 3.1 4.9-1.1.2-2.4.3-3.6.4V2.5zm3.8 14.1c-1.2-.2-2.5-.4-3.9-.4V13h4.3c0 1.3-.1 2.5-.4 3.6zm-3.8-4.7v-3c1.3 0 2.7-.2 3.9-.4.2 1.1.4 2.3.4 3.5h-4.3zM16 3.1c1.7.6 3.2 1.8 4.3 3.3-.7.3-1.5.6-2.4.9-.4-1.8-1.1-3.2-1.9-4.2zm4.9 14.8c-.8-.4-1.7-.7-2.7-1 .2-1.2.4-2.5.4-3.8h3.8c-.1 1.7-.6 3.3-1.5 4.8zm-5.3 1.6c-2.2-1.9-2.8-.9-3.9.1-.7.7-2.5-.8-4-2.4-1.5-1.6-3-3.4-2.3-4.2 1-1 1.9-1.7.1-4-1.8-2.3-3-.5-4 .5-1.1 1.2-.1 5.5 4.1 9.8 4.2 4.3 8.4 5.4 9.5 4.2 1-1 2.8-2.2.5-4z"/>
	</symbol>

	<symbol id="24hours" viewBox="0 0 25 25">
		<path d="M21.9 18.5c-1.5 1.5-3.3 2.5-5.4 2.9l1.4.9c.1.1.1.2.2.3 0 .1 0 .2-.1.3l-.4.6c-.1.1-.2.2-.3.2-.1 0-.2 0-.2-.1l-3.3-2.2c-.1-.1-.1-.1-.2-.3 0-.1 0-.2.1-.3l2.2-3.3c.1-.2.4-.2.5-.1l.7.4c.2.1.2.4.1.5l-1 1.4c1.7-.4 3.3-1.2 4.6-2.5 1.7-1.7 2.7-4 2.7-6.4 0-2.4-1-4.7-2.7-6.4-1.7-1.7-4-2.7-6.5-2.7-2.4 0-4.7 1-6.5 2.7-.7.8-1.2 1.6-1.7 2.4 0 .1-.1.1-.2.2h-.3l-.7-.4c-.1 0-.2-.1-.2-.2v-.3c.5-1 1.1-1.8 1.9-2.6 2-2 4.7-3.1 7.6-3.1 2.9 0 5.6 1.1 7.6 3.1S25 8.2 25 11.1c0 2.7-1.1 5.4-3.1 7.4zm-7.1-4.1h-5c-.2 0-.3-.1-.4-.2-.1-.1 0-.3 0-.4l2.8-3.5c1-1.1 1.1-1.9 1-2.3-.1-.2-.4-.4-.7-.4-.4 0-.9.2-1.2.7-.1.2-.3.3-.5.2l-.7-.3c-.1-.1-.2-.3-.1-.5.5-1 1.5-1.6 2.6-1.6 1 0 1.8.5 2.2 1.3.3.7.4 2-1.2 3.9l-1.2 1.5h2.5c.2 0 .4.2.4.4v.8c-.1.3-.2.4-.5.4zm4.6 0h-.8c-.2 0-.4-.2-.4-.4v-1.4h-3.6c-.2 0-.3-.1-.4-.2-.1-.1 0-.3 0-.4l4.3-5.6c.1-.1.2-.2.3-.2h.5c.2 0 .4.2.4.4V11h.4c.2 0 .4.2.4.4v.8c0 .2-.2.4-.4.4h-.4V14c.1.2-.1.4-.3.4zm-1.2-4.8L17 11.1h1.3V9.6zM6 9l.3.5c.4.7.6 1.6.3 2.4-.2.8-.8 1.5-1.5 2-.1.1-.2.2-.4.2l2.6 4.4c.1-.1.3-.2.4-.3.5-.3 1.1-.4 1.6-.4 1.1 0 2.2.6 2.8 1.6l.3.5c.4.7.6 1.6.3 2.4-.2.8-.8 1.5-1.5 2-.5.3-1.1.4-1.6.4s-1-.1-1.4-.3c-1.8-.8-4-3.1-5.7-6C.8 15.5-.2 12.5 0 10.5c.1-1.1.7-2.1 1.6-2.6.5-.3 1.1-.4 1.6-.4C4.4 7.4 5.5 8 6 9z"/>
	</symbol>

	<symbol id="wechat" viewBox="0 0 25 25">
		<path d="M22.1 20.7l.6 2.1-2.5-1.1c-2.7.8-5.5 0-5.5 0-4.8-1.6-4.9-5.8-4.9-5.8-.3-4.7 4.7-6.3 4.7-6.3 6.3-2.1 9.5 2.8 9.5 2.8 3.1 4.9-1.9 8.3-1.9 8.3zm-7-7.4c-.5 0-.9.4-.9.9s.4.9.9.9.9-.4.9-.9-.4-.9-.9-.9zm3.3 0c-.5 0-.9.4-.9.9s.4.9.9.9.9-.4.9-.9-.4-.9-.9-.9zm-9 4.2c-1.3.2-3.5-.5-3.5-.5l-3.1 1.6.7-2.7C-1.1 12.3.3 8.4.3 8.4c1.4-5.5 7-6.1 7-6.1 9.1-.8 10.5 6 10.5 6-11.1 1-8.4 9.2-8.4 9.2zm-2.1-12c-.5 0-.9.4-.9.9s.4.9.9.9.9-.4.9-.9-.4-.9-.9-.9zm3.4 0c-.5 0-.9.4-.9.9s.4.9.9.9.9-.4.9-.9-.4-.9-.9-.9z"/>
	</symbol>
</svg>
