<?xml version="1.0" encoding="utf-8"?>
<!-- Generator: Adobe Illustrator 24.1.1, SVG Export Plug-In . SVG Version: 6.00 Build 0)  -->
<svg version="1.1" id="Layer_1" xmlns="http://www.w3.org/2000/svg" xmlns:xlink="http://www.w3.org/1999/xlink" x="0px" y="0px"
	 viewBox="0 0 1000 1000" style="enable-background:new 0 0 1000 1000;" xml:space="preserve">
<style type="text/css">
	.st0{fill:#F5100A;}
	.st1{font-family:'SourceHanSansCN-Light-GBpc-EUC-H';}
	.st2{font-size:85px;}
</style>
<g>
	<g>
		<path class="st0" d="M537.1,382.7c-91.49,0-165.66,74.17-165.66,165.66s74.17,165.66,165.66,165.66s165.66-74.17,165.66-165.66
			S628.59,382.7,537.1,382.7z M568.63,588.31c-43.59,0-78.93-35.34-78.93-78.93s35.34-78.93,78.93-78.93
			c43.59,0,78.93,35.34,78.93,78.93S612.23,588.31,568.63,588.31z"/>
		<path class="st0" d="M568.07,507.16c-8.34-0.74-14.31,2.62-16.69,8.74c-2.83,6.4-0.12,14.04,8.07,17.22
			c7.8,3.03,14.71,0.15,17.28-6.46C579.77,518.87,575.8,513.01,568.07,507.16z"/>
		<path class="st0" d="M580.46,479.38c-7.2-2.8-12.99,0.4-15.14,5.93c-2.49,6.42,1,11.75,7.63,16.6c6.26,0.27,12.03-2.02,14.3-7.85
			C589.25,488.93,588.26,482.41,580.46,479.38z"/>
		<path class="st0" d="M568.63,453.32c-30.96,0-56.05,25.1-56.05,56.05s25.1,56.05,56.05,56.05c30.96,0,56.05-25.1,56.05-56.05
			S599.59,453.32,568.63,453.32z M595.89,496.39c-2.11,5.43-7.04,10.22-16.39,10.9l-0.12,0.3c6.77,6.26,9.52,13.81,6.48,21.61
			c-4.33,11.15-16.82,14.93-29.06,10.18c-13.42-5.22-18.41-16.36-14.76-25.73c3.15-8.09,10.21-11.94,19.41-12.22l0.02-0.33
			c-5.8-6.12-6.71-12.83-4.56-18.36c3.95-10.16,15.22-13.74,26.47-9.36C595.81,478.18,598.99,488.4,595.89,496.39z"/>
	</g>
	<g>
		<path class="st0" d="M390.7,320.34c-10.48,30.6-30.01,58.46-57.94,79.21c-24.04,17.85-51.34,28.22-79.09,31.51
			c-3,61.41,42.11,115.47,104.08,122.71c1.09,0.13,2.17,0.24,3.24,0.33c-0.06-1.9-0.1-3.82-0.1-5.74c0-15.83,2.09-31.17,6.01-45.77
			c-23.61-12-38.43-37.78-35.17-65.62c4.17-35.72,36.51-61.28,72.22-57.11c15.54,1.81,29.15,8.96,39.23,19.39
			c1.69-1.07,3.4-2.11,5.13-3.11c-0.03-4.08,0.12-8.2,0.48-12.35c0.49-5.74,1.35-11.35,2.55-16.83c1-4.58,2.24-9.06,3.7-13.42
			C438.15,336.5,415.95,324.51,390.7,320.34z M255.76,413.87c23.13-4.67,45.62-14.38,65.82-29.38
			c23.76-17.64,41.45-40.44,52.65-65.69C317.03,317.38,266.79,357.57,255.76,413.87z"/>
		<path class="st0" d="M401.76,398.61c-25.36-2.96-48.32,15.19-51.28,40.55c-2.19,18.74,7.15,36.17,22.41,45.19
			c3.52-9.02,7.76-17.69,12.66-25.91c-2.36,0.08-4.73-0.46-7.04-1.69c-8.72-4.62-10.62-15.21-5.55-24.79
			c5.56-10.5,15.16-13.51,22.49-9.63c4.6,2.44,7.17,6.37,7.97,11.24c7.29-8.48,15.36-16.26,24.12-23.21
			C420.63,404.05,411.75,399.78,401.76,398.61z"/>
		<path class="st0" d="M398.64,439.37c-2.69,3.41-5.26,6.93-7.69,10.53c-3.03,1.36-6.13,1.39-9.5-0.4
			c-5.17-2.74-6.87-8.68-3.64-14.78c3.39-6.4,9.91-7.89,14.89-4.96C396.24,431.65,398.37,435,398.64,439.37z"/>
	</g>
	<g>
		<path class="st0" d="M591.44,274.62c-59.5-6.96-113.83,31.69-128.02,88.29c-1.23,4.92-2.16,9.96-2.76,15.13
			c-0.47,4-0.73,7.97-0.79,11.91c5.36-2.62,10.87-4.97,16.52-7.05c18.93-6.95,39.38-10.74,60.72-10.74c9.05,0,17.94,0.68,26.63,2
			c3.64-19.46,17.41-36.42,37.5-43.2c29.57-9.98,61.63,5.91,71.6,35.48c6.84,20.28,1.51,41.74-12.05,56.43
			c7.68,7.56,14.66,15.83,20.85,24.69c6.85-12.72,11.45-26.93,13.23-42.15C702.42,340.73,656.12,282.18,591.44,274.62z"/>
		<path class="st0" d="M628.04,363.14c-5.13-2.07-9.3,0.16-10.9,4.1c-1.85,4.57,0.6,8.42,5.31,11.95c4.48,0.25,8.63-1.33,10.31-5.48
			C634.24,370.06,633.59,365.39,628.04,363.14z"/>
		<path class="st0" d="M657.3,371.68c-7.08-21-29.85-32.28-50.84-25.2c-14.34,4.83-24.15,16.99-26.67,30.89
			c7.53,1.87,14.87,4.23,21.99,7.04c2.69-3.78,7.07-5.58,12.44-5.68l0.02-0.24c-4.1-4.43-4.68-9.25-3.09-13.19
			c2.93-7.24,11.02-9.68,19.04-6.45c8.86,3.58,11.04,10.92,8.74,16.61c-1.56,3.87-5.14,7.24-11.84,7.64l-0.09,0.22
			c4.79,4.55,6.68,9.98,4.44,15.53c-0.07,0.18-0.15,0.35-0.23,0.52c6.06,3.83,11.86,8.02,17.39,12.55
			C658.34,401.48,662.19,386.16,657.3,371.68z"/>
		<path class="st0" d="M625.32,395.8c-5.59-3.24-11.38-6.18-17.34-8.81c2.15-3.04,5.96-4.59,10.93-4.08
			C623.99,386.87,626.75,390.8,625.32,395.8z"/>
	</g>
</g>
</svg>
