<?xml version="1.0" encoding="utf-8"?>
<!-- Generator: Adobe Illustrator 24.1.1, SVG Export Plug-In . SVG Version: 6.00 Build 0)  -->
<svg version="1.1" id="Layer_1" xmlns="http://www.w3.org/2000/svg" xmlns:xlink="http://www.w3.org/1999/xlink" x="0px" y="0px"
	 viewBox="0 0 1000 1000" style="enable-background:new 0 0 1000 1000;" xml:space="preserve">
<style type="text/css">
	.st0{fill:#F5100A;}
	.st1{font-family:'SourceHanSansCN-Light-GBpc-EUC-H';}
	.st2{font-size:85px;}
</style>
<path class="st0" d="M491.55,380.98l-20-16.07c-0.04-0.03-0.06-0.07-0.05-0.12c0.14-4.37,0.22-16.55-2.46-31.77
	c-3.06-17.39-10.47-42.1-28.39-61.09c-18.64-19.75-44.8-29.63-77.78-29.37c-33.25,0.26-59.64,10.59-78.42,30.7
	c-17.75,19-25.2,43.34-28.33,60.41c-2.4,13.13-2.7,23.91-2.65,29.23c0,0.04-0.02,0.07-0.04,0.1l-14.77,14.62c0,0,0,0-0.01,0.01
	c-6.54,5.65-10.29,13.85-10.29,22.5v42.92c0,7.55,2.65,14.86,7.48,20.65l5.69,6.83c0.03,0.03,0.04,0.08,0.03,0.13
	c-3.22,13.87-1.63,24.32,4.74,31.08c10.11,10.72,29.14,8.42,36.85,6.93c1.65-0.32,2.95-0.22,3.47,0.25
	c1.67,1.52,10.5,9.32,20.14,13.09c2.37,0.93,3.32,2.62,2.99,5.32l-5.02,57.84c0,0.05,0.02,0.1,0.06,0.13l1.35,0.99
	c17.98,13.25,31.44,19.93,40.12,19.93c0.03,0,0.06,0,0.09,0c-0.08-2.06,0.3-4.22,1.01-6.31c-3.55,0.46-13.19-0.96-36.04-17.56
	c-0.04-0.03-0.06-0.08-0.06-0.13l4.7-54.19c0.06-0.53,0.09-1.06,0.1-1.57c0-0.12,0.14-0.19,0.24-0.11
	c18.15,15.32,37.91,23.22,52.1,27.24c0.7-2.02,1.7-3.97,2.9-5.68c-11.98-3.28-28.56-9.54-44.54-21.27
	c-0.12-0.09-0.04-0.28,0.11-0.26c6.91,1.07,14.43,1.61,22.53,1.61c9.01,0,18.73-0.67,29.12-1.99c0.49-2.31,1.43-4.6,2.65-6.66
	c-23.5,3.28-43.5,3.19-59.45-0.26c-12.83-2.78-23.09-7.74-30.49-14.75c-14.41-13.64-13.68-31.15-13.65-31.77
	c0-0.01-0.75-3.42-0.75-3.43c-0.04-0.16-3.52-16.36-1.34-35.56c2.87-25.31,13.71-43.64,32.22-54.48c1.4-0.82,3.11-0.93,4.57-0.3
	c5.99,2.6,20.63,9.68,27.17,19.19c2.03,2.95,5.19,4.88,8.68,5.3c15.34,1.85,52.91,5.58,70.56,0.47c1.51-0.44,3.15-0.18,4.51,0.71
	c8.99,5.88,29.89,24.06,29.91,65.87l-0.56,16.97c1.18-0.22,2.38-0.34,3.56-0.34c0.92,0,1.82,0.07,2.7,0.19l0.7-21.2
	c0-0.08,0.08-0.15,0.16-0.14c9.2,0.87,17.18,0.42,23.76-1.35c9.43-2.53,16.02-11.13,16.02-20.92v-46.12
	C499.44,391,496.56,385,491.55,380.98z M281.21,502.48c0.06,0.09,0.02,0.21-0.09,0.23c-7.14,1.29-22.62,2.9-30.29-5.24
	c-4.71-5-5.86-13.2-3.41-24.41c0.01-0.07,0.07-0.12,0.14-0.12l23.9,0c0.08,0,0.15,0.06,0.14,0.15
	C271.49,476.87,271.84,489.94,281.21,502.48z M448.74,423.44c-0.01,0.14-0.2,0.18-0.27,0.05c-7.29-13.3-16.51-20.76-21.86-24.26
	c-2.88-1.89-6.41-2.42-9.67-1.48c-17.01,4.93-56.41,0.73-68.08-0.67c-1.71-0.21-3.26-1.17-4.27-2.63
	c-7.19-10.45-21.78-17.88-29.83-21.38c-3.28-1.42-7.1-1.19-10.21,0.64c-10.26,6-18.45,14.24-24.42,24.51c-0.06,0.1-0.2,0.1-0.25,0
	c-5.66-10.72-13.73-29.4-10.36-38.96c2-5.67,3.62-11.26,4.82-16.6c1.02-4.56,4.43-8.32,8.9-9.81l1.49-0.5
	c7.21-2.4,12.39-8.55,13.53-16.05c0.02-0.16,0.05-0.32,0.08-0.49c1.65-10.27,8.9-18.67,18.93-21.93
	c16.08-5.22,57.48-15.37,94.42,3.21c19.72,9.92,32.88,24.48,39.12,43.29c4.68,14.11,3.51,25.47,3.49,25.58L448.74,423.44z
	 M493.19,443.55c0,6.97-4.68,13.09-11.38,14.88c-6.15,1.65-13.81,2-22.8,1.04c-0.07-0.01-0.12-0.06-0.13-0.13
	c-0.82-9.06-2.62-16.92-5.01-23.71c-0.01-0.02-0.01-0.04-0.01-0.06l6.65-68.93c0.09-0.85,1.27-12.82-3.68-27.93
	c-4.63-14.14-15.74-33.81-42.34-47.19c-16.79-8.45-36.05-12.24-57.25-11.29c-17.42,0.79-32.41,4.63-41.91,7.72
	c-12.27,3.99-21.14,14.29-23.17,26.88c-0.03,0.18-0.06,0.37-0.09,0.55c-0.78,5.16-4.35,9.39-9.32,11.05l-1.49,0.5
	c-6.54,2.18-11.53,7.69-13.02,14.38c-1.14,5.1-2.69,10.44-4.61,15.88c-5.18,14.67,9.11,41.27,12.91,47.93
	c0.02,0.04,0.02,0.09,0.01,0.13c-3.7,8.27-6.15,17.61-7.29,27.84c-1.63,14.61-0.21,27.3,0.75,33.47c0.01,0.09-0.05,0.16-0.14,0.16
	h-23.36c-0.04,0-0.08-0.02-0.11-0.05l-5.77-6.92c-3.9-4.67-6.03-10.57-6.03-16.65v-42.85c0-6.91,3.03-13.48,8.28-17.97
	c0,0,0.01-0.01,0.01-0.01l16.8-17.91c0.03-0.03,0.04-0.06,0.04-0.1c-0.09-4.34,0-15.71,2.56-29.59
	c2.98-16.21,10.05-39.27,26.74-57.12c17.57-18.79,42.42-28.44,73.88-28.69c0.41,0,0.81,0,1.22,0c30.57,0,54.77,9.21,71.94,27.39
	c16.83,17.81,23.85,41.23,26.78,57.73c3.2,18.05,2.34,32.03,2.34,32.17l-0.1,1.55c0,0.05,0.02,0.09,0.05,0.12l22.51,18.08
	c3.53,2.83,5.55,7.05,5.55,11.58V443.55z"/>
<path class="st0" d="M680.24,662.95c-5.81-26.12-21.1-83.63-48.37-153.14c-4.47-11.4-14.55-19.67-26.6-21.83
	c-11.26-2.02-43.77-5.78-52.98-6.82c-1.58-0.18-3.19,0.02-4.68,0.58c-25.78,9.81-50.72,10.12-79.94-0.5
	c-1.55-0.57-3.21-0.77-4.85-0.6c-8.86,0.93-38.68,4.2-55.26,7.59c-10.55,2.15-19.54,8.99-24.43,18.59
	c-17.79,34.89-59.32,123.53-53.73,180.29c1.29,13.1,9.6,24.53,21.81,29.46c18.69,7.56,49.83,6.55,84.94-50.33
	c6.41-10.39,17.78-16.67,29.99-16.67h79.17c11.62,0,22.47,5.75,29.07,15.32c21.44,31.12,63.16,76.48,97.95,42.8
	c0.41-0.4,0.83-0.79,1.26-1.16C676.05,704.41,686.93,693.03,680.24,662.95z M419.11,545.01h23.74v20l-11.87,8.91l-11.87-8.91V545.01
	z M406.74,587.97h-15.79v-18.74h15.79l7.03,9.37L406.74,587.97z M442.85,613.66h-23.74v-20l11.87-8.91l11.87,8.91V613.66z
	 M465.36,590.79h-20l-14.38-11.87l14.38-11.87h20V590.79z M486.57,635.9c-8.29,0-15.02-6.72-15.02-15.02
	c0-8.29,6.72-15.01,15.02-15.01c8.29,0,15.01,6.72,15.01,15.01C501.58,629.18,494.86,635.9,486.57,635.9z M526.74,635.9
	c-8.29,0-15.01-6.72-15.01-15.02c0-8.29,6.72-15.01,15.01-15.01c8.29,0,15.01,6.72,15.01,15.01
	C541.75,629.18,535.03,635.9,526.74,635.9z M543.81,507.21l-4.26,11.37c-0.73,1.94-2.58,3.22-4.65,3.22h-56.36
	c-2.13,0-4.03-1.36-4.71-3.38l-3.81-11.38c-1.08-3.21,1.31-6.53,4.7-6.53h64.44C542.62,500.51,545.02,503.97,543.81,507.21z
	 M567.95,586.47c-4.14,4.14-10.86,4.14-15.01,0c-4.14-4.14-4.14-10.87,0-15.01c4.15-4.14,10.87-4.14,15.01,0
	C572.09,575.61,572.09,582.33,567.95,586.47z M592.5,611.02c-4.14,4.14-10.87,4.14-15.01,0c-4.14-4.15-4.14-10.87,0-15.01
	c4.14-4.14,10.87-4.14,15.01,0C596.64,600.16,596.64,606.87,592.5,611.02z M592.5,561.93c-4.14,4.14-10.87,4.14-15.01,0
	c-4.14-4.14-4.14-10.87,0-15.01c4.14-4.14,10.87-4.14,15.01,0C596.64,551.06,596.64,557.78,592.5,561.93z M617.05,586.47
	c-4.14,4.14-10.86,4.14-15.01,0c-4.14-4.14-4.14-10.87,0-15.01c4.15-4.14,10.87-4.14,15.01,0
	C621.19,575.61,621.19,582.33,617.05,586.47z"/>
</svg>
