<?xml version="1.0" encoding="utf-8"?>
<!-- Generator: Adobe Illustrator 24.1.1, SVG Export Plug-In . SVG Version: 6.00 Build 0)  -->
<svg version="1.1" id="Layer_1" xmlns="http://www.w3.org/2000/svg" xmlns:xlink="http://www.w3.org/1999/xlink" x="0px" y="0px"
	 viewBox="0 0 1000 1000" style="enable-background:new 0 0 1000 1000;" xml:space="preserve">
<style type="text/css">
	.st0{fill:#333333;}
	.st1{fill:#FFFFFF;}
	.st2{font-family:'SourceHanSansCN-Light-GBpc-EUC-H';}
	.st3{font-size:85px;}
</style>
<g>
	<g id="XMLID_420_">
		<g id="XMLID_421_">
			<path class="st0" d="M461.63,717h18.56h18.56c21.26,0,38.49-17.23,38.49-38.49H423.14C423.14,699.77,440.37,717,461.63,717z"/>
		</g>
		<g id="XMLID_422_">
			<path class="st0" d="M498.76,640.02h-18.56h-18.56c-21.26,0-38.49,17.23-38.49,38.49h114.11
				C537.25,657.25,520.01,640.02,498.76,640.02z"/>
		</g>
	</g>
	<g>
		<g id="XMLID_430_">
			<g id="XMLID_431_">
				<path class="st0" d="M593.25,668c-19.33,6-38.67,12-58,18c-2-3-4-6-6-9c21.33-7,42.67-14,64-21
					c7.74-2.62,19.49-7.63,31.48-17.31c11.79-9.52,19.11-19.75,23.3-26.69l1.79-4.29c9.58-23.04,15.67-38.31,16.91-41.82l0.18-0.5
					c0.01-0.03,0.02-0.07,0.02-0.09l0.28,0.09h12.23v1.44c0,1.34,0,2.72-17.89,45.75l-1.8,4.29c-4.41,7.87-12.99,20.81-27.99,32.35
					C616.74,660.79,601.99,665.76,593.25,668z"/>
			</g>
		</g>
		<g id="XMLID_434_">
			<path class="st0" d="M439.16,136c-117.79,0-213.62,96.36-213.62,214.81v36.15h31.09v-36.15c0-101.25,81.88-183.62,182.53-183.62
				h18.65V136H439.16z"/>
		</g>
		<g id="XMLID_436_">
			<path class="st0" d="M476.47,136h-18.66v31.19h18.66c100.64,0,182.53,82.37,182.53,183.62v36.15h31.07v-36.15
				C690.07,232.36,594.25,136,476.47,136z"/>
		</g>
		<g>
			<g id="XMLID_429_">
				<path id="XMLID_367_" class="st0" d="M689.84,385.77c-16.05-20.06-42.62-21.82-42.62-21.82c-9.48-2.37-18.42-2.2-26.36-0.01
					v234.45c7.93,2.2,16.88,2.37,26.36-0.01c0,0,26.57-1.75,42.62-21.83C705.91,556.48,705.91,405.85,689.84,385.77z"/>
			</g>
			<g id="XMLID_428_">
				<path id="XMLID_361_" class="st0" d="M588.73,409.89v142.53c0,23.53,13.1,40.69,32.13,45.96V363.94
					C601.83,369.21,588.73,386.37,588.73,409.89z"/>
			</g>
		</g>
		<g>
			<g id="XMLID_427_">
				<path id="XMLID_360_" class="st0" d="M268.39,363.95c0,0-26.58,1.76-42.64,21.82c-16.03,20.08-16.03,170.7,0,190.77
					c16.07,20.08,42.64,21.83,42.64,21.83c9.48,2.38,18.42,2.21,26.35,0.01V363.94C286.81,361.75,277.87,361.58,268.39,363.95z"/>
			</g>
			<g id="XMLID_426_">
				<path id="XMLID_358_" class="st0" d="M294.74,363.94v234.45c19.02-5.27,32.15-22.43,32.15-45.96V409.89
					C326.9,386.37,313.76,369.21,294.74,363.94z"/>
			</g>
		</g>
		<path class="st1" d="M616.25,573L616.25,573c-6.08,0-11-4.92-11-11V398c0-6.08,4.92-11,11-11l0,0c6.08,0,11,4.92,11,11v164
			C627.25,568.08,622.32,573,616.25,573z"/>
		<path class="st1" d="M299.25,573L299.25,573c-6.08,0-11-4.92-11-11V398c0-6.08,4.92-11,11-11h0c6.08,0,11,4.92,11,11v164
			C310.25,568.08,305.32,573,299.25,573z"/>
	</g>
</g>
<text transform="matrix(1 0 0 1 297.7495 868.7334)" class="st2 st3">在线客服</text>
</svg>
