<?xml version="1.0" encoding="utf-8"?>
<!-- Generator: Adobe Illustrator 24.1.1, SVG Export Plug-In . SVG Version: 6.00 Build 0)  -->
<svg version="1.1" id="Layer_1" xmlns="http://www.w3.org/2000/svg" xmlns:xlink="http://www.w3.org/1999/xlink" x="0px" y="0px"
	 viewBox="0 0 1000 1000" style="enable-background:new 0 0 1000 1000;" xml:space="preserve">
<style type="text/css">
	.st0{fill:#333333;}
	.st1{font-family:'ArialMT';}
	.st2{font-size:85px;}
</style>
<path id="XMLID_2144_" class="st0" d="M220.5,415.27c0,156.36,126.75,283.13,283.13,283.13c18.15,0,35.87-1.76,53.06-5.04
	c24.9,15.05,54.09,23.74,85.34,23.74c91.25-0.03,165.23-74.01,165.23-165.28c0-32-9.13-61.84-24.85-87.16
	c2.81-16.04,4.36-32.54,4.36-49.39c0-156.39-126.78-283.14-283.14-283.14c-17.8,0-35.22,1.72-52.14,4.86
	c-25.01-15.24-54.38-24-85.78-24c-91.27,0-165.25,73.98-165.25,165.25c0,31.82,9.02,61.51,24.59,86.72
	C222.11,381.3,220.5,398.09,220.5,415.27z M506.68,214.1c91.32,5.36,144.79,45.52,149.99,83.03c2.55,24.52-13.75,43.57-42.04,43.57
	c-41.3,0-45.52-55.06-116.64-55.06c-32.08,0-59.16,13.34-59.16,42.27c0,60.47,227.9,25.35,227.9,158.47
	c0,76.74-61.43,127.01-153.11,127.01c-80.64,0-161.68-36.55-161.27-99.48c0.13-19,14.3-36.42,33.14-36.42
	c47.49,0,47.05,70.55,122.67,70.55c53.03,0,71.15-28.94,71.15-49.11c0-72.84-229.25-28.17-229.25-165.17
	C350.06,259.61,410.97,208.48,506.68,214.1z"/>
<text transform="matrix(1 0 0 1 385.7397 853.5)" class="st1 st2">Skype</text>
</svg>
