<?xml version="1.0" encoding="utf-8"?>
<!-- Generator: Adobe Illustrator 24.1.1, SVG Export Plug-In . SVG Version: 6.00 Build 0)  -->
<svg version="1.1" id="Layer_1" xmlns="http://www.w3.org/2000/svg" xmlns:xlink="http://www.w3.org/1999/xlink" x="0px" y="0px"
	 viewBox="0 0 1000 1000" style="enable-background:new 0 0 1000 1000;" xml:space="preserve">
<style type="text/css">
	.st0{fill:#333333;}
	.st1{fill:#FEFEFE;}
	.st2{fill:#080808;}
	.st3{fill:#626262;}
	.st4{fill:#C5C5C5;}
	.st5{fill:#4F4F4F;}
	.st6{fill:#414141;}
	.st7{fill:#F8F8F8;}
	.st8{fill:#6C6C6C;}
	.st9{fill:#AFAFAF;}
	.st10{font-family:'ArialMT';}
	.st11{font-size:85px;}
</style>
<g>
	<path class="st0" d="M755.96,539.87c-5.16,12.85-10.24,24.56-15.97,35.97c-6.77,13.46-14.89,25.98-25.62,36.68
		c-4.51,4.5-4.42,5.29,1.43,8.09c11.72,5.62,23.06,11.88,33.7,19.34c7.39,5.18,13.55,11.54,15.58,20.63
		c2.52,11.26-1.89,20.37-10.54,27.27c-12.78,10.2-27.96,15.11-43.71,18.42c-25.67,5.39-51.57,5.69-77.57,3.17
		c-27.29-2.64-53.93-8.09-79.53-18.16c-4.5-1.77-9.21-2.79-14.12-2.82c-3.66-0.02-7.55,0.4-10.94-0.66
		c-8.81-2.74-15.33,1.24-22.38,5.59c-20.76,12.8-43.52,19.47-67.84,21.42c-28.9,2.31-57.63,0.73-86.12-3.99
		c-17.41-2.88-34.4-7.67-49.03-18.44c-7.77-5.72-11.96-13.15-12.33-22.79c-0.26-6.89,0.69-13.66,2.59-20.22
		c2.83-9.76,10.34-15.26,19.07-19.18c8.39-3.77,17.18-6.23,26.5-6.3c1.07-0.01,2.58,0.46,3.16-0.81c0.66-1.44-0.59-2.5-1.46-3.42
		c-1.25-1.33-2.61-2.59-4.08-3.66c-26.82-19.61-43.94-45.85-53.27-77.5c-0.66-2.22-0.16-5.82-3.16-6.21
		c-3.34-0.44-3.06,3.42-4.08,5.41c-6.53,12.84-15.25,23.73-27.14,32.02c-3.61,2.52-7.65,4.09-11.77,5.26
		c-6.56,1.87-10.28-0.75-12.87-8.28c-4.45-12.93-5.98-26.24-5.19-39.85c2.03-34.8,13.81-66.17,33.44-94.77
		c12.63-18.4,27.54-34.67,45.33-48.2c4.22-3.21,5.77-6.95,4.75-12.11c-2.07-10.51-0.53-20.62,4.63-29.96
		c5.35-9.67,6.55-20.54,9.68-30.85c0.1-0.32,0.03-0.72,0.2-0.97c7.63-11.33,6.66-24.6,8.71-37.27
		c5.17-31.89,19.21-59.95,38.31-85.71c14.19-19.14,30.49-36.07,50.34-49.46c22.49-15.17,47.39-23.64,74.05-27.84
		c39.58-6.23,78.77-4.65,117.25,6.39c38.86,11.15,72.37,31.03,96.95,63.99c16.56,22.2,26.68,47.39,33.37,74.09
		c2.87,11.46,5.73,22.9,6.43,34.79c0.47,8.13,3.69,15.43,7.79,22.41c7.05,12.02,12.54,24.59,12.87,38.87
		c0.18,7.75-0.77,15.37-3.67,22.51c-2.07,5.1-1.2,9.09,1.88,13.38c15.57,21.72,28.28,45.03,38.63,69.66
		c10.31,24.54,16.98,49.81,14.87,76.66c-1.07,13.6-2.88,27.2-11.09,38.85c-1.15,1.63-2.44,3.18-3.83,4.59
		c-7.02,7.11-13.84,7.18-20.7-0.09c-7.25-7.68-12.68-16.66-17.84-25.82C759.9,546.99,758.23,543.95,755.96,539.87z"/>
	<path class="st1" d="M465.29,512.81c0-9.49,0.15-18.98-0.08-28.46c-0.08-3.19,0.89-3.67,3.67-2.96c30.24,7.71,60.97,8.5,91.79,5.51
		c30.16-2.93,59.05-11.2,86.91-23.1c17.31-7.39,34-15.96,49.74-26.3c3.9-2.56,6.16-2.22,8.79,1.86
		c13.63,21.11,23.54,43.5,25.72,68.89c2.72,31.77-5.94,60.33-24.56,85.85c-30.28,41.5-70.7,68.11-120.3,81.31
		c-18.56,4.94-37.18,5.04-55.98,3.31c-24.72-2.28-49.3-5.48-73.14-12.75c-47.21-14.38-86.56-39.76-113.41-82.15
		c-12.39-19.56-17.79-41.39-19.23-64.31c-1.77-28.2,3.37-54.97,16.54-80.07c3.47-6.62,5.29-7.16,11.64-3.18
		c6.07,3.8,12.04,7.79,18.6,10.65c4.5,1.96,5.52,5.04,4.96,9.54c-2.15,17.19-4.06,34.41-3.71,51.77c0.15,7.49,0.27,15.03,1.27,22.43
		c2.39,17.69,14.43,26.67,30.29,31.32c15.35,4.5,31.02,3.69,46.53,0.81c9.33-1.73,15.64-11.93,15.52-23.49
		c-0.09-8.82-0.02-17.65-0.02-26.47C466.3,512.81,465.8,512.81,465.29,512.81z"/>
	<path class="st1" d="M346.2,395.14c-5.74-9.94-11.5-19.86-17.22-29.81c-7.33-12.77-7.03-26.63-6.29-40.48
		c2.13-0.65,2.58,0.68,3.18,1.54c26.52,37.81,63.99,59.64,106.97,73.59c41.99,13.63,85.03,19.06,129.02,16.75
		c40.7-2.14,79.62-11.43,115.75-30.81c18.11-9.72,34.67-21.74,50.05-35.38c1.84-1.63,3.82-3.1,6.96-5.64
		c-1.1,6.24-2.7,10.8-4.57,15.25c-9.91,23.65-26.88,41.34-47.38,56.09c-3.5,2.52-7.67,4.21-10.34,7.83
		c-0.9,0.94-2.26,0.88-3.26,1.52c-0.24,0.14-0.44,0.25-0.54,0.32c0.36,0.56-0.33-0.08,0.37-0.1c1.06-0.78,2.54-0.71,3.36-1.85
		c3.96,0.41,6.87-2.11,9.98-3.82c25.7-14.16,43.49-35.66,56.58-61.45c4.2-8.28,7.89-16.8,11.4-26.09c4.81,4.41,4.89,9.98,5.14,15.17
		c1.5,31.91-13.04,55.27-39.42,71.81c-36.95,23.18-76.04,41.62-118.51,52.41c-31.45,7.99-63.28,10.12-95.59,7.19
		c-50.3-4.57-97.19-19.87-141.2-44.26c-18.39-10.19-34.38-23.35-46.49-40.82c-10.69-15.42-10.8-32.95,0.18-46.89
		c3.94,20.89,14.8,37.05,31.04,49.76C347.16,396.96,347.16,396.96,346.2,395.14z"/>
	<path class="st1" d="M434.31,362.98c2.12,3.53,4.24,7.06,6.8,11.32c-13.85-3.7-27.18-6.54-38.8-14.06
		c-5.53-3.58-5.75-6.34-0.59-10.37c10.44-8.16,22.17-14.23,34.61-18.47c45.3-15.44,91.85-20.12,139.31-14.22
		c24.84,3.09,49,9.16,71.76,19.95c7.36,3.49,14.48,7.47,20.91,12.54c2.63,2.07,4.38,4.55,1.21,7.43
		c-7.16,6.51-28.53,18.25-42.48,16.47c4.48-5.25,10.49-8.9,13.66-15.57c-2.27-0.04-3.54,1.39-4.91,2.29
		c-21.33,13.91-44,24.84-68.95,30.44c-34.32,7.69-67.43,3.64-99.3-11.03c-11.66-5.36-22.6-11.98-33.19-19.21
		C433.01,361.3,433.78,362.14,434.31,362.98z"/>
	<path class="st1" d="M311.12,651.79c-1.79,0.32-3.59,0.63-5.38,0.96c-4.21,0.77-5.91-1.18-4.36-5.31c1.52-4.02,4.4-7.12,8.1-9.18
		c6.37-3.54,12.61-7.28,19.62-9.67c9.07-3.1,17.67-2.34,25.16,3.25c31.85,23.77,68.25,36.75,106.46,45.44
		c10.2,2.32,20.61,3.75,30.93,5.52c1.6,0.28,3.62-0.18,4.13,1.91c0.49,2-1.47,2.78-2.64,3.86c-9.07,8.36-20.47,11.44-32.08,13.85
		c-24.02,4.99-48.25,8.18-72.85,7.13c-22.71-0.96-45.03-4.28-66.32-12.69c-8.45-3.34-16-8.15-21.56-15.56
		c-3.65-4.86-3.54-9.13,0-14.18c3.87-5.52,9.49-9.29,14.07-14.09C313.91,651.19,313.91,651.19,311.12,651.79z"/>
	<path class="st1" d="M572.59,685.19c40.12-6.51,76.63-20.77,109.1-44.74c6.29-4.64,12.26-9.7,18.4-14.55
		c3.18-2.51,6.7-3.8,10.67-2.15c9.81,4.09,19.43,8.55,28.97,15.88c-3.82,0.47-6.65,0.82-9.47,1.17c-3.69,0.46-7.12,1.64-10.09,3.92
		c-0.77,0.59-1.65,1.31-1.3,2.46c0.38,1.23,1.54,1.08,2.5,1.09c5.66,0.02,11.32,0,16.98,0c1.17,0,2.33-0.03,3.5,0.01
		c15.97,0.51,22.43,11.75,15.16,25.95c-5.22,10.21-14.17,15.8-24.25,19.6c-27.33,10.31-55.65,13.89-84.8,11.81
		c-23.22-1.66-45.62-7.13-67.84-13.6C576.62,691.02,573.64,689.51,572.59,685.19z"/>
	<path class="st1" d="M440.3,517.96c-0.27-11.32-0.62-22.63-0.77-33.95c-0.09-7.18,3.59-9.4,10.37-6.63
		c5.1,2.09,7.16,6.22,7.66,11.31c1.63,16.42,2.22,32.89,2.09,49.38c-0.09,11.05-4.71,15.68-15.84,16.01
		c-11.47,0.34-22.91,0.94-34.36-0.98c-22.32-3.75-30.18-12.63-30.7-35.56c-0.45-19.98,4.14-39.31,7.67-58.78
		c0.55-3.06,2.52-3.16,4.83-2.18c3.98,1.68,7.9,3.48,11.86,5.21c7.01,3.06,14.04,6.08,21.46,7.99c4.1,1.05,5.94,2.98,6.07,7.56
		c0.4,13.86,2.71,27.44,7.74,40.46c0.35,0.66,0.55,1.61,1.5,1.49C440.55,519.21,440.83,518.62,440.3,517.96z"/>
	<path class="st1" d="M551.99,247.73c-0.31-15.09,2.38-28.84,11.02-40.74c14.82-20.42,36.73-18.95,49.09,3.12
		c10.03,17.91,11.04,36.97,6.87,56.6c-1.34,6.33-3.03,12.57-6.26,18.31c-5.66,10.07-14.24,15.62-25.69,16.33
		c-11.26,0.7-18.59-5.59-24.42-14.43C554.62,274.79,551.78,261.37,551.99,247.73z"/>
	<path class="st1" d="M449.53,241.32c0.64-12.58,4.02-27.84,15.38-40.15c11.31-12.24,27.07-12.12,38.59-0.03
		c8.37,8.78,12.47,19.51,14.39,31.22c2.66,16.28,1.67,32.18-5.54,47.3c-2.46,5.15-5.8,9.69-10.01,13.58
		c-13.24,12.25-30.67,10.17-40.72-4.9C453.11,275.6,448.88,260.53,449.53,241.32z"/>
	<path class="st2" d="M405.19,712.63c-6.86,0-13.73,0-20.59,0c0-0.12-0.01-0.25-0.01-0.37c6.86,0,13.73,0,20.59,0
		C405.18,712.38,405.19,712.51,405.19,712.63z"/>
	<path class="st3" d="M346.2,395.14c1.29,0.7,1.5,2.08,2.44,3.63c-1.87,0.11-2.71-0.59-3.29-1.81
		C346.26,396.64,345.99,395.77,346.2,395.14z"/>
	<path class="st4" d="M440.3,517.96c0.89,0.88,1.65,2.16-0.04,2.5c-1.44,0.29-2.15-1.11-1.87-2.66
		C439,518.15,439.6,518.62,440.3,517.96z"/>
	<path class="st5" d="M434.31,362.98c-1.09-0.97-2.37-1.93-1.82-3.57c0.1-0.29,1.49,0.17,1.84,1.07
		C434.32,361.31,434.31,362.14,434.31,362.98z"/>
	<path class="st6" d="M311.12,651.79c1.08-0.3,2.14-0.69,3.24-0.86c0.52-0.08,1.46-0.31,1.55,0.59c0.1,0.95-0.67,1.35-1.52,1.53
		C313.7,651.58,312.13,652.42,311.12,651.79z"/>
	<ellipse class="st7" cx="530.37" cy="490.51" rx="28.08" ry="0.29"/>
	<path class="st8" d="M672.25,423.93c-0.07,2.68-2.74,1.9-4,3.01c-0.61-0.64-0.59-1.25,0.1-1.83c1.32-0.37,2.45-1.45,3.98-1.06
		C672.33,424.05,672.25,423.93,672.25,423.93z"/>
	<path class="st9" d="M668.35,425.11c-0.03,0.61-0.06,1.22-0.1,1.83c-0.61,0.84-1.82,1.62-2.2,0.57
		C665.54,426.1,667.23,425.63,668.35,425.11z"/>
	<path class="st0" d="M594.72,247.67c0,1.64,0.02,1.81,0,1.97c-0.37,2.47,0.55,6-2.92,6.49c-3.65,0.52-4.29-2.96-5.1-5.63
		c-0.43-1.42-0.48-2.95-0.86-4.38c-0.58-2.17-1.53-4.05-4.16-4.32c-2.84-0.29-4.97,0.91-6.01,3.43c-1.14,2.74-1.81,5.67-2.72,8.51
		c-0.48,1.51-1.3,2.7-3.13,2.66c-2-0.04-2.89-1.28-3.39-3.04c-1.85-6.57,2.11-17.01,7.9-20.75c6.29-4.07,14.22-1.88,17.68,5.03
		C593.81,241.23,594.76,245.09,594.72,247.67z"/>
	<path class="st0" d="M489.26,246.86c0.13-5.88,0.94-11.1,4.2-15.59c5.1-7.02,12.03-7.01,16.42,0.33
		c6.15,10.28,5.79,20.93,0.06,31.22c-3.91,7.02-12.13,6.98-16.62,0.23C489.97,258.01,489.48,252.2,489.26,246.86z"/>
</g>
<text transform="matrix(1 0 0 1 458.6991 850)" class="st10 st11">QQ</text>
</svg>
