<?xml version="1.0" encoding="utf-8"?>
<!-- Generator: Adobe Illustrator 24.1.1, SVG Export Plug-In . SVG Version: 6.00 Build 0)  -->
<svg version="1.1" id="Layer_1" xmlns="http://www.w3.org/2000/svg" xmlns:xlink="http://www.w3.org/1999/xlink" x="0px" y="0px"
	 viewBox="0 0 1000 1000" style="enable-background:new 0 0 1000 1000;" xml:space="preserve">
<style type="text/css">
	.st0{fill:#767676;}
</style>
<g>
	<g>
		<path class="st0" d="M336.95,558.52L230.96,509.6c-1.86-0.86-3.98,0.5-3.98,2.55v141.7c0,2.46,1.37,4.72,3.55,5.86l106.57,55.74
			c1.81,0.95,3.99-0.37,3.99-2.42V564.97C341.08,562.2,339.47,559.68,336.95,558.52z M256.53,657.85
			c-10.66,0-19.31-8.65-19.31-19.31c0-10.66,8.65-19.31,19.31-19.31c10.66,0,19.31,8.65,19.31,19.31
			C275.84,649.21,267.19,657.85,256.53,657.85z M256.53,589.39c-10.66,0-19.31-8.65-19.31-19.31c0-10.66,8.65-19.31,19.31-19.31
			c10.66,0,19.31,8.65,19.31,19.31C275.84,580.74,267.19,589.39,256.53,589.39z M310.73,680.08c-10.66,0-19.31-8.65-19.31-19.31
			c0-10.66,8.65-19.31,19.31-19.31c10.66,0,19.31,8.65,19.31,19.31C330.04,671.44,321.4,680.08,310.73,680.08z M310.73,611.95
			c-10.66,0-19.31-8.65-19.31-19.31s8.65-19.31,19.31-19.31c10.66,0,19.31,8.65,19.31,19.31S321.4,611.95,310.73,611.95z"/>
		<path class="st0" d="M485.9,513.5c0-2.68-2.78-4.47-5.22-3.35l-105.53,48.33c-2.58,1.18-4.23,3.76-4.23,6.59v147.3
			c0,1.96,2.07,3.22,3.81,2.33l107.53-55c2.23-1.14,3.63-3.44,3.63-5.94L485.9,513.5z M402.04,689.33
			c-10.34,2.61-20.84-3.65-23.45-13.99c-2.61-10.34,3.65-20.84,13.99-23.45c10.34-2.61,20.84,3.65,23.45,13.99
			C418.65,676.21,412.38,686.71,402.04,689.33z M430.46,641.92c-10.34,2.61-20.84-3.65-23.45-13.99
			c-2.61-10.34,3.65-20.84,13.99-23.45c10.34-2.61,20.84,3.65,23.45,13.99S440.8,639.31,430.46,641.92z M458.79,594.17
			c-10.34,2.61-20.84-3.65-23.45-13.99c-2.61-10.34,3.65-20.84,13.99-23.45c10.34-2.61,20.84,3.65,23.45,13.99
			C475.39,581.06,469.13,591.56,458.79,594.17z"/>
		<path class="st0" d="M459.74,486.42L363.62,437c-4.71-2.42-10.29-2.47-15.04-0.13l-100.42,49.38c-2.29,1.13-2.26,4.4,0.05,5.49
			l106.5,50.12c1.37,0.65,2.96,0.63,4.32-0.05l100.68-50.2C461.83,490.54,461.85,487.5,459.74,486.42z M362.32,507.31
			c-13.52,2.59-27.25-3.62-30.67-13.88c-3.42-10.26,4.77-20.67,18.29-23.27s27.25,3.62,30.67,13.88
			C384.03,494.3,375.84,504.71,362.32,507.31z"/>
	</g>
	<g>
		<path class="st0" d="M659.87,313.92l-4.84,21.18l-113.38-48.14c-8.07-3.43-17.49,0.37-20.92,8.44l-67.92,159.95l-6.39-2.9
			l40.75-178.05c1.96-8.55,10.56-13.95,19.11-11.99l141.6,32.4C656.42,296.76,661.82,305.36,659.87,313.92z"/>
		<polygon class="st0" points="558.61,353.09 552.37,350.53 559.6,341.73 		"/>
		<path class="st0" d="M683.75,375.11l-129.58-58.8c-8.74-3.97-19.12-0.06-23.08,8.67l-62.42,137.56l21.46,9.74
			c8.67,3.93,14.32,12.48,14.53,22l2.7,120.11l56.23,25.52c8.73,3.97,19.11,0.07,23.08-8.67l105.76-233.05
			C696.38,389.45,692.48,379.06,683.75,375.11z M559.64,332.24l6.58,2.7l-1.15,33.43l-7.52-3.07l0.52-6.13l-9.6-3.93l-3.89,4.75
			l-7.48-3.06L559.64,332.24z M611.24,486.4c-1.46,5.45-4.27,10.42-7.83,14.76c-7.02,8.57-16.69,14.92-26.65,19.58
			c-10.09,4.71-20.96,7.7-31.98,9.19c-5.09,0.69-10.23,1.07-15.37,1.09c-1.25,0.01-2.51-0.01-3.76-0.06
			c-0.36-0.02-0.9,0.09-1.11-0.22c-0.16-0.24-0.33-0.5-0.5-0.74c-1.03-1.56-2.02-3.15-2.96-4.77c-5.27-9.04-9.37-18.81-12.08-28.91
			c-0.02-0.06-0.03-0.13-0.06-0.2c-0.01-0.06-0.05-0.22-0.1-0.4c-0.09-0.34-0.18-0.69-0.27-1.03c-0.02-0.08-0.04-0.16-0.07-0.24
			c0.01-0.02,0-0.02-0.01-0.03c-1.6-6.48-2.61-13.11-2.9-19.78c-0.48-11.04,0.74-22.74,5.97-32.64c2.56-4.84,6.18-9.37,10.76-12.44
			c4.14-2.79,9.13-4.1,14.08-4.32c5.08-0.24,10.04,0.69,14.55,3.08c4.12,2.18,7.83,5.12,10.72,8.79c3.55,4.53,6.23,10.55,6.32,16.41
			c0.07,0.03,0.75-0.41,0.82-0.45c0.76-0.38,1.55-0.72,2.34-1.02c1.64-0.62,3.34-1.08,5.06-1.41c3.92-0.72,7.97-0.67,11.87,0.15
			c5.11,1.08,10.38,3.44,14.3,6.93c3.93,3.49,6.86,8.22,8.53,13.18C612.66,476.03,612.63,481.2,611.24,486.4z"/>
	</g>
</g>
</svg>
