<?xml version="1.0" encoding="utf-8"?>
<!-- Generator: Adobe Illustrator 24.1.1, SVG Export Plug-In . SVG Version: 6.00 Build 0)  -->
<svg version="1.1" id="Layer_1" xmlns="http://www.w3.org/2000/svg" xmlns:xlink="http://www.w3.org/1999/xlink" x="0px" y="0px"
	 viewBox="0 0 1000 1000" style="enable-background:new 0 0 1000 1000;" xml:space="preserve">
<style type="text/css">
	.st0{fill:none;stroke:#000F0B;stroke-width:10;stroke-miterlimit:10;}
	.st1{fill:none;}
	.st2{fill:#333333;}
	.st3{font-family:'AdobeSongStd-Light-GBpc-EUC-H';}
	.st4{font-size:134.7476px;}
</style>
<path class="st0" d="M515.44,705.61"/>
<g>
	<path class="st1" d="M325.4,589.11c0,0-93.2,55.51-73.23-216.91"/>
	<polyline class="st0" points="249.36,350.92 325.4,350.92 325.4,705.61 468.53,705.61 	"/>
	<path class="st0" d="M788.08,351.63l-76.56-0.71v242.84C711.52,593.76,808.06,645.7,788.08,351.63
		c-16.64-327.35-539.25-278.47-538.73-0.71c-42.75,277.76,76.04,238.19,76.04,238.19"/>
	<polyline class="st0" points="397.79,386.68 478.52,386.68 478.52,469.28 394.36,469.28 394.36,546.58 478.52,546.58 	"/>
	<polyline class="st0" points="558.4,386.68 558.4,466.63 631.64,466.63 631.64,426.66 631.64,546.58 	"/>
	<path class="st0" d="M500.13,739.1c31.52-0.1,57.02-14.75,56.96-32.72v0c-0.06-17.97-25.66-32.45-57.17-32.35l-36.43,0.12
		l0.21,65.06L500.13,739.1z"/>
</g>
</svg>
