<?xml version="1.0" encoding="utf-8"?>
<!-- Generator: Adobe Illustrator 24.1.1, SVG Export Plug-In . SVG Version: 6.00 Build 0)  -->
<svg version="1.1" id="Layer_1" xmlns="http://www.w3.org/2000/svg" xmlns:xlink="http://www.w3.org/1999/xlink" x="0px" y="0px"
	 viewBox="0 0 1000 1000" style="enable-background:new 0 0 1000 1000;" xml:space="preserve">
<style type="text/css">
	.st0{fill:none;stroke:#000F0B;stroke-width:8;stroke-miterlimit:10;}
	.st1{fill:none;stroke:#000000;stroke-width:7;stroke-miterlimit:10;}
</style>
<g>
	<line class="st0" x1="669.31" y1="298.81" x2="762.77" y2="242.4"/>
	<line class="st0" x1="711.63" y1="364.41" x2="797.85" y2="367.62"/>
	<line class="st0" x1="637.58" y1="237.31" x2="646.6" y2="151.43"/>
	<g>
		<path class="st0" d="M285.82,427.63c29.73,47.32,59.47,94.63,89.2,141.95c88.73-19.44,177.46-38.87,266.19-58.31
			c-63.98-97.68-191.93-293.03-191.93-293.03S340.31,357.83,285.82,427.63z"/>
		<path class="st0" d="M285.82,427.63l-120.18,85.91c-13.03,9.31-21.48,23.72-23.27,39.64c-3.49,31,0.67,79.83,55.88,97.16
			c13.18,4.14,27.44,3.24,40.02-2.47c95.16-43.18,136.75-78.3,136.75-78.3l20.53,31.66l-35.16,23.08"/>
		<path class="st0" d="M449.28,218.24c2.61-4.42,6.91-10.33,13.72-15.49c2.66-2.01,18.15-13.76,34.75-9.92
			c8.04,1.86,13.32,6.67,15.6,8.81c51.7,48.43,153.06,209.62,169.21,258.36c0.73,2.22,2.36,7.41,1.68,13.99
			c-1.59,15.48-14.58,25.4-17.28,27.47c-9.97,7.61-20.46,9.34-25.75,9.82"/>
		<polyline class="st0" points="584.62,290.76 626.26,287.76 653.59,329.63 633.79,366.68 		"/>
		<path class="st1" d="M411.32,753.7l-23.42,13.45c-11.07,6.36-25.2,2.54-31.56-8.53l-70.52-122.78c-2.61-4.54-1.04-10.34,3.5-12.95
			l48.23-27.7c2.54-1.46,5.78-0.58,7.24,1.96L418.81,726C424.39,735.72,421.04,748.12,411.32,753.7z"/>
	</g>
</g>
</svg>
