<svg xmlns="http://www.w3.org/2000/svg" width="50" height="50" viewBox="0 0 50 50"><path fill="#213a7c" d="M9.4 4.5h31L50 18.9 24.4 45.5 0 18.8z"/><linearGradient id="a" gradientUnits="userSpaceOnUse" x1="318.991" y1="-362.252" x2="318.991" y2="-402.926" gradientTransform="matrix(1 0 0 -1 -294 -358)"><stop offset="0" stop-color="#ffd68c"/><stop offset="1" stop-color="#ac8652"/></linearGradient><path fill="url(#a)" d="M9.8 4.9H40l9.3 14-24.9 26L.6 18.8z"/><linearGradient id="b" gradientUnits="userSpaceOnUse" x1="318.461" y1="-368.849" x2="318.461" y2="-386.035" gradientTransform="matrix(1 0 0 -1 -294 -358)"><stop offset=".212" stop-color="#355aba"/><stop offset=".788" stop-color="#101d3f"/></linearGradient><path fill="url(#b)" d="M31.6 16.6l-4.8-9.2H22l-4.7 9.2z"/><linearGradient id="c" gradientUnits="userSpaceOnUse" x1="305.982" y1="-368.849" x2="305.982" y2="-386.035" gradientTransform="matrix(1 0 0 -1 -294 -358)"><stop offset=".212" stop-color="#355aba"/><stop offset=".788" stop-color="#101d3f"/></linearGradient><path fill="url(#c)" d="M18 7.4h-7.3L6 16.6h7.1z"/><linearGradient id="d" gradientUnits="userSpaceOnUse" x1="330.941" y1="-368.849" x2="330.941" y2="-386.035" gradientTransform="matrix(1 0 0 -1 -294 -358)"><stop offset=".212" stop-color="#355aba"/><stop offset=".788" stop-color="#101d3f"/></linearGradient><path fill="url(#d)" d="M43.8 16.6l-6.5-9.2h-7.2l4.8 9.2z"/><linearGradient id="e" gradientUnits="userSpaceOnUse" x1="307.647" y1="-368.593" x2="307.646" y2="-386.822" gradientTransform="matrix(1 0 0 -1 -294 -358)"><stop offset=".212" stop-color="#355aba"/><stop offset=".788" stop-color="#101d3f"/></linearGradient><path fill="url(#e)" d="M5.9 19l15.5 17.1L13.1 19z"/><linearGradient id="f" gradientUnits="userSpaceOnUse" x1="318.85" y1="-368.591" x2="318.85" y2="-386.824" gradientTransform="matrix(1 0 0 -1 -294 -358)"><stop offset=".212" stop-color="#355aba"/><stop offset=".788" stop-color="#101d3f"/></linearGradient><path fill="url(#f)" d="M17.6 19l6.5 16.9 8-16.9z"/><linearGradient id="g" gradientUnits="userSpaceOnUse" x1="330.053" y1="-367.908" x2="330.053" y2="-386.135" gradientTransform="matrix(1 0 0 -1 -294 -358)"><stop offset=".212" stop-color="#355aba"/><stop offset=".788" stop-color="#101d3f"/></linearGradient><path fill="url(#g)" d="M35.3 18.4l-7.1 16.7 15.7-16.7z"/></svg>