<?xml version="1.0" encoding="utf-8"?>
<!-- Generator: Adobe Illustrator 24.1.1, SVG Export Plug-In . SVG Version: 6.00 Build 0)  -->
<svg version="1.1" id="Layer_1" xmlns="http://www.w3.org/2000/svg" xmlns:xlink="http://www.w3.org/1999/xlink" x="0px" y="0px"
	 viewBox="0 0 1000 1000" style="enable-background:new 0 0 1000 1000;" xml:space="preserve">
<style type="text/css">
	.st0{font-family:'SourceHanSansCN-Light-GBpc-EUC-H';}
	.st1{font-size:85px;}
	.st2{fill:#FFFFFF;}
	.st3{fill:#F5100A;}
	.st4{fill:none;stroke:#F5100A;stroke-width:9;stroke-miterlimit:10;}
	.st5{fill:none;stroke:#F5100A;stroke-width:13;stroke-miterlimit:10;}
</style>
<g>
	<g>
		<path d="M642.88,608.49L642.88,608.49c-0.11,0-0.21,0-0.31,0H642.88z"/>
		<path class="st2" d="M634.15,617.64c-0.09,0-0.17,0-0.26,0h-82.95c-0.69,0-1.37,0.01-2.04,0.05
			c-22.33,1.07-39.99,19.46-39.13,41.68c0.82,20.96,15.29,34.27,36.79,34.93c21.63,0.67,33.82-12.9,36.38-33.16l18.18-0.18
			c2.56,20.26,17.12,33.78,38.75,33.12c21.24-0.65,34.02-13.34,35.17-34.02C676.32,636.93,657.55,617.78,634.15,617.64z
			 M548.68,670.91c-9.21,0-16.68-7.47-16.68-16.68s7.47-16.68,16.68-16.68s16.68,7.47,16.68,16.68S557.89,670.91,548.68,670.91z
			 M639.28,629.38c5.51,0,9.98,4.47,9.98,9.98s-4.47,9.98-9.98,9.98s-9.98-4.47-9.98-9.98C629.3,633.85,633.77,629.38,639.28,629.38
			z M619.32,664.21c-5.51,0-9.98-4.47-9.98-9.98s4.47-9.98,9.98-9.98s9.98,4.47,9.98,9.98S624.83,664.21,619.32,664.21z
			 M639.28,677.78c-5.51,0-9.98-4.47-9.98-9.98s4.47-9.98,9.98-9.98s9.98,4.47,9.98,9.98S644.79,677.78,639.28,677.78z
			 M658.92,664.21c-5.51,0-9.98-4.47-9.98-9.98s4.47-9.98,9.98-9.98c5.52,0,9.98,4.47,9.98,9.98S664.43,664.21,658.92,664.21z"/>
		<path class="st3" d="M540.85,608.49h2.45c-0.82,0-1.64,0.02-2.45,0.06V608.49z"/>
		<g>
			<g>
				<path class="st3" d="M619.16,520.12h-338c-14.1,0-25.56-11.47-25.56-25.56v-253c0-14.1,11.47-25.56,25.56-25.56h338
					c14.1,0,25.56,11.47,25.56,25.56v252.99C644.72,508.65,633.26,520.12,619.16,520.12z M281.16,230.87
					c-5.89,0-10.69,4.8-10.69,10.69v252.99c0,5.89,4.8,10.69,10.69,10.69h338c5.89,0,10.69-4.79,10.69-10.69V241.56
					c0-5.89-4.8-10.69-10.69-10.69H281.16z"/>
			</g>
			<g>
				<path class="st3" d="M504.78,563.53h-111.9v-58.28h111.9V563.53z M407.75,548.65h82.15v-28.54h-82.15V548.65z"/>
			</g>
			<g>
				<path class="st3" d="M539.43,585.23H358.22v-7.44c0-16.07,13.07-29.14,29.14-29.14h122.92c16.07,0,29.14,13.07,29.14,29.14v7.44
					H539.43z M375.19,570.36h147.27c-2.51-4.09-7.03-6.83-12.17-6.83H387.37C382.22,563.53,377.7,566.26,375.19,570.36z"/>
			</g>
			<g>
				<rect x="442.72" y="476.15" class="st3" width="14.87" height="39.64"/>
			</g>
		</g>
		<g>
			<path class="st3" d="M419.71,431.07H312.2c-4.73,0-8.6-3.87-8.6-8.6v-3.18c0-4.73,3.87-8.6,8.6-8.6h107.51
				c4.73,0,8.6,3.87,8.6,8.6v3.18C428.31,427.2,424.44,431.07,419.71,431.07z"/>
			<path class="st3" d="M375.15,448.68h-18.39c-6.6,0-12-5.4-12-12v-5.61h42.39v5.61C387.15,443.28,381.75,448.68,375.15,448.68z"/>
		</g>
		<g>
			<path class="st3" d="M595.21,431.07H487.7c-4.73,0-8.6-3.87-8.6-8.6v-3.18c0-4.73,3.87-8.6,8.6-8.6h107.51
				c4.73,0,8.6,3.87,8.6,8.6v3.18C603.81,427.2,599.94,431.07,595.21,431.07z"/>
			<path class="st3" d="M550.64,448.68h-18.39c-6.6,0-12-5.4-12-12v-5.61h42.39v5.61C562.64,443.28,557.24,448.68,550.64,448.68z"/>
		</g>
		<g>
			<path class="st3" d="M482.58,391.67h-4.25c-6.36,0-11.52-5.16-11.52-11.52V268.46c0-6.36,5.16-11.52,11.52-11.52h4.25
				c6.36,0,11.52,5.16,11.52,11.52v111.69C494.1,386.52,488.94,391.67,482.58,391.67z"/>
			<path class="st3" d="M515.4,391.67h-4.25c-6.36,0-11.52-5.16-11.52-11.52v-41.22c0-6.36,5.16-11.52,11.52-11.52h4.25
				c6.36,0,11.52,5.16,11.52,11.52v41.22C526.92,386.52,521.76,391.67,515.4,391.67z"/>
			<path class="st3" d="M548.22,391.67h-4.25c-6.36,0-11.52-5.16-11.52-11.52V296.1c0-6.36,5.16-11.52,11.52-11.52h4.25
				c6.36,0,11.52,5.16,11.52,11.52v84.06C559.73,386.52,554.58,391.67,548.22,391.67z"/>
			<path class="st3" d="M581.03,391.67h-4.25c-6.36,0-11.52-5.16-11.52-11.52v-30.51c0-6.36,5.16-11.52,11.52-11.52h4.25
				c6.36,0,11.52,5.16,11.52,11.52v30.51C592.55,386.52,587.4,391.67,581.03,391.67z"/>
			<rect x="466.81" y="368.06" class="st3" width="144.06" height="23.62"/>
		</g>
		<g>
			<g>
				<path class="st3" d="M590.4,609.65l-0.23-6.88c-0.29-8.57,2.83-16.69,8.8-22.85c5.96-6.17,13.97-9.56,22.54-9.56h49.71
					c11.88,0,21.54-9.66,21.54-21.54v-39.64c0-11.77-9.58-21.35-21.35-21.35H263.04v-14.87h408.37c19.97,0,36.23,16.25,36.23,36.23
					v39.64c0,20.08-16.34,36.42-36.42,36.42h-49.71c-4.51,0-8.72,1.78-11.85,5.03c-3.13,3.24-4.78,7.51-4.62,12.01l0.23,6.88
					L590.4,609.65z"/>
			</g>
			<path class="st3" d="M642.88,608.5c-0.11,0-0.21,0-0.31,0H543.3c-0.82,0-1.64,0.02-2.45,0.06c-26.1,1.28-46.87,22.84-46.87,49.26
				c0,27.23,22.08,49.31,49.31,49.31c25.17,0,41.65-18.18,44.65-42.54l8.87,0.02c3,24.36,20.58,42.52,45.75,42.52
				c27.23,0,49.31-22.08,49.31-49.31C691.88,630.68,669.97,608.66,642.88,608.5z M675.04,660.05
				c-1.15,20.68-13.93,33.37-35.17,34.02c-21.63,0.67-36.19-12.85-38.75-33.12l-18.18,0.18c-2.56,20.26-14.75,33.83-36.38,33.16
				c-21.5-0.66-35.98-13.98-36.79-34.93c-0.86-22.22,16.8-40.62,39.13-41.68c0.68-0.03,1.36-0.05,2.04-0.05h82.95
				c0.09,0,0.17,0,0.26,0C657.55,617.78,676.32,636.93,675.04,660.05z"/>
			<circle class="st3" cx="548.68" cy="654.23" r="16.68"/>
			<path class="st3" d="M649.27,639.36c0,5.51-4.47,9.98-9.98,9.98s-9.98-4.47-9.98-9.98s4.47-9.98,9.98-9.98
				S649.27,633.85,649.27,639.36z"/>
			<path class="st3" d="M649.27,667.8c0,5.51-4.47,9.98-9.98,9.98s-9.98-4.47-9.98-9.98s4.47-9.98,9.98-9.98
				S649.27,662.28,649.27,667.8z"/>
			<path class="st3" d="M668.9,654.23c0,5.51-4.47,9.98-9.98,9.98s-9.98-4.47-9.98-9.98s4.47-9.98,9.98-9.98
				C664.43,644.24,668.9,648.71,668.9,654.23z"/>
			<path class="st3" d="M629.3,654.23c0,5.51-4.47,9.98-9.98,9.98s-9.98-4.47-9.98-9.98s4.47-9.98,9.98-9.98
				C624.83,644.24,629.3,648.71,629.3,654.23z"/>
		</g>
		<g>
			<rect x="350.97" y="261.44" class="st3" width="14.87" height="39.64"/>
		</g>
		<ellipse class="st3" cx="358.41" cy="322.82" rx="29.2" ry="29.2"/>
		<circle class="st4" cx="355.74" cy="320.38" r="55.99"/>
	</g>
	<line class="st5" x1="355.74" y1="327.41" x2="315.73" y2="359.54"/>
</g>
</svg>
