<?xml version="1.0" encoding="utf-8"?>
<!-- Generator: Adobe Illustrator 24.1.1, SVG Export Plug-In . SVG Version: 6.00 Build 0)  -->
<svg version="1.1" id="Layer_1" xmlns="http://www.w3.org/2000/svg" xmlns:xlink="http://www.w3.org/1999/xlink" x="0px" y="0px"
	 viewBox="0 0 1000 1000" style="enable-background:new 0 0 1000 1000;" xml:space="preserve">
<style type="text/css">
	.st0{fill:none;stroke:#F5100A;stroke-width:9;stroke-miterlimit:10;}
</style>
<g>
	<g>
		<path class="st0" d="M631.2,393.5c0,0-42-68-55-91s-37-17-37-17l-252,101c-14,7-14,7-14,7"/>
		<line class="st0" x1="377.2" y1="392.5" x2="583.43" y2="314.94"/>
	</g>
	<path class="st0" d="M589.55,322c-0.78,0.17-1.57,0.33-2.35,0.5"/>
	<path class="st0" d="M448.13,326"/>
	<path class="st0" d="M589.55,327c39.79,0,79.59,0,119.38,0c35.77,0,64.77,29,64.77,64.77v13.06v197.4v86.94
		c0,15.37-12.46,27.83-27.83,27.83H262.53c-15.37,0-27.83-12.46-27.83-27.83v-86.94v-197.4v-13.06c0-35.77,29-64.77,64.77-64.77
		c25.88,0,43.74-0.35,135.6,0"/>
	<path class="st0" d="M234.75,408.03c0,0,2.35-14.81,27.35-15.06c25-0.26,488.05,2.02,488.05,2.02s22.99-1.02,23.65,14.36"/>
	<path class="st0" d="M715.48,471c-47.36-0.03-85.76,29.28-85.78,65.45v0c-0.02,36.17,38.35,65.52,85.71,65.55l58.25,0.03l0.07-131
		L715.48,471z"/>
	<circle class="st0" cx="699.2" cy="536.5" r="21"/>
</g>
</svg>
