<?xml version="1.0" encoding="utf-8"?>
<!-- Generator: Adobe Illustrator 24.1.1, SVG Export Plug-In . SVG Version: 6.00 Build 0)  -->
<svg version="1.1" id="Layer_1" xmlns="http://www.w3.org/2000/svg" xmlns:xlink="http://www.w3.org/1999/xlink" x="0px" y="0px"
	 viewBox="0 0 1000 1000" style="enable-background:new 0 0 1000 1000;" xml:space="preserve">
<style type="text/css">
	.st0{fill:#767676;}
	.st1{fill:none;}
</style>
<g>
	<path class="st0" d="M538.88,687.19l-6.38-8.36c-3.76-4.93-9.78-7.85-16.17-7.85H341.53c-5.49,0-10.7,2.33-14.21,6.35l-8.61,9.86
		H204.35v27.56H650.2v-27.56H538.88z M371.76,710.58c-8.57,0-15.53-6.95-15.53-15.53c0-8.57,6.95-15.53,15.53-15.53
		s15.53,6.95,15.53,15.53C387.28,703.62,380.33,710.58,371.76,710.58z M427.6,710.58c-8.57,0-15.53-6.95-15.53-15.53
		c0-8.57,6.95-15.53,15.53-15.53c8.58,0,15.53,6.95,15.53,15.53C443.13,703.62,436.18,710.58,427.6,710.58z M483.45,710.58
		c-8.57,0-15.53-6.95-15.53-15.53c0-8.57,6.95-15.53,15.53-15.53s15.53,6.95,15.53,15.53C498.98,703.62,492.02,710.58,483.45,710.58
		z"/>
	<path class="st0" d="M488.64,344.6l-51.6-84.6l-51.57,84.6l-87.86-49.41l26.79,112.32h225.28l26.79-112.32L488.64,344.6z
		 M352.94,402.33c-8.02,0-14.53-6.5-14.53-14.52c0-8.03,6.51-14.53,14.53-14.53c8.03,0,14.53,6.5,14.53,14.53
		C367.46,395.83,360.96,402.33,352.94,402.33z M437.04,401.98c-16.18,0-29.31-13.12-29.31-29.31c0-16.19,13.13-29.31,29.31-29.31
		c16.19,0,29.31,13.13,29.31,29.31C466.36,388.85,453.23,401.98,437.04,401.98z M521.15,402.33c-8.03,0-14.53-6.5-14.53-14.52
		c0-8.03,6.5-14.53,14.53-14.53c8.02,0,14.52,6.5,14.52,14.53C535.67,395.83,529.17,402.33,521.15,402.33z"/>
	<path class="st0" d="M668.6,308.3c-19.92,0-36.08,16.15-36.08,36.08c0,16.26,10.75,29.99,25.54,34.5V533.9h-25.54v-89.67
		c0-16.12-13.07-29.18-29.18-29.18H249.9c-16.12,0-29.18,13.06-29.18,29.18v195.88c0,16.12,13.07,29.18,29.18,29.18h76.18l0.58-0.66
		c3.52-4.03,8.73-6.35,14.22-6.35h174.8c6.03,0,11.7,2.59,15.49,7.01h72.17c16.12,0,29.18-13.07,29.18-29.18V628.1h25.54
		c11.64,0,21.08-9.44,21.08-21.08V378.87c14.78-4.51,25.54-18.25,25.54-34.5C704.67,324.45,688.52,308.3,668.6,308.3z M613.07,628.1
		c0,16.12-13.07,29.18-29.18,29.18H269.36c-16.12,0-29.18-13.07-29.18-29.18V456.24c0-16.12,13.07-29.18,29.18-29.18h314.54
		c16.12,0,29.18,13.07,29.18,29.18V628.1z"/>
	<path class="st0" d="M343.07,478.21h-76.52c-4.82,0-8.75,3.94-8.75,8.75v138.5c0,4.82,3.94,8.75,8.75,8.75h76.52
		c4.82,0,8.75-3.94,8.75-8.75v-138.5C351.83,482.15,347.89,478.21,343.07,478.21z M345.41,519.74l-41.05,96.28h-26.86l41.12-90.23
		h-52.36v-19.62h79.14V519.74z"/>
	<path class="st0" d="M465.53,445.65h-76.52c-4.82,0-8.75,3.94-8.75,8.75v138.5c0,4.82,3.94,8.75,8.75,8.75h76.52
		c4.82,0,8.75-3.94,8.75-8.75V454.4C474.29,449.59,470.35,445.65,465.53,445.65z M466.2,482.31l-41.05,96.27h-26.86l41.12-90.23
		h-52.36v-19.61h79.14V482.31z"/>
	<path class="st0" d="M584.25,477.78h-76.52c-4.82,0-8.75,3.94-8.75,8.75v138.5c0,4.82,3.94,8.75,8.75,8.75h76.52
		c4.82,0,8.75-3.94,8.75-8.75v-138.5C593,481.72,589.06,477.78,584.25,477.78z M585.56,514.44l-41.04,96.27h-26.86l41.12-90.23
		h-52.36v-19.61h79.14V514.44z"/>
	<path class="st0" d="M351.83,454.09v6.65c0,4.82-3.94,8.75-8.75,8.75h-76.52c-4.82,0-8.75-3.94-8.75-8.75v-6.65
		c0-4.82,3.94-8.75,8.75-8.75h76.52C347.89,445.33,351.83,449.27,351.83,454.09z"/>
	<path class="st0" d="M474.29,618.94v6.65c0,4.82-3.94,8.75-8.75,8.75h-76.52c-4.82,0-8.75-3.94-8.75-8.75v-6.65
		c0-4.82,3.94-8.75,8.75-8.75h76.52C470.35,610.18,474.29,614.12,474.29,618.94z"/>
	<path class="st0" d="M593,454.09v6.65c0,4.82-3.94,8.75-8.75,8.75h-76.52c-4.82,0-8.75-3.94-8.75-8.75v-6.65
		c0-4.82,3.94-8.75,8.75-8.75h76.52C589.06,445.33,593,449.27,593,454.09z"/>
	<path class="st1" d="M531.17,669.29H326.09l0.58-0.66c3.52-4.03,8.73-6.35,14.22-6.35h174.8
		C521.71,662.28,527.39,664.87,531.17,669.29z"/>
</g>
</svg>
