<?xml version="1.0" encoding="utf-8"?>
<!-- Generator: Adobe Illustrator 24.1.1, SVG Export Plug-In . SVG Version: 6.00 Build 0)  -->
<svg version="1.1" id="Layer_1" xmlns="http://www.w3.org/2000/svg" xmlns:xlink="http://www.w3.org/1999/xlink" x="0px" y="0px"
	 viewBox="0 0 1000 1000" style="enable-background:new 0 0 1000 1000;" xml:space="preserve">
<style type="text/css">
	.st0{fill:#333333;}
	.st1{fill:#FFFFFF;}
	.st2{font-family:'SourceHanSansCN-Light-GBpc-EUC-H';}
	.st3{font-size:85px;}
</style>
<g>
	<g>
		<path class="st0" d="M424.83,577.56c-1.02-6.95-1.57-14.03-1.57-21.23c0-89.97,82.6-163.4,185.19-165.84
			C600.94,300.2,515.95,229,412.14,229c-108.75,0-196.91,78.12-196.91,174.48c0,55.21,28.97,104.4,74.14,136.37l-0.15-0.06
			c0,0,13.21,8.9,9.37,28.02c-3.82,19.12-11.09,44.36-11.09,44.36l50.48-31.14c0,0,12.99-8.84,32.82-6.95
			c2.68,0.51,5.4,0.95,8.14,1.37c0.26,0.06,0.51,0.1,0.78,0.16l-0.17-0.07c10.61,1.57,21.48,2.42,32.59,2.42
			C416.41,577.96,420.63,577.8,424.83,577.56z"/>
	</g>
	<circle class="st1" cx="343.72" cy="368.96" r="22.94"/>
	<path class="st1" d="M515.49,368.96c0,12.67-10.27,22.94-22.94,22.94c-12.68,0-22.94-10.27-22.94-22.94
		c0-12.67,10.27-22.94,22.94-22.94C505.22,346.01,515.49,356.29,515.49,368.96z"/>
	<path class="st0" d="M673.13,697.28c18.82,0,29.79,6.67,29.79,6.67l23.19,13.77c0,0,0.27,0.27,0.5,0.27
		c0.63,0,0.96-2.06-5.58-17.61c-8.91-21.16,8.9-35.2,8.9-35.2l-0.03,0.01c34.34-26.99,55.88-65.76,55.88-108.85
		c0-81.52-77.04-147.6-172.08-147.6s-172.08,66.09-172.08,147.6c0,81.52,77.04,147.61,172.08,147.61c16.88,0,33.18-2.12,48.59-6.01
		l-0.16,0.08C666.03,697.5,669.71,697.28,673.13,697.28z"/>
	<path class="st1" d="M640.37,514.83c0,10.76,8.72,19.48,19.48,19.48c10.76,0,19.47-8.72,19.47-19.48
		c0-10.76-8.71-19.48-19.47-19.48C649.08,495.36,640.37,504.07,640.37,514.83z"/>
	<path class="st1" d="M518.94,514.83c0,10.76,8.72,19.48,19.48,19.48c10.76,0,19.48-8.72,19.48-19.48
		c0-10.76-8.72-19.48-19.48-19.48C527.66,495.36,518.94,504.07,518.94,514.83z"/>
</g>
<text transform="matrix(1 0 0 1 415.502 859.7363)" class="st2 st3">微信</text>
</svg>
