<?xml version="1.0" encoding="utf-8"?>
<!-- Generator: Adobe Illustrator 24.1.1, SVG Export Plug-In . SVG Version: 6.00 Build 0)  -->
<svg version="1.1" id="Layer_1" xmlns="http://www.w3.org/2000/svg" xmlns:xlink="http://www.w3.org/1999/xlink" x="0px" y="0px"
	 viewBox="0 0 1000 1000" style="enable-background:new 0 0 1000 1000;" xml:space="preserve">
<style type="text/css">
	.st0{fill:#FFFFFF;}
	.st1{fill:#F5100A;}
	.st2{font-family:'SourceHanSansCN-Light-GBpc-EUC-H';}
	.st3{font-size:85px;}
</style>
<g>
	<g>
		<g>
			<path class="st0" d="M508.63,556.32c-0.08,0.24-0.15,0.47-0.24,0.71c-0.07,0.2-0.14,0.39-0.22,0.59c0.01,0.01,0,0.03-0.01,0.03
				c-0.04,0.17-0.1,0.33-0.15,0.5c-3.69,11.46-14.57,20.03-32.34,25.48c-9.05,2.78-18.67,4.28-28.6,4.46
				c-74.99,1.39-108.32,27.02-108.65,27.28c-2.1,1.66-4.6,2.46-7.1,2.46c-3.39,0-6.75-1.5-9.01-4.36c-3.92-4.97-3.08-12.18,1.9-16.1
				c1.59-1.25,39.8-30.67,122.43-32.2c7.79-0.15,15.29-1.31,22.3-3.46c11.31-3.47,16.32-7.74,17.23-10.57
				c1.94-6.03,8.39-9.34,14.43-7.41c0.15,0.04,0.29,0.1,0.44,0.15c0,0,0.01,0,0.01,0.01c0.22,0.04,0.45,0.08,0.68,0.14
				c0.22,0.05,0.45,0.11,0.67,0.18C507.47,545.83,510.26,551.26,508.63,556.32z"/>
		</g>
		<path class="st0" d="M457.52,540.04c-8.66,10.97-21.25,16.8-37.4,17.32c-12.72,0.41-25.44-2.36-36.66-4.82
			c-3.84-0.84-7.46-1.63-10.62-2.18c-5.46-0.95-11.1,0.54-15.48,4.08c-10.46,8.46-21.1,12.71-31.74,12.71
			c-2.57,0-5.12-0.24-7.68-0.74c-0.45-0.09-0.9-0.18-1.34-0.29c-1.45-0.32-2.85-0.73-4.22-1.2c-0.29-0.1-0.57-0.2-0.85-0.31
			c-0.44-0.16-0.87-0.32-1.31-0.5c-0.39-0.16-0.78-0.32-1.17-0.49c-2.03-0.89-3.95-1.92-5.76-3.04c-0.18-0.11-0.36-0.22-0.53-0.32
			c-2.26-1.43-4.34-2.99-6.25-4.61c-0.27-0.23-0.54-0.46-0.8-0.69c-0.2-0.17-0.4-0.35-0.6-0.54c-0.2-0.18-0.39-0.36-0.59-0.54
			c-0.39-0.36-0.76-0.71-1.13-1.08c-0.31-0.3-0.62-0.61-0.92-0.91c-1.47-1.49-2.8-2.96-3.96-4.36c-0.22-0.25-0.43-0.51-0.63-0.76
			c-0.06-0.08-0.13-0.15-0.18-0.22c-0.13-0.15-0.25-0.31-0.37-0.46l-0.02-0.02c-3.13-3.96-4.85-6.98-5.04-7.32l8.39-4.68l0.03-0.01
			c2.84-1.43,5.75-2.82,8.72-4.19c1.73,2.78,10.13,15.33,22.27,17.63c7.31,1.38,15.24-1.32,23.57-8.05
			c8.69-7.04,19.95-9.98,30.88-8.08c3.57,0.62,7.39,1.46,11.44,2.34c10.12,2.21,21.6,4.73,31.92,4.38
			c10.5-0.34,17.78-3.52,22.91-10.01c13.91-17.6,15.25-31.06,15.37-32.88c6.29-0.28,12.71-0.47,19.27-0.56v0.07
			C477.08,496.78,476.79,515.66,457.52,540.04z"/>
		<g>
			<path class="st0" d="M512.86,637.27c-5.46,3.18-11.14,6.2-17.04,9.03c-9.6-16.39-20.32-25.53-31.87-27.16
				c-16.22-2.29-32.21,10.38-40.3,18.13c-7.87,7.54-18.87,10.43-29.45,7.74c-13.09-3.34-22.9-2.2-29.18,3.38
				c-9.76,8.69-11.13,27.37-10.64,38.56c-6.27,1.08-12.66,2.06-19.11,2.94c-0.25-4.13-0.39-10.21,0.23-16.95
				c1.59-17.36,7.2-30.45,16.67-38.9c11.35-10.14,27.09-12.73,46.8-7.71c4.08,1.04,8.32-0.07,11.34-2.97
				c7.36-7.05,15.03-12.67,22.78-16.69c11.44-5.92,22.73-8.15,33.55-6.61c17.81,2.52,33.33,14.99,46.12,37.06
				C512.8,637.17,512.83,637.22,512.86,637.27z"/>
		</g>
		<g>
			<path class="st0" d="M327.14,690.93c-6.36,0.77-12.77,1.42-19.19,1.94c-0.67-15.46-13.46-27.84-29.09-27.84
				c-15.64,0-28.43,12.39-29.09,27.87c-6.52-0.62-12.9-1.49-19.14-2.63c1.97-24.87,22.85-44.51,48.23-44.51
				C304.46,645.76,325.48,665.75,327.14,690.93z"/>
		</g>
		<g>
			<path class="st0" d="M265.39,548.4c-5.61,3.59-10.89,7.25-15.85,10.99c3.86,4.94,6.17,11.15,6.17,17.88
				c0,16.05-13.06,29.11-29.12,29.11c-7.11,0-13.63-2.56-18.69-6.82c-4.26,5.34-8.03,10.57-11.34,15.61
				c8.25,6.55,18.7,10.47,30.03,10.47c26.68,0,48.39-21.71,48.39-48.38C274.97,566.46,271.41,556.46,265.39,548.4z"/>
		</g>
		<g>
			<path class="st0" d="M620.59,514.85l-0.63,1.57c-0.09,0.23-0.18,0.45-0.29,0.68c-2.45,5.1-5.1,10.31-7.96,15.57
				c-15.16-1.8-27.79-1.35-37.59,1.33c-8.32,2.28-14.38,6.04-18.52,11.49c-7.87,10.35-7.39,25.59-5.62,36.54
				c1.85,11.39,5.5,20.76,6.36,22.9c-4.49,4.18-9.2,8.26-14.14,12.2c-1.42-0.98-2.61-2.37-3.34-4.07
				c-0.22-0.5-5.29-12.27-7.82-27.45c-1.52-9.14-1.83-17.69-0.9-25.43c1.23-10.25,4.62-19.1,10.08-26.29
				c13.9-18.34,40-25.02,77.58-19.87C618.79,514.16,619.72,514.44,620.59,514.85z"/>
		</g>
	</g>
	<g>
		<path class="st1" d="M457.78,495.2c-0.11,1.83-1.46,15.29-15.37,32.89c-5.13,6.49-12.41,9.67-22.91,10.01
			c-10.32,0.34-21.79-2.17-31.91-4.39c-4.05-0.89-7.87-1.72-11.44-2.34c-10.93-1.9-22.19,1.05-30.89,8.08
			c-8.33,6.73-16.26,9.44-23.56,8.05c-12.14-2.3-20.55-14.85-22.28-17.63C338.94,511.68,390.54,498.2,457.78,495.2z"/>
		<path class="st1" d="M637.44,435.64c-0.22-0.07-0.43-0.15-0.65-0.22c-4.96-1.76-10.48,0.54-12.75,5.28
			c-0.59,1.22-1.2,2.43-1.83,3.61c-3.21,5.95-7.03,11.31-11.2,16.11c-7.3,8.4-15.7,15.12-23.84,20.39
			c-7.6,4.93-15.82,8.68-24.41,11.22c-6.29,1.87-12.76,3.09-19.32,3.65c-4.66,0.39-9.36,0.46-14.07,0.18
			c-18.35-1.06-35.77-1.45-52.3-1.22v0.07c0.03,2.07-0.26,20.95-19.53,45.32c-8.66,10.97-21.25,16.8-37.4,17.32
			c-12.72,0.41-25.44-2.36-36.66-4.82c-3.84-0.84-7.46-1.63-10.62-2.18c-5.46-0.95-11.1,0.54-15.48,4.08
			c-10.46,8.46-21.1,12.71-31.74,12.71c-2.57,0-5.12-0.24-7.68-0.74c-0.45-0.09-0.9-0.18-1.34-0.29c-1.45-0.32-2.85-0.73-4.22-1.2
			c-0.29-0.1-0.57-0.2-0.85-0.31c-0.44-0.16-0.87-0.32-1.31-0.5c-0.39-0.16-0.78-0.32-1.17-0.49c-2.03-0.89-3.95-1.92-5.76-3.04
			c-0.18-0.11-0.36-0.22-0.53-0.32c-2.26-1.43-4.34-2.99-6.25-4.61c-0.27-0.23-0.54-0.46-0.8-0.69c-0.2-0.17-0.4-0.35-0.6-0.54
			c-0.2-0.18-0.39-0.36-0.59-0.54c-0.39-0.36-0.76-0.71-1.13-1.08c-0.31-0.3-0.62-0.61-0.92-0.91c-1.47-1.49-2.8-2.96-3.96-4.36
			c-0.22-0.25-0.43-0.51-0.63-0.76c-0.06-0.08-0.13-0.15-0.18-0.22c-0.13-0.15-0.25-0.31-0.37-0.46l-0.02-0.02
			c-1.45-1.36-2.63-2.92-3.59-4.62c-0.64-0.91-1.21-1.87-1.7-2.86c-5.85,3.18-11.39,6.45-16.64,9.8c6.02,8.06,9.58,18.06,9.58,28.87
			c0,26.67-21.71,48.38-48.39,48.38c-11.33,0-21.78-3.92-30.03-10.47c-5.36,8.14-9.56,15.79-12.83,22.59
			c-8.25,17.15-0.07,37.69,17.7,44.5c9.16,3.5,18.96,6.13,29.21,8.01c1.97-24.87,22.85-44.51,48.23-44.51
			c25.6,0,46.62,19.99,48.28,45.17c2.73-0.32,5.44-0.68,8.14-1.04c-0.25-4.13-0.39-10.21,0.23-16.95
			c1.59-17.36,7.2-30.45,16.67-38.9c11.35-10.14,27.09-12.73,46.8-7.71c4.08,1.04,8.32-0.07,11.34-2.97
			c7.36-7.05,15.03-12.67,22.78-16.69c11.44-5.92,22.73-8.15,33.55-6.61c17.81,2.52,33.33,14.99,46.12,37.06
			c0.03,0.05,0.05,0.1,0.08,0.15c10.57-6.15,20.33-12.92,29.34-20.13c-1.42-0.98-2.61-2.37-3.34-4.07
			c-0.22-0.5-5.29-12.27-7.82-27.45c-1.52-9.14-1.83-17.69-0.9-25.43c1.23-10.25,4.62-19.1,10.08-26.29
			c13.9-18.34,40-25.02,77.58-19.87c0.99,0.13,1.93,0.42,2.8,0.83l16.31-41.06c0.09-0.22,0.17-0.45,0.24-0.68
			c3.27-10.17,5.53-18.83,7.03-25.29C645.38,442.64,642.49,437.34,637.44,435.64z M507.35,556.34c-0.08,0.24-0.15,0.47-0.24,0.71
			c-0.07,0.2-0.14,0.39-0.22,0.59c0.01,0.01,0,0.03-0.01,0.03c-0.04,0.17-0.1,0.33-0.15,0.5c-3.69,11.46-14.57,20.03-32.34,25.48
			c-9.05,2.78-18.67,4.28-28.6,4.46c-74.99,1.39-108.32,27.02-108.65,27.28c-2.1,1.66-4.6,2.46-7.1,2.46c-3.39,0-6.75-1.5-9.01-4.36
			c-3.92-4.97-3.08-12.18,1.9-16.1c1.59-1.25,39.8-30.67,122.43-32.2c7.79-0.15,15.29-1.31,22.3-3.46
			c11.31-3.47,16.32-7.74,17.23-10.57c1.94-6.03,8.39-9.34,14.43-7.41c0.15,0.04,0.29,0.1,0.44,0.15c0,0,0.01,0,0.01,0.01
			c0.22,0.04,0.45,0.08,0.68,0.14c0.22,0.05,0.45,0.11,0.67,0.18C506.19,545.85,508.98,551.28,507.35,556.34z"/>
		<path class="st1" d="M255.7,577.27c0,16.05-13.06,29.12-29.12,29.12c-7.11,0-13.63-2.56-18.69-6.81
			c10.55-13.22,24.16-27.05,41.65-40.19C253.4,564.32,255.7,570.53,255.7,577.27z"/>
		<path class="st1" d="M307.95,692.87c-19.64,1.57-39.4,1.82-58.17,0.03c0.65-15.48,13.45-27.87,29.09-27.87
			C294.49,665.03,307.28,677.4,307.95,692.87z"/>
		<path class="st1" d="M495.82,646.3c-8.83,4.24-18.16,8.06-28.02,11.39c0,0-51.2,18.64-113.41,29.26
			c-0.49-11.19,0.88-29.87,10.65-38.56c6.27-5.58,16.09-6.72,29.18-3.38c10.57,2.69,21.58-0.2,29.44-7.74
			c8.09-7.76,24.09-20.43,40.3-18.14C475.5,620.76,486.22,629.9,495.82,646.3z"/>
		<path class="st1" d="M611.7,532.67c-13.25,24.28-31.21,49.79-55.36,72.26c-0.87-2.14-4.51-11.5-6.37-22.9
			c-1.78-10.96-2.25-26.19,5.62-36.54c4.15-5.45,10.2-9.21,18.52-11.49C583.92,531.32,596.55,530.88,611.7,532.67z"/>
		<path class="st1" d="M698.71,374.23c-4.83,6.87-10.66,14.47-17.64,22.89c-3.85,4.65-8.06,9.55-12.63,14.7
			c-3.92,4.42-9.52,7.05-15.42,7.07c-0.04,0-0.08,0-0.12,0c-0.26,0-0.51,0-0.77-0.01c-10.81-0.28-19.53-9.02-20.02-19.82
			c-0.27-5.95-1.08-12.23-2.5-18.86c-0.06-0.28-0.11-0.56-0.16-0.85c-0.12-0.73-0.46-2.53-1.14-5.16
			c-1.2-4.65-3.49-11.92-7.63-20.49c-6.61-13.68-17.94-30.69-37.1-45.74c-28.15-22.12-10.9-77.32,1.96-108.42
			c3.29-7.95,14.58-7.83,17.69,0.19c10.39,26.81,32.37,71.48,70.82,98.42c9.11,6.38,19.52,10.57,30.42,12.79
			C716.7,313.45,733.46,324.84,698.71,374.23z"/>
		<path class="st1" d="M307.49,491.61c1.44-21.06,10.44-69.16,61.61-87.33c5.25-1.86,10.87,1.65,11.46,7.19
			c1.72,16.28,2.29,48.33-15.85,68.02c-16.17,17.55-35.31,21.73-46.89,22.47C311.96,502.33,307.09,497.47,307.49,491.61z"/>
		<path class="st1" d="M412.7,682.76c-9.09,2.45-13.31,12.91-8.58,21.05c5.29,9.09,17.66,20.94,45.85,18.22
			c29.75-2.87,47.01-1.74,55.2-0.66c5.53,0.72,11.06-1.74,13.99-6.49c3.62-5.89,2.72-14.14-20.98-20.74c0,0-14.94-4.89-18.36-13.76
			c-1.98-5.14-6.88-8.59-12.38-8.94c-7.72-0.5-18.2,0.79-28.61,8.2c-2.96,2.11-6.62,3.04-10.22,2.55
			C424.31,681.61,418.21,681.27,412.7,682.76z"/>
		<path class="st1" d="M520.23,467.01c0.46-15.36,5.1-40.36,29.42-48.01c5.25-1.65,10.72,1.96,11.21,7.45
			c1.15,12.88-1.13,35.87-28.29,48.64C526.73,477.83,520.04,473.46,520.23,467.01z"/>
		<path class="st1" d="M627.04,530.65c4.18-12.98,14.98-31.55,42.3-29.15c2.46,0.22,4.2,2.51,3.74,4.94
			c-1.04,5.39-2.5,14.57-1.76,20.34c0.33,2.55-1.66,4.82-4.23,4.75c-8.94-0.24-24.56,0.05-34.43,4.23
			C629.36,537.16,625.94,534.06,627.04,530.65z"/>
		<path class="st1" d="M718.45,254.87c-1.17,15.03-6.27,31.3-9.94,40.76c-10.16-2.32-19.85-6.38-28.39-12.36
			c-9.91-6.94-18.73-15.07-26.53-23.76c2.71-11.62,13.49-31.22,20.43-39.44c32.26-38.2,36.51-25.72,36.51-25.72
			S722.98,196.3,718.45,254.87z"/>
	</g>
</g>
</svg>
