<svg xmlns="http://www.w3.org/2000/svg" width="40" height="20" viewBox="-9.5 28 40 20"><g fill="#838383"><path d="M20.5 41.2c-1.6 0-2.9-1.4-2.9-3s1.3-3 2.9-3 2.9 1.4 2.9 3-1.3 3-2.9 3zm1.9-3.5s-.6-.1-.5.4c0 0 .2 1.1-1.1 1.5 0 0-.7.1-.7.4 0 0-.1.7.7.5 0 0 1.7-.4 1.9-2 0-.1 0-.7-.3-.8z"/><path d="M20.6 43.9s-6.3.2-10.1-5.8c0 0 3.2-5.2 9.6-5.6 0 0 6.1-.4 10.4 5.8 0-.1-4.3 5.6-9.9 5.6zm-.2-10.2c-2.3 0-4.3 2-4.3 4.4 0 2.4 1.9 4.4 4.3 4.4s4.3-2 4.3-4.4c0-2.4-1.9-4.4-4.3-4.4z"/><path d="M26 31.4l-12.5 13s-.8.6-.2 1.4c0 0 .6.8 1.5-.4l12.4-12.9s.6-.6.1-1.2c0 0-.5-.7-1.3.1z"/></g><g fill="#838383"><path d="M.5 40.9c-1.6 0-2.9-1.3-2.9-2.9 0-1.6 1.3-2.9 2.9-2.9 1.6 0 2.9 1.3 2.9 2.9 0 1.6-1.3 2.9-2.9 2.9zm1.9-3.3s-.6-.1-.5.3c0 0 .2 1-1.1 1.4 0 0-.7.1-.7.3 0 0-.1.6.7.5 0 0 1.7-.4 1.9-1.9 0 .1 0-.5-.3-.6z"/><path d="M.6 43.5s-6.3.1-10.1-5.6c0 0 3.2-5 9.6-5.4 0 0 6.1-.4 10.4 5.6 0 0-4.3 5.4-9.9 5.4zm-.2-9.7c-2.3 0-4.3 1.9-4.3 4.2S-2 42.2.4 42.2s4.3-1.9 4.3-4.2-1.9-4.2-4.3-4.2z"/></g></svg>