<svg xmlns="http://www.w3.org/2000/svg" xmlns:xlink="http://www.w3.org/1999/xlink" width="200" height="350" viewBox="0 0 200 350"><g fill="#9a9a9a"><path d="M10.5 40c-1.3 0-2.4.4-3.3 1.2L6 40v3h3l-1.1-1.1c.7-.5 1.6-.9 2.6-.9 2.5 0 4.5 2 4.5 4.5S13 50 10.5 50c-2.3 0-4.2-1.8-4.5-4H5c.3 2.8 2.6 5 5.5 5 3 0 5.5-2.5 5.5-5.5S13.5 40 10.5 40z" fill-rule="evenodd" clip-rule="evenodd"/><path d="M12.8 47.3l-1.9-2.1V43h-1v3h.4l1.8 1.9z"/></g><g fill="#fd3153"><path d="M35.4 40H40l-5.4 5.5L40 51h-4.6L30 45.5z"/><path d="M42.4 40H47l-5.4 5.5L47 51h-4.6L37 45.5z"/></g><path fill="#fff" d="M170 95v2.9l4-4v8.6h2v-8.6l4 4V95l-5-5zm5.3 66c0-.7.5-1.2 1.2-1.2s1.2.5 1.2 1.2-.5 1.2-1.2 1.2-1.2-.5-1.2-1.2m-4.3-17h11v15h-11v-15zm4-2h3v1h-3v-1zm6-2h-9c-1.1 0-2 .9-2 2v19c0 1.1.9 2 2 2h8.9c1.1 0 2-.9 2-2v-19c0-1.8-1.3-2-1.8-2h-.1m9-23h-18v10h18v-10zm-19-1h20v12h-20v-12zm1-1c-1 0-2 1-2 2v10c0 1 1 2 2 2h7v3h-1c-1 0-1 1-1 1h8c0-.9-1-1-1-1h-1v-3h7c1 0 2-1 2-2v-10c0-1-.8-2-1.8-2H172z"/><g fill="#fff"><path d="M179 181.9l-6.1-5.6h4.2v-3.8h3.9v3.8h4.2zm-1.9-11.9h3.9v1.2h-3.9z"/><path d="M185.4 181.1v2.4h-12.8v-2.4H170v4.9h18v-4.9z"/></g><g fill="#ff4564"><path d="M12.5 15c0 1.4 1.1 2.5 2.5 2.5s2.5-1.1 2.5-2.5-1.1-2.5-2.5-2.5-2.5 1.1-2.5 2.5"/><path d="M16.4 12.4c.9.5 1.5 1.5 1.5 2.6 0 .7-.2 1.3-.6 1.8l-2.8 4.8h.5c3.7 0 6.7-3 6.7-6.7 0-.9-.2-1.8-.5-2.6h-4.8z"/><path d="M8.3 15c0 3.4 2.5 6.2 5.8 6.6l2.3-4c-.4.2-.9.4-1.4.4-1.2 0-2.3-.8-2.7-1.8l-2.8-4.8c-.8 1-1.2 2.2-1.2 3.6"/><path d="M9.7 11l2.3 4c0-1.6 1.3-2.9 3-2.9h6c-1.1-2.2-3.4-3.7-6-3.7-2.2-.1-4.1 1-5.3 2.6"/><path d="M25 15c0 5.5-4.5 10-10 10S5 20.5 5 15 9.5 5 15 5s10 4.5 10 10zM15 6c-5 0-9 4-9 9s4 9 9 9 9-4 9-9-4-9-9-9z"/></g><g fill="#ff4564"><path d="M50.3 11.8c1.2 0 2.3 1 2.3 2.2H48c.1-1.2 1.1-2.2 2.3-2.2m3.6-3.4c-.2 0-2 0-3.8 1-2.4.1-4.4 1.6-5.1 3.7.5-.6 1.3-1.2 2.4-1.6 0 0-1.6 1.7-2.7 3.2-1.4 2.1-1.4 4.4-1.4 4.4s-.1 1.4 1.2 1.8c.2.1.4.1.6.1.8 0 1.7-.4 2.2-.6-.1-.1-.3-.1-.4-.2-.6.2-1.3.4-1.4.4h-.2c-.4 0-1-.1-1-1-.1-1.1.9-1.9.9-1.9h.1c.9 1.8 2.8 3.1 5 3.1 2.5 0 4.6-1.5 5.3-3.8h-2.9c-.4.8-1.3 1.3-2.3 1.3-1.4 0-2.5-1.1-2.6-2.4h8c0-.3.1-.5.1-.7 0-2.2-1.3-4.1-3.1-5 .3-.3.9-.6 1.5-.6h.1c1.1.1 1 1.1 1 1.3 0 .1-.1.4-.2.8.1.1.2.3.3.4.3-.7.5-1.5.3-2.3-.4-1.3-1.5-1.4-1.9-1.4.1 0 0 0 0 0"/><path d="M60 15c0 5.5-4.5 10-10 10s-10-4.5-10-10S44.5 5 50 5s10 4.5 10 10zM50 6c-5 0-9 4-9 9s4 9 9 9 9-4 9-9-4-9-9-9z"/></g><g fill="#ff4564"><path d="M85.2 19.3c-3 3.4-7.9 2.6-10.4 0-2.7-2.7-.9-7.3-.9-7.3-.1-1.6.7-2.4.7-2.4.1.9.8 1.3.8 1.3.8-.2 1.6 0 1.6 0 1.1-1.1 1.8-.7 1.8-.7-.7.5-.9 1.3-.9 1.3.2.6.6.5.6.5h.8c.6 0 .5.3.5.3-.1.5-.3.6-.6.7-.3.2-1.1.5-.9.8.1.3 0 .8 0 .8s-.2-.3-.6-.2c-.4.1-.3.6-.3.6.3.9 1.1 1.1 1.5 1.1.4 0 1.1-.3 1.4-.4.3 0 .9.2 1.1.4.2.3.1.5-.1.4-.3-.1-.4 0-.6.1-.2.1-.5.4-1.1.6-.6.2-1.5.2-1.5.2 4.9 3.3 8.4-3.2 4.6-6.7 1 .3 1.5 1 1.5 1-.2-1.5-2-2.6-2-2.6 2.8.8 3.3 2.9 3.3 2.8.2-.6-.5-1.7-.4-1.7 1.8 1.6 2.3 6.7.1 9.1" fill-rule="evenodd" clip-rule="evenodd"/><path d="M90 15c0 5.5-4.5 10-10 10s-10-4.5-10-10S74.5 5 80 5s10 4.5 10 10zM80 6c-5 0-9 4-9 9s4 9 9 9 9-4 9-9-4-9-9-9z"/></g><path d="M13.4 65.9l1.8 1.8c.5.5.6.4 1.1 0L19 65l2.1 2.1V60H14l2.1 2.1-2.7 2.7c-.5.4-.5.6 0 1.1m-.8 4.2l-1.8-1.8c-.5-.5-.6-.4-1.1 0L7.1 71 5 68.9V76h7.1L10 73.9l2.7-2.7c.4-.4.4-.6-.1-1.1m17.7 3.8l1.8 1.8c.5.5.6.4 1.1 0l2.3-2.3 2.1 2.1v-7.1h-7.1l2.1 2.1-2.3 2.3c-.4.4-.4.6 0 1.1m15.4-11.8l-1.8-1.8c-.5-.5-.6-.4-1.1 0l-2.3 2.3-2.1-2.1v7.1h7.1l-2.1-2.1 2.3-2.3c.4-.4.4-.6 0-1.1" fill="#ccc"/><g fill="#ccc"><path d="M78 65.1c0-.1 0-.1 0 0 0-.1 0-.1 0 0 0-.1 0-.1 0 0 0-.1 0-.1 0 0 0-.1 0-.1 0 0 0-.2-.1-.3-.2-.4-.6-.7-1.3-1.3-2-1.8-1.5-1.2-3.2-2.2-5.1-2.6-1.1-.2-2.2-.2-3.3 0-1 .2-2 .5-2.9 1-1.4.7-2.7 1.7-3.8 2.8l-.6.6c-.3.3-.3.7 0 .9.6.7 1.3 1.3 2 1.8 1.5 1.2 3.2 2.2 5.1 2.6 1.1.2 2.2.2 3.3 0 1-.2 2-.5 2.9-1 1.4-.7 2.7-1.7 3.8-2.8l.6-.6c.1-.1.2-.2.2-.4v-.1c0 .1 0 0 0 0zm-9 3.5c-1.9 0-3.5-1.6-3.5-3.5s1.5-3.5 3.5-3.5 3.5 1.5 3.5 3.5c0 1.9-1.6 3.5-3.5 3.5z"/><circle cx="69" cy="65.1" r="1.5"/></g><path fill="#ff6565" d="M29 267h8v2h-8zm-12 0h-3v-3h-2v3H9v2h3v3h2v-3h3z"/><path d="M99.3 60h-1v1.6h-4.7V60h-1v1.6h-2.1c-.3 0-.5.2-.5.5v1h11.9v-1c0-.3-.2-.5-.5-.5h-2.1V60zM90 72.5c0 .3.2.5.5.5h10.9c.3 0 .5-.2.5-.5v-8.8H90v8.8zm8.8-7.8h2.1v2.1h-2.1v-2.1zm0 2.6h2.1v2.1h-2.1v-2.1zm0 2.6h2.1V72h-2.1v-2.1zm-2.6-5.2h2.1v2.1h-2.1v-2.1zm0 2.6h2.1v2.1h-2.1v-2.1zm0 2.6h2.1V72h-2.1v-2.1zm-2.6-5.2h2.1v2.1h-2.1v-2.1zm0 2.6h2.1v2.1h-2.1v-2.1zm0 2.6h2.1V72h-2.1v-2.1zM91 64.7h2.1v2.1H91v-2.1zm0 2.6h2.1v2.1H91v-2.1zm0 2.6h2.1V72H91v-2.1z" fill-rule="evenodd" clip-rule="evenodd" fill="#ccc"/><path d="M119.3 60h-1v1.6h-4.7V60h-1v1.6h-2.1c-.3 0-.5.2-.5.5v1h11.9v-1c0-.3-.2-.5-.5-.5h-2.1V60zM110 72.5c0 .3.2.5.5.5h10.9c.3 0 .5-.2.5-.5v-8.8H110v8.8zm8.8-7.8h2.1v2.1h-2.1v-2.1zm0 2.6h2.1v2.1h-2.1v-2.1zm0 2.6h2.1V72h-2.1v-2.1zm-2.6-5.2h2.1v2.1h-2.1v-2.1zm0 2.6h2.1v2.1h-2.1v-2.1zm0 2.6h2.1V72h-2.1v-2.1zm-2.6-5.2h2.1v2.1h-2.1v-2.1zm0 2.6h2.1v2.1h-2.1v-2.1zm0 2.6h2.1V72h-2.1v-2.1zm-2.6-5.2h2.1v2.1H111v-2.1zm0 2.6h2.1v2.1H111v-2.1zm0 2.6h2.1V72H111v-2.1z" fill-rule="evenodd" clip-rule="evenodd" fill="#8e9198"/><path d="M37 105l-5-5h-2v-3h2l5-5v13zm2-14c4 0 7 3.2 7 7.5s-3 7.5-7 7.5v1c4.7 0 8-3.8 8-8.5S43.7 90 39 90v1m0 11c2 0 3-1.9 3-3.5 0-1.8-.9-3.5-3-3.5v7z" fill="#979797"/><defs><path id="a" d="M18.6 101.1c-.5-.3-1.1-.1-1.3.3-1.5 2.6-4.8 3.4-7.5 1.8-2.6-1.5-3.6-4.9-2.1-7.4 1.5-2.6 4.8-3.4 7.5-1.9L13.3 97l6-1-2-6-1.3 2.4c-3.6-2.1-8.1-.9-10.1 2.5-2 3.5-.7 7.9 2.9 10 3.6 2.1 8.1.9 10.1-2.5.3-.4.1-1-.3-1.3"/></defs><use xlink:href="#a" overflow="visible" fill="#979797"/><path d="M9.6 280c.2 0 .4.1.5.2l3.4 3.4 3.4-3.4c.2-.2.6-.3.9 0 .3.2.3.6 0 .8l-3.9 3.9c-.2.2-.7.2-1 0L9.2 281c-.2-.2-.2-.6 0-.8.1-.2.3-.2.4-.2z" fill="#4ea3fe"/><path fill="#ffd3da" d="M143 60.9l-.9-.9-5.6 5.6-5.6-5.6-.9.9 5.6 5.6-5.6 5.6.9.9 5.6-5.6 5.6 5.6.9-.9-5.6-5.6z"/><path fill="#989898" d="M163 60.9l-.9-.9-5.6 5.6-5.6-5.6-.9.9 5.6 5.6-5.6 5.6.9.9 5.6-5.6 5.6 5.6.9-.9-5.6-5.6z"/><circle cx="12" cy="122" r="7" fill="#438eff"/><path fill="#438eff" d="M11 124h2v2h-2zm2-3.7v2.7h-2v-5h2z"/><path fill="#fff" d="M11 124h2v2h-2zm0-3.7v2.7h2v-5h-2z"/><circle cx="32" cy="122" r="7" fill="#ff3d3d"/><path fill="#fff" d="M36 124.6l-1.4 1.4-2.6-2.6-2.5 2.6-1.4-1.4 2.5-2.6-2.5-2.5 1.4-1.4 2.5 2.5 2.6-2.5 1.4 1.4-2.6 2.5z"/><path d="M51.8 125.6l-4.1-4.1 1.9-1.9 2.2 2.2 5-5c-1.3-1.2-2.9-1.9-4.8-1.9-3.9 0-7 3.1-7 7s3.1 7 7 7 7-3.1 7-7c0-1-.2-2-.7-2.9l-6.5 6.6z" fill="#4fdcbc"/><path d="M110.2 122v-2.6s0-4.4-4.2-4.4-4.2 4.4-4.2 4.4v2.6H100v8h12v-8h-1.8zm-1.2 0h-6v-2.6c0-.5.2-3.1 3-3.1s3 2.6 3 3.1v2.6zm-2.4 4.1v2h-1.2v-2c-.4-.2-.6-.6-.6-1.1 0-.7.5-1.3 1.2-1.3s1.2.6 1.2 1.3c0 .5-.2.9-.6 1.1" fill="#fd3154"/><path d="M79.8 121l7-6H70.2l7.2 6.1c1.5 1.1 2.4-.1 2.4-.1zm1.1.1l6.1 5.2v-10.2l-6.1 5zm-4.1.5l-6.1 5.4h15.6l-6-5.4s-1.4 1.8-3.5 0zm-6.8-5.7v10.3l6.1-5.3-6.1-5z" fill-rule="evenodd" clip-rule="evenodd" fill="#f7f7f7"/><g fill-rule="evenodd" clip-rule="evenodd"><path d="M63.5 97c-1.9 0-3.5-1.6-3.5-3.5s1.6-3.5 3.5-3.5 3.5 1.6 3.5 3.5-1.6 3.5-3.5 3.5z" fill="#cd1e39"/><circle cx="63.5" cy="93.5" r="2.5" fill="#9cff00"/></g><path fill="#fff" d="M73 50v2H63v-2h-2v4h14v-4z"/><path fill="#9a9a9a" d="M72 49v2H62v-2h-2v4h14v-4z"/><path fill="#fff" d="M68 50.7l-4.7-4.6h3.2V43h3v3.1h3.3zM66.5 41h3v1h-3z"/><path fill="#9a9a9a" d="M67 49.7l-4.7-4.6h3.2V42h3v3.1h3.3zM65.5 40h3v1h-3z"/><path d="M13 166c-4.4 0-8-3.6-8-8s3.6-8 8-8 8 3.6 8 8-3.6 8-8 8zm4.8-11.7h-2.1l-2.1 3.2-2.1-3.2H9.3v1.1h1.1l2.1 3.2h-2.1v1.1h2.1v1.1h-2.1v1.1h2.1v2.1h2.1v-2.1h2.1v-1.1h-2.1v-1.1h2.1v-1.1h-2.1l2.1-3.2h1.1v-1.1zm13.5 2.7c-3.5 0-6.3 2.9-6.3 7.6v.5h12.7v-.5c0-4.7-2.8-7.6-6.4-7.6zm.1-.9c1.8 0 3.2-1.4 3.2-3 0-1.7-1.4-3-3.2-3-1.8 0-3.2 1.4-3.2 3s1.4 3 3.2 3z" fill="#fff"/><g fill="#838383"><path d="M55 160.9c-1.6 0-2.9-1.3-2.9-2.9s1.3-2.9 2.9-2.9 2.9 1.3 2.9 2.9-1.3 2.9-2.9 2.9zm1.9-3.3s-.6-.1-.5.3c0 0 .2 1-1.1 1.4 0 0-.7.1-.7.3 0 0-.1.6.7.5 0 0 1.7-.4 1.9-1.9 0 .1 0-.5-.3-.6z"/><path d="M55.1 163.5s-6.3.1-10.1-5.6c0 0 3.2-5 9.6-5.4 0 0 6.1-.4 10.4 5.6 0 0-4.3 5.4-9.9 5.4zm-.2-9.8c-2.3 0-4.3 1.9-4.3 4.2s1.9 4.2 4.3 4.2c2.3 0 4.3-1.9 4.3-4.2s-1.9-4.2-4.3-4.2z"/></g><g fill="#838383"><path d="M85 160.7c-1.6 0-2.9-1.4-2.9-3s1.3-3 2.9-3 2.9 1.4 2.9 3-1.3 3-2.9 3zm1.9-3.5s-.6-.1-.5.4c0 0 .2 1.1-1.1 1.5 0 0-.7.1-.7.4 0 0-.1.7.7.5 0 0 1.7-.4 1.9-2 0-.1 0-.7-.3-.8z"/><path d="M85.1 163.4s-6.3.2-10.1-5.8c0 0 3.2-5.2 9.6-5.6 0 0 6.1-.4 10.4 5.8 0-.1-4.3 5.6-9.9 5.6zm-.2-10.2c-2.3 0-4.3 2-4.3 4.4s1.9 4.4 4.3 4.4 4.3-2 4.3-4.4-1.9-4.4-4.3-4.4z"/><path d="M90.5 150.9l-12.5 13s-.8.6-.2 1.4c0 0 .6.8 1.5-.4L91.7 152s.6-.6.1-1.2c0 0-.5-.7-1.3.1z"/></g><g fill="#838383"><path d="M115 160.3c-1.3 0-2.3-1-2.3-2.3s1-2.3 2.3-2.3 2.3 1 2.3 2.3-1 2.3-2.3 2.3zm1.5-2.6s-.4-.1-.4.3c0 0 .1.8-.8 1.1 0 0-.6.1-.6.3 0 0-.1.5.6.4 0 0 1.4-.3 1.6-1.5-.1-.1-.1-.6-.4-.6z"/><path d="M115.1 162.4s-5.1.1-8.1-4.5c0 0 2.6-4 7.6-4.3 0 0 4.9-.3 8.4 4.5 0 0-3.4 4.3-7.9 4.3zm-.2-7.8c-1.9 0-3.4 1.5-3.4 3.3s1.5 3.3 3.4 3.3 3.4-1.5 3.4-3.3-1.5-3.3-3.4-3.3z"/></g><g fill="#838383"><path d="M145 160.1c-1.3 0-2.3-1.1-2.3-2.4 0-1.3 1-2.4 2.3-2.4s2.3 1.1 2.3 2.4c0 1.4-1 2.4-2.3 2.4zm1.5-2.7s-.4-.1-.4.3c0 0 .1.8-.8 1.2 0 0-.6.1-.6.3 0 0-.1.5.6.4 0 0 1.4-.3 1.6-1.6-.1-.1-.1-.6-.4-.6z"/><path d="M145.1 162.3s-5.1.1-8.1-4.7c0 0 2.6-4.1 7.6-4.5 0 0 4.9-.3 8.4 4.7 0 0-3.4 4.5-7.9 4.5zm-.2-8.2c-1.9 0-3.4 1.6-3.4 3.5s1.5 3.5 3.4 3.5 3.4-1.6 3.4-3.5-1.5-3.5-3.4-3.5z"/><path d="M149.4 152.3l-10 10.4s-.7.5-.2 1.1c0 0 .5.7 1.2-.3l10-10.3s.5-.5.1-.9c0 0-.5-.6-1.1 0z"/></g><circle cx="132" cy="122" r="7" fill="#438eff"/><path d="M133.2 126.4v-1.8c0-.1 0-.2-.1-.2s-.1-.1-.2-.1h-1.8c-.1 0-.2 0-.2.1s-.1.1-.1.2v1.8c0 .1 0 .2.1.2s.1.1.2.1h1.8c.1 0 .2 0 .2-.1s.1-.1.1-.2zm2.3-6.1c0-.5-.2-1-.5-1.5s-.8-.8-1.3-1.1c-.5-.3-1-.4-1.5-.4-1.5 0-2.6.6-3.4 1.9-.1.1-.1.3.1.4l1.2.9s.1.1.2.1.2 0 .2-.1c.3-.4.6-.7.8-.8.2-.1.5-.2.8-.2.3 0 .6.1.8.2.2.2.3.3.3.5s-.1.4-.2.6c-.1.1-.3.3-.6.4-.4.2-.7.4-1.1.8s-.5.7-.5 1.1v.3c0 .1 0 .2.1.2s.1.1.2.1h1.8c.1 0 .2 0 .2-.1s.1-.1.1-.2.1-.3.2-.5.3-.3.5-.5c.2-.1.3-.2.4-.3.1-.1.2-.2.4-.3s.3-.3.4-.4c.1-.1.2-.3.3-.6.1 0 .1-.3.1-.5z" fill="#fff"/></svg>