<svg xmlns="http://www.w3.org/2000/svg" xmlns:xlink="http://www.w3.org/1999/xlink" style="display: none">
	<symbol id="hamburger" viewBox="0 0 30 24">
		<path d="M28.2 14.2H1.8c-1 0-1.8-.9-1.8-2s.8-2 1.8-2h26.3c1 0 1.8.9 1.8 2 .1 1.1-.7 2-1.7 2zm0-10.3H1.8C.8 3.9 0 3 0 2s.8-2 1.8-2h26.3c1 0 1.8.9 1.8 2s-.7 1.9-1.7 1.9zM1.8 20.1h26.3c1 0 1.8.9 1.8 2s-.8 2-1.8 2H1.8c-1 0-1.8-.9-1.8-2s.8-2 1.8-2z"/>
	</symbol>

	<symbol id="game-center" viewBox="0 0 50 40">
		<path d="M21 35.8c-1.7 1.7-4.1 2.7-6.5 2.7s-4.8-1-6.5-2.7c-1.7-1.7-2.7-4.1-2.7-6.5 0-2.5 1-4.8 2.7-6.5C9.7 21 12 20 14.5 20s4.8 1 6.5 2.7 2.7 4.1 2.7 6.5c0 2.5-1 4.8-2.7 6.6zm-6.5-15.2c-4.8 0-8.7 3.9-8.7 8.7 0 4.8 3.9 8.7 8.7 8.7s8.7-3.9 8.7-8.7c-.1-4.8-4-8.7-8.7-8.7zm7.3 9.3l-1.1-.2v-.5c0-.4 0-.8-.1-1.2l1.1-.2c.1.5.1.9.1 1.4v.7zm-2-3.9l.9-.6c.4.6.7 1.3.8 2l-1.1.2c0-.6-.3-1.1-.6-1.6zm-1.5-1.7l.7-.9c.6.5 1.1 1 1.5 1.6l-.9.6c-.4-.5-.8-.9-1.3-1.3zm-1.6-1l.4-1.1c.6.2 1.1.5 1.6.8l-.7 1c-.4-.3-.9-.5-1.3-.7zm-2.2-.4s-.1.1 0 0l-.1-1.1h.1c.7 0 1.4.1 2.1.3l-.4 1.1c-.5-.2-1.1-.3-1.7-.3zm.5 3.8c-.2-.2-.4-.4-.4-.7 0-.5.4-.9.9-.9s.9.4.9.9-.4.9-.9.9h-.1l-.4 1.2c.3.2.5.6.5 1v.2l1.3.5c.2-.2.4-.4.8-.4.5 0 .9.4.9.9s-.4.9-.9.9-.9-.4-.9-.9l-1.4-.5c-.2.3-.6.5-1 .5h-.1l-.5 1.3c.2.2.4.4.4.7 0 .5-.4.9-.9.9s-.9-.4-.9-.9.4-.9.9-.9h.1l.5-1.3c-.4-.2-.6-.6-.6-1.1v-.2l-1.2-.5c-.2.2-.4.4-.8.4-.5 0-.9-.4-.9-.9s.4-.9.9-.9.9.4.9.9v.1l1.2.5c.2-.3.6-.6 1-.6h.2l.5-1.1zm-3-4.4c.6-.2 1.2-.3 1.9-.4L14 23c-.5 0-1 .2-1.5.3l-.5-1zm-2.2 1.2c.5-.4 1.2-.8 1.8-1.1l.4 1c-.5.2-1 .5-1.5.9l-.7-.8zM9.1 26l-1-.5c.4-.6.8-1.2 1.3-1.7l.7.8c-.3.5-.7.9-1 1.4zm-.8 2.1l-1.1-.2c.1-.7.4-1.4.7-2l1 .5c-.3.5-.5 1.1-.6 1.7zm-.1 1.1c0 .3 0 .7.1 1l-1.1.2c-.1-.4-.1-.8-.1-1.2 0-.3 0-.6.1-.9l1.1.2c-.1.3-.1.5-.1.7zm.8 3.2l-.9.6c-.4-.6-.6-1.3-.8-2l1.1-.2c.1.5.3 1.1.6 1.6zm1.5 1.7l-.6.9c-.6-.5-1.1-1-1.5-1.7l.9-.6c.3.6.7 1 1.2 1.4zm1.7 1l-.4 1.1c-.6-.2-1.1-.5-1.6-.9l.7-.9c.4.3.9.5 1.3.7zm2.3.4l.1 1.1h-.1c-.7 0-1.5-.1-2.1-.3l.4-1.1c.4.3 1 .3 1.7.3zm2.5.7c-.6.2-1.2.4-1.9.4l-.1-1.1c.5 0 1.1-.2 1.6-.3l.4 1zm2.2-1.3c-.6.5-1.2.9-1.8 1.2L17 35c.5-.2 1.1-.6 1.5-1l.7.9zm.7-2.6l1 .5c-.4.6-.8 1.2-1.3 1.7l-.7-.8c.4-.4.7-.9 1-1.4zm.8-2.1l1.1.2c-.1.7-.3 1.4-.6 2l-1-.5c.2-.5.4-1.1.5-1.7zm24-2.3c0-.1 0-.3-.1-.4 0-.2-.1-.3-.1-.5-.2-.8-.4-1.5-.8-2.2-.1-.2-.2-.3-.3-.5-.1-.1-.2-.3-.3-.4-1.2-1.8-3.1-3.1-5.2-3.7-.1 0-.2-.1-.4-.1-.5 0-1.1-.1-1.7-.1h-.7c-.5 0-1 .1-1.5.3-2.1.5-3.9 1.8-5.1 3.5-.1.1-.1.2-.2.2-.1.1-.1.2-.2.3-.4.6-.7 1.3-.9 2-.1.3-.2.6-.2.8 0 .2-.1.5-.1.7 0 .4-.1.7-.1 1.1 0 2.4 1 4.6 2.5 6.2.3.3.6.6.9.8.4.3.9.6 1.4.9l.6.3c1.1.5 2.3.8 3.6.8 1.2 0 2.4-.2 3.4-.7.2-.1.3-.1.5-.2s.4-.2.5-.3c.5-.3 1-.7 1.5-1.1.1-.1.3-.2.4-.4l.3-.3c1.5-1.6 2.4-3.7 2.4-6.1 0-.2-.1-.6-.1-.9zm-2.1-4.1h-1c-1.2-1.4-2.6-2.1-3-2.2l-.3-.8c1.7.5 3.2 1.6 4.3 3zM36 23l2.4-1c.3.1 1.7.8 2.9 2.1v2.6l-2.4.9-2.8-2V23zm-.4 0v2.6l-2.8 2-2.4-.9v-2.6c1.2-1.4 2.5-2 2.9-2.2l2.3 1.1zm-2.2-2.2l-.3.8c-.4.2-1.8.8-3 2.3h-1c1-1.5 2.5-2.6 4.3-3.1zm-4.3 13.4c-1.1-1.4-1.8-3.3-1.8-5.2v-.7l.7.7c.1.8.3 2.7 1.3 4.2l-.2 1zm.5-1.3c-1.1-1.5-1.2-3.7-1.3-4.2l1.8-1.6 2.5 1 1.1 3.3-1.5 2.1-2.6-.6zm6.2 4.6c-1.1 0-2.1-.2-3-.5l.8-.5c.6.2 2.4.6 4 0l.8.6c-.8.3-1.7.4-2.6.4zm1.5-1.3c-1.4.4-2.8.1-3.4-.1l-1.3-2.3 1.5-2.1h3.5l1.4 2.2-1.7 2.3zm4.5-2.8l-2.5.3-1.4-2.2 1.1-3.3 2.5-1 1.8 1.7c-.1.6-.3 2.6-1.5 4.5zm.6 1l-.1-.9c1.1-1.8 1.4-3.7 1.5-4.6l.6-.7v.7c-.1 2.2-.8 4.1-2 5.5zm-13-32c-5-2.3-11-.2-13.2 4.7-2.3 4.9 0 10.7 5 13 5 2.3 11 .2 13.2-4.7s0-10.7-5-13zm-4 12.9c-.7.2-1.5.2-2.2-.1-.7-.3-1.2-.8-1.5-1.4-.3-.6-.3-1.3-.1-1.9l1.5.5c-.1.4-.1.7 0 1 .1.3.3.5.6.6.3.1.6.1.9 0 .3-.1.6-.4.8-.8.2-.4.2-.7.1-1-.1-.3-.3-.5-.6-.7-.2-.1-.4-.2-.7-.2l.7-1.1c.4.2.8.3 1.1.2.3-.1.5-.3.7-.6.1-.3.1-.5.1-.7s-.3-.4-.5-.5c-.3-.1-.5-.1-.8 0-.3.1-.5.3-.7.6l-1.3-.9c.3-.4.6-.7 1-.9.3-.2.7-.3 1.1-.3s.8.1 1.3.3c.7.3 1.2.8 1.5 1.5.2.5.2 1 0 1.5-.3.7-.9 1-1.9 1.1.4.3.7.7.8 1.1s.1.9-.1 1.4c-.6.6-1.1 1.1-1.8 1.3z"/>
	</symbol>

	<symbol id="cashier" viewBox="0 0 50 40">
		<path d="M25 37.5c-9.7 0-17.5-7.8-17.5-17.5S15.3 2.5 25 2.5 42.5 10.3 42.5 20 34.7 37.5 25 37.5zM33.5 12H29l-3.8 6.8L21 12h-4.5s-.7.4-.7.9c0 .6.7 1.1.7 1.1H19l3 5h-3.5s-.4.4-.4 1 .4 1 .4 1h5v2.5h-4.8s-.6.5-.6 1.1c0 .6.4.9.4.9h5v5l1 1h1c.7 0 1-1 1-1v-5H31s.7-.2.7-.8c0-.6-.6-1.2-.6-1.2h-4.7V21h5s.5-.4.5-1-.5-1-.5-1H28l3-5h2.5s1-.4 1-1c0-.5-1-1-1-1z"/>
	</symbol>

	<symbol id="transfer-fund" viewBox="0 0 50 40">
		<path d="M42.6 14.6c-.4.4-1.6 0-2-.4v-4h-6L19 32.2h-7.5c-.8 0-1.5-.6-1.5-1.4 0-.8.7-1.1 1.5-1.1h6L33 7.7h7.5V3.2c.4-.4 1.6 0 2 .5l6.1 4.7c.4.4.4 1.1 0 1.6l-6 4.6zm-25.1-4.4h-6c-.8 0-1.5-.2-1.5-1s.7-1.5 1.5-1.5h7c.4.5 5.6 7.4 5.6 7.4l-1.8 2.4-4.8-7.3zm.2 9.8c0 4.6-3.7 8.4-8.4 8.4C4.7 28.4 1 24.6 1 20s3.7-8.4 8.4-8.4c4.6 0 8.3 3.8 8.3 8.4zM12 16.2l-2.6 3.2L7 16.2H5v1h1.1l1.4 2H6v1.5h2.5v1H6v1h2.5v2.5h2v-2.5H13v-1h-2.5v-1H13v-1.5h-1.5l1.2-2h1.1l.1-1H12zm22.5 13.5h6v-4c.4-.4 1.6-.8 2-.4l6.1 4.7c.4.4.4 1.1 0 1.6l-6.1 4.7c-.4.4-1.6.9-2 .4v-4.5l-7.4.1-5.5-7.5 1.8-2.4 5.1 7.3z"/>
	</symbol>

	<symbol id="customer-service" viewBox="0 0 50 40">
		<path d="M41.6 17.9c-.2-8.9-7.8-16.2-17-16.1C15.4 1.8 8.1 9.1 8.3 18c0 .3 0 .6.1.9 0 .3-.1.5-.1.8l.2 7.8c0 2.2 1.9 3.9 4.1 3.9 2.2 0 4-1.8 3.9-3.9l-.2-7.8c0-2.2-1.9-3.9-4.1-3.9-1 0-1.8.4-2.5.9.5-7.6 6.9-13.6 14.9-13.6S39.3 9 40.1 16.7c-.7-.6-1.6-1-2.6-1-2.2 0-4 1.8-3.9 3.9l.2 7.8c0 2 1.6 3.6 3.6 3.8-2.1 3.4-5.5 4.9-7.6 5.6 0-.7-.4-1.3-.9-1.3h-2.8c-.5 0-.8.6-.8 1.3 0 .7.4 1.3.9 1.3H29c.4 0 .7-.5.8-1 6.4-.5 9.6-4.4 11-7.1.7-.7 1.1-1.6 1.1-2.7l-.2-7.8v-.3c-.1-.4-.1-.8-.1-1.3zM13 19.3c0-.5.4-.9.9-.9s.9.4.9.9l.2 8.3c0 .5-.4.9-.9.9s-.9-.4-.9-.9l-.2-8.3zm23.9 8.3c0 .5-.4.9-.9.9s-.9-.4-.9-.9l-.2-8.3c0-.5.4-.9.9-.9s.9.4.9.9l.2 8.3z"/>
	</symbol>

	<symbol id="zhenren" viewBox="0 0 52 52">
		<path d="M44.3 44.4C39.4 49.3 32.9 52 26 52s-13.4-2.7-18.3-7.6C2.8 39.5.1 32.9.1 26c0-6.9 2.7-13.5 7.6-18.4C12.6 2.7 19.1 0 26 0s13.4 2.7 18.3 7.6c4.9 4.9 7.6 11.4 7.6 18.4 0 6.9-2.7 13.5-7.6 18.4zM26 1.6C12.6 1.6 1.7 12.5 1.7 26S12.6 50.4 26 50.4s24.3-11 24.3-24.4S39.4 1.6 26 1.6zm20.7 26.3l-3.1-.4c0-.5.1-1 .1-1.5 0-1.2-.1-2.3-.3-3.4l3-.7c.3 1.3.4 2.6.4 4-.1.7-.1 1.4-.1 2zm-5.6-11.1l2.6-1.7c1 1.7 1.8 3.5 2.3 5.5l-3 .7c-.4-1.6-1.1-3.1-1.9-4.5zm-4.2-4.7l1.8-2.5c1.6 1.3 3.1 2.8 4.3 4.5l-2.6 1.7c-1-1.4-2.2-2.7-3.5-3.7zm-4.7-2.7l1-3c1.6.6 3.1 1.4 4.5 2.3l-1.8 2.5c-1.2-.7-2.4-1.3-3.7-1.8zM26 8.3h-.1l-.1-3.1h.3c2 0 4 .3 5.9.9l-1 3c-1.6-.6-3.3-.8-5-.8zm1.6 10.6c-.7-.5-1.1-1.2-1.1-2.1 0-1.4 1.1-2.6 2.5-2.6s2.5 1.1 2.5 2.6-1.1 2.6-2.5 2.6h-.2L27.5 23c.9.6 1.5 1.6 1.5 2.8 0 .2 0 .4-.1.6l3.8 1.4c.5-.7 1.2-1.2 2.1-1.2 1.4 0 2.5 1.1 2.5 2.6s-1.1 2.6-2.5 2.6-2.5-1.1-2.5-2.6v-.1l-3.9-1.5c-.6.9-1.6 1.5-2.8 1.5h-.3L24 32.7c.6.5 1 1.2 1 2 0 1.4-1.1 2.6-2.5 2.6S20 36.2 20 34.7c0-1.4 1.1-2.6 2.5-2.6h.3l1.3-3.5c-1.1-.6-1.8-1.7-1.8-3v-.5l-3.4-1.3c-.5.7-1.2 1.1-2.1 1.1-1.4 0-2.5-1.1-2.5-2.6s1.1-2.6 2.5-2.6 2.5 1.1 2.5 2.6v.2l3.5 1.3c.6-1 1.7-1.6 2.9-1.6.2 0 .5 0 .7.1l1.2-3.4zM19.2 6.3c1.7-.6 3.4-1 5.2-1.1l.1 3.1c-1.5.1-2.9.4-4.2.9l-1.1-2.9zm-6.3 3.6c1.5-1.3 3.2-2.3 5.1-3.1l1.1 2.9c-1.5.6-2.9 1.5-4.2 2.5l-2-2.3zm-2 7l-2.7-1.5c1-1.7 2.3-3.3 3.8-4.7l2.1 2.3c-1.4 1.2-2.4 2.5-3.2 3.9zm-2.2 5.8l-3.1-.4c.4-2 1-3.9 1.9-5.6l2.7 1.5C9.5 19.5 9 21 8.7 22.7zM8.4 26c0 1 .1 1.9.2 2.8l-3 .7c-.2-1.1-.3-2.3-.3-3.5 0-.8.1-1.7.1-2.5l3.1.5c-.1.6-.1 1.3-.1 2zm2.3 8.8l-2.6 1.7c-1-1.7-1.8-3.6-2.3-5.6l3-.7c.4 1.6 1.1 3.1 1.9 4.6zm4.2 5l-1.8 2.5c-1.7-1.3-3.1-2.9-4.3-4.7l2.6-1.7c1 1.4 2.1 2.7 3.5 3.9zm4.8 2.7l-1 3c-1.7-.6-3.2-1.4-4.6-2.5l1.8-2.5c1.2.9 2.5 1.5 3.8 2zm6.3 1.2h.2l.1 3.1h-.4c-2.1 0-4.1-.3-6-.9l1-3c1.7.6 3.4.8 5.1.8zm7 1.9c-1.7.6-3.5 1-5.4 1.2l-.1-3.1c1.5-.1 3-.5 4.4-1l1.1 2.9zm6.4-3.7c-1.5 1.3-3.3 2.4-5.2 3.3l-1.1-2.9c1.5-.7 3-1.6 4.2-2.7l2.1 2.3zm2-7.2l2.7 1.5c-1 1.8-2.3 3.4-3.7 4.9l-2.1-2.3c1.2-1.3 2.3-2.7 3.1-4.1zm2-5.9l3.1.4c-.3 2-.9 3.9-1.8 5.7L42 33.5c.7-1.5 1.2-3.1 1.4-4.7z"/>
	</symbol>

	<symbol id="sport" viewBox="0 0 52 52">
		<path d="M51.7 22.8c0-.4-.1-.7-.2-1.1-.1-.4-.2-.9-.3-1.3-.5-2.2-1.2-4.3-2.2-6.3-.3-.5-.5-1-.8-1.5-.3-.4-.5-.8-.8-1.2C43.9 6.2 38.5 2.3 32.2.7c-.4-.1-.7-.2-1.1-.3C29.5.2 27.8 0 26 0c-.7 0-1.3 0-2 .1-1.5.1-3 .4-4.4.7C13.6 2.3 8.3 6 4.8 11c-.2.2-.3.5-.5.7-.1.3-.3.6-.5.8-1.1 1.8-2 3.8-2.6 5.9-.2.8-.4 1.6-.6 2.5-.1.6-.2 1.3-.3 2-.1 1-.2 2.1-.2 3.2 0 7 2.8 13.4 7.3 18 .8.8 1.7 1.6 2.6 2.3 1.2 1 2.6 1.9 4 2.6.5.3 1.1.5 1.6.8C18.7 51.2 22.3 52 26 52c3.5 0 6.8-.7 9.9-2 .4-.2.9-.4 1.3-.6.5-.2 1-.5 1.5-.8 1.5-.9 3-1.9 4.3-3.1.4-.3.8-.7 1.2-1.1l.9-.9c4.2-4.6 6.8-10.8 6.8-17.6 0-1-.1-2-.2-3.1zM45.6 11h-3C39 6.9 35 5 34 4.6l-1-2.3c5.1 1.5 9.5 4.6 12.6 8.7zm-19-2.3l6.9-3c1 .4 4.9 2.3 8.3 6.2v7.5l-7 2.7-8.1-5.9V8.7zm-1.2 0v7.5l-8.1 5.9-7-2.7v-7.6c3.4-4 7.3-5.9 8.3-6.3l6.8 3.2zM19 2.3l-.9 2.2C17 4.9 13 6.8 9.3 11h-3C9.5 6.9 13.9 3.8 19 2.3zM6.5 41.2C3.3 37 1.3 31.7 1.3 26c0-.7 0-1.3.1-2l1.9 2.1c.2 2.4.8 8 3.8 12.1l-.6 3zm1.7-3.7C5 33.1 4.6 26.7 4.6 25.2l5.2-4.7 7.1 2.8L20 33l-4.4 6.1-7.4-1.6zM26 50.8c-3 0-6-.6-8.6-1.6l2.4-1.5c1.8.5 6.8 1.6 11.6 0l2.4 1.7c-2.5.9-5.1 1.4-7.8 1.4zm4.3-4c-4 1-8.1.3-9.9-.2l-3.8-6.8 4.4-6.1h10l4.1 6.4-4.8 6.7zm13.1-8.1l-7.3.8L32 33l3.1-9.7 7.1-2.8 5.3 4.8c0 2.2-.6 8-4.1 13.4zm1.6 3.1l-.4-2.7c3.3-5.2 4-10.7 4.2-13.2l1.8-1.9c0 .6.1 1.3.1 2 0 6-2.2 11.5-5.7 15.8z"/>
	</symbol>

	<symbol id="caipiao" viewBox="0 0 52 52">
		<path d="M39.6 25.5c-6.6.9-12.7-3.9-13.6-10.6C25.2 8.1 29.8 2 36.4 1.1S49.1 5 50 11.7c.9 6.7-3.8 12.9-10.4 13.8zm-4.7-9c.1-.2.5-.7 1-1.3.5-.7.9-1.2 1.1-1.5.3-.5.5-1 .6-1.4.1-.4.1-.9.1-1.4-.1-.8-.5-1.5-1.1-2-.7-.5-1.5-.7-2.5-.5-.9.1-1.7.5-2.2 1s-.9 1.4-.9 2.5l2-.1c0-.6 0-1 .3-1.3.2-.3.5-.5.9-.5.4-.1.8 0 1 .2.3.2.4.5.5 1 .1.4 0 .8-.2 1.3-.2.3-.6 1-1.4 1.9-1 1.2-1.6 2.1-1.9 2.8-.3.7-.4 1.4-.4 2.1l6.9-.9-.2-1.9-3.9.5c0-.1.1-.3.3-.5zm10.8-2.1c-.1-.6-.3-1.1-.7-1.5-.4-.4-.8-.7-1.4-.9.4-.3.7-.6.9-1 .2-.4.3-.9.2-1.3-.1-.8-.5-1.4-1.1-1.8-.6-.4-1.4-.6-2.4-.5-1 .1-1.7.5-2.2 1.1-.5.6-.7 1.3-.6 2 .1.5.2.9.5 1.2.3.4.7.6 1.2.8-.6.3-1 .8-1.2 1.3-.2.5-.3 1-.2 1.6.1 1 .6 1.8 1.4 2.3.7.4 1.5.6 2.4.4 1-.1 1.8-.5 2.3-1.2.8-.7 1-1.5.9-2.5zm-3.2 2.1c-.4.1-.8-.1-1.1-.3-.3-.3-.5-.7-.6-1.2-.1-.4 0-.8.2-1.2.2-.4.5-.6 1-.7.4-.1.8 0 1.1.3.3.3.5.6.6 1.1.1.6 0 1-.2 1.3s-.6.6-1 .7zm-.7-5c-.4 0-.7 0-.9-.2-.3-.2-.4-.5-.5-.9-.1-.4 0-.7.2-1s.5-.4.9-.4.7 0 .9.2c.3.2.4.5.5.9.1.4 0 .7-.2 1-.2.2-.5.4-.9.4zm-29 18.2c-6 0-10.9-4.8-10.9-10.7 0-5.9 4.9-10.8 10.9-10.8S23.7 13 23.7 19c0 5.9-4.9 10.7-10.9 10.7zM11 14.5H9.5c-.2.5-.5 1-1.1 1.4-.5.4-1.1.7-1.5.9v1.6c.9-.3 1.7-.7 2.3-1.3v6.7H11v-9.3zm7.5.1h-6.1v1.6h4.1c-.8 1-1.5 2.2-2 3.6-.5 1.3-.8 2.6-.8 3.9h1.7c0-.8.1-1.7.4-2.8.3-1 .7-2 1.2-2.9.5-.9 1-1.6 1.5-2.1v-1.3zm16.3 12.3c6.4 2.9 9.2 10.4 6.3 16.8-2.9 6.3-10.4 9.1-16.8 6.1-6.3-2.9-9.2-10.4-6.3-16.7 2.9-6.4 10.4-9.1 16.8-6.2zm-9.7 14.7c.4.8 1 1.4 1.9 1.8.9.4 1.9.5 2.8.2.9-.3 1.6-.9 2-1.8.3-.6.3-1.2.2-1.8s-.5-1.1-1-1.4c1.2-.1 2-.5 2.4-1.4.3-.6.3-1.3.1-2-.3-.9-.9-1.5-1.8-1.9-.5-.3-1.1-.4-1.6-.4s-1 .1-1.4.4-.8.6-1.2 1.2l1.6 1.1c.2-.4.5-.7.9-.8.3-.1.7-.1 1 0 .3.2.5.4.7.7.1.3.1.6-.1.9-.2.4-.5.6-.8.8-.4.1-.8 0-1.3-.2l-.9 1.4c.4.1.7.2.9.3.4.2.6.5.8.9.1.4.1.8-.1 1.3s-.5.8-.9 1c-.4.2-.8.2-1.2 0-.4-.2-.6-.4-.8-.8-.1-.4-.1-.8 0-1.3l-1.9-.6c-.7.8-.7 1.6-.3 2.4z"/>
	</symbol>

	<symbol id="rgn" viewBox="0 0 52 52">
		<path d="M46.6 11.5l-.4 12.6-3.2 1.5v1.7c0 .7-.5 1.2-1.2 1.3l.3 3.3c0 .5-.1.9-.3 1.3.3.3.5.8.5 1.3l.4 3.6c0 .3-.1.7-.2 1 .5.5.9 1.1.9 1.9v8.7c0 1.4-1.1 2.5-2.5 2.5H7.2c-1.4 0-2.5-1.1-2.5-2.5V41c0-.8.4-1.6 1-2-.1-.3-.1-.6-.1-.9V38l.4-3.4c0-.4.2-.8.4-1.1-.3-.4-.4-.9-.4-1.4V32l1.3-15.5c0-.6.2-1.1.5-1.5-.1-.3-.2-.7-.2-1.1V4.2c0-1.4 1.1-2.5 2.5-2.5h11.4v-.4C21.4.6 22 0 22.7 0h2.9c.7 0 1.3.6 1.3 1.3v.4h11.4c1.4 0 2.5 1.1 2.5 2.5v9.5c0 .5-.1.9-.4 1.3.2.4.3.8.4 1.2l.4 5.5h.5c.7 0 1.3.6 1.3 1.3v.8l1.3-.6V11.6c-.5-.3-.8-.9-.8-1.6 0-1.1.9-1.9 1.9-1.9s1.9.9 1.9 1.9c0 .6-.2 1.2-.7 1.5zm-8.2-7.3c0-.1 0-.1 0 0L10 4.1s-.1 0-.1.1v9.5s0 .1.1.1h28.3s.1 0 .1-.1V4.2zm0 12.1s0-.1 0 0L10 16.2h-.3s-.1 0-.1.1v.1L8.4 31.9s0 .1.1.1h31.2s.1 0 .1-.1l-1.4-15.6zm1.5 18.4c-.2-.2-.7-.3-.9-.3H9.2c-.2 0-.6.2-.9.3L8 38h32.3l-.4-3.3zm1.1 6.1s0-.1 0 0l-33.8-.1s-.1 0-.1.1v8.7s0 .1.1.1H41s.1 0 .1-.1v-8.7zm-16.8 6.6c-1.3 0-2.3-1-2.3-2.3 0-1.3 1-2.3 2.3-2.3s2.3 1 2.3 2.3c-.1 1.3-1.1 2.3-2.3 2.3zm1.1-3.1l-.1-.1s-.1 0-.1-.1h-.4s-.1 0-.1.1l-.1.1s0 .1-.1.1v.2c0 .1 0 .1.1.2 0 .1.1.1.1.2-.1 0-.2.1-.2.1-.1 0-.1.1-.2.2-.1 0-.1.1-.1.2 0 0 0 .1-.1.1 0 0 0 .1-.1.1 0 0 0 .1-.1.1s-.1.1-.1.1-.1 0-.1.1c0 0-.1 0-.1.1s-.1 0-.1 0h-.3v-.4h.2s.1 0 .1-.1c0 0 .1 0 .1-.1s.1 0 .1-.1l.1-.1v-.4c0-.1 0 0-.1 0h-.2s-.1 0-.1.1l-.1.1-.1.1-.1.1s0 .1-.1.1v.5s0 .1.1.1l.1.1h.2s.1 0 .1-.1l.1-.1.1-.1.1-.1.1-.1v.2l.1.1.1.1h.4s.1 0 .1-.1.1 0 .1-.1l.1-.1s0-.1.1-.1v-.3s0-.1-.1-.1c0 0 0-.1-.1-.1s0-.1-.1-.1c.1 0 .1 0 .2-.1.1 0 .1-.1.2-.1 0 0 .1-.1.1-.2v-.2l.3-.1zm-.2.4l-.1.1s-.1.1-.2.1c0 0 0-.1-.1-.1 0 0 0-.1-.1-.1v-.3s0-.1.1-.1.1-.1.1-.1h.2s.1 0 .1.1c0 0 0 .1.1.1v.3c0 .1 0 0-.1 0zm-.3.6s0 .1.1.1v.2s0 .1-.1.1l-.1.1c-.1 0-.1 0-.2.1h-.1s-.1 0-.1-.1l-.1-.1v-.3c0-.1.1-.1.1-.2 0 0 .1-.1.2-.1s.1-.1.2-.1l.1.1c-.1.1 0 .1 0 .2zm-1.5.1s0-.1.1-.1c0 0 0-.1.1-.1s0-.1.1-.1l.1-.1s.1 0 .1-.1h.1v.2s0 .1-.1.1c0 0 0 .1-.1.1l-.1.1s-.1 0-.1.1-.1 0-.1 0h-.1c-.1 0-.1 0 0-.1zm11.6-16.2H13.5c-1 0-1.9-.9-1.9-1.9v-.1l.9-6.6c0-1 .9-1.9 1.9-1.9H34c1 0 1.9.8 1.9 1.9l.9 6.7c0 1-.9 1.9-1.9 1.9zm-15.4-9.3h-5.2c-.4 0-.7.3-.7.7v.1l-.9 6.6c0 .4.3.7.7.7h6.1v-8.1zm7.3 0h-6v8h6.5l-.5-8zm7.9.7c0-.4-.3-.7-.7-.7h-6l.5 8h6.4c.4 0 .7-.3.7-.7l-.9-6.6zm-1.9 3.2v.3H32v.5h.8v.3H32v.7h-.4v-.7h-.8v-.3h.8v-.5h-.8v-.3h.7l-.9-1.5h.5c.4.7.6 1.2.7 1.4 0-.1.1-.2.2-.5l.5-.9h.5l-.9 1.5h.7zm-9.6-1.5c.4.7.6 1.2.7 1.4 0-.1.1-.2.2-.5l.5-.9h.4l-.9 1.5h.7v.3H24v.5h.8v.3H24v.7h-.4v-.7h-.8v-.3h.8v-.5h-.8v-.3h.7l-.9-1.5h.6zm-7.6 0c.4.7.6 1.2.7 1.4 0-.1.1-.2.2-.5l.5-.9h.4l-.9 1.5h.7v.3h-.8v.5h.8v.3h-.8v.7H16v-.7h-.8v-.3h.8v-.5h-.8v-.3h.8l-.9-1.5h.5zm13.6-10.9c-.9 0-1.7-.5-2-1.3-.4 1.3-1.7 2.3-3.1 2.3-1.4 0-2.6-.9-3.1-2.2-.4.7-1.1 1.2-2 1.2-1.3 0-2.3-1-2.3-2.3s1-2.3 2.3-2.3c.9 0 1.6.5 2 1.2.5-1.3 1.7-2.2 3.1-2.2 1.5 0 2.7 1 3.1 2.3.4-.8 1.1-1.3 2-1.3 1.3 0 2.3 1 2.3 2.3s-1 2.3-2.3 2.3zm-9.1-3.2l-.1-.1s-.1 0-.1-.1h-.4s-.1 0-.1.1l-.1.1s0 .1-.1.1v.2c0 .1 0 .1.1.2s.1.1.1.2c-.1 0-.2.1-.2.1-.1 0-.1.1-.2.2-.1 0-.1.1-.1.2 0 0 0 .1-.1.1 0 0 0 .1-.1.1s0 .1-.1.1l-.1.1s-.1 0-.1.1c0 0-.1 0-.1.1h-.4v-.4h.2s.1 0 .1-.1c0 0 .1 0 .1-.1 0 0 .1 0 .1-.1l.1-.1v-.4h-.3s-.1 0-.1.1L18 9v.1l-.1.1-.1.1s0 .1-.1.1v.5c0 .1 0 .1.1.1l.1.1h.2s.1 0 .1-.1l.1-.1.1-.1.1-.1.1-.1v.2s0 .1.1.1l.1.1h.4s.1 0 .1-.1c0 0 .1 0 .1-.1l.1-.1s0-.1.1-.1 0-.1 0-.1v-.2s0-.1-.1-.1 0-.1-.1-.1c0 0 0-.1-.1-.1.1 0 .1 0 .2-.1.1 0 .1-.1.2-.1 0 0 .1-.1.1-.2v-.2c.3-.1.3-.2.3-.2zm5.6-.4c0-.1-.1-.1-.1-.2-.1 0-.1-.1-.2-.1H25s-.1 0-.1.1l-.1.1-.1.1-.1.1v.3c0 .1 0 .2.1.3s.1.2.2.3c-.1.1-.2.1-.4.2s-.4.2-.5.3l-.2.2-.1.1-.1.1-.1.1-.1.1-.1.1-.1.1h-.4l-.1-.1v-.3h.2c.1 0 .1 0 .2-.1.1 0 .1-.1.2-.1s.1-.1.2-.1.1-.1.1-.1l.1-.1.1-.1v-.2s0-.1-.1-.1c0 0-.1 0-.1-.1h-.3c-.1 0-.1 0-.2.1-.1 0-.1.1-.2.1s-.1.1-.2.1-.1.1-.1.1c0 .1-.1.1-.1.1l-.1.1s0 .1-.1.1v-.1.2c0 .1 0 .2.1.2 0 .1.1.1.1.2s.1.1.2.1h.4c.1 0 .1 0 .2-.1.1 0 .1-.1.2-.1s.1-.1.2-.1l.1-.1.1-.1v.1c0 .1 0 .1.1.2 0 .1.1.1.1.2s.1.1.2.1h.7c.1 0 .1 0 .2-.1.1 0 .1-.1.1-.1l.1-.1s.1-.1.1-.2 0-.1.1-.2V9c0-.1-.1-.1-.1-.2s-.1-.1-.1-.2-.3.2-.4.2c.1 0 .2-.1.3-.1.1 0 .2-.1.2-.2.1-.1.1-.1.1-.2V8c.1-.1.1-.1.1-.2zm4.6.4l-.1-.1s-.1 0-.1-.1h-.4s-.1 0-.1.1l-.1.1s0 .1-.1.1v.2c0 .1 0 .1.1.2 0 .1.1.1.1.2-.1 0-.2.1-.2.1-.1 0-.1.1-.2.2-.1 0-.1.1-.1.2 0 0 0 .1-.1.1 0 0 0 .1-.1.1s0 .1-.1.1l-.1.1s-.1 0-.1.1c0 0-.1 0-.1.1h-.4v-.4h.2s.1 0 .1-.1c0 0 .1 0 .1-.1 0 0 .1 0 .1-.1l.1-.1v-.4c0-.1 0 0-.1 0h-.2s-.1 0-.1.1l-.1.1-.1.1-.1.1v.1s0 .1-.1.1v.5c0 .1 0 .1.1.1l.1.1h.2s.1 0 .1-.1l.1-.1.1-.1.1-.1.1-.1v.2s0 .1.1.1l.1.1h.4s.1 0 .1-.1c0 0 .1 0 .1-.1l.1-.1s0-.1.1-.1v-.3s0-.1-.1-.1c.3-.1.3-.2.3-.2s0-.1-.1-.1c.1 0 .1 0 .2-.1.1 0 .1-.1.2-.1 0 0 .1-.1.1-.2v-.2s0-.1-.1-.1zm-.1.4l-.1.1s-.1.1-.2.1c0 0 0-.1-.1-.1 0 0 0-.1-.1-.1v-.3s0-.1.1-.1.1-.1.1-.1h.2s.1 0 .1.1c0 0 0 .1.1.1v.3h-.1zm-.4.6s0 .1.1.1v.2s0 .1-.1.1l-.1.1c-.1 0-.1 0-.2.1h-.1s-.1 0-.1-.1l-.1-.1v-.3c0-.1.1-.1.1-.2 0 0 .1-.1.2-.1s.1-.1.2-.1l.1.1v.2zm-1.5.1s0-.1.1-.1 0-.1.1-.1c0 0 0-.1.1-.1l.1-.1s.1 0 .1-.1h.1V9s0 .1-.1.1c0 0 0 .1-.1.1 0 0-.1 0-.1.1 0 0-.1 0-.1.1h-.2c-.1.1 0 0 0-.1 0 .1 0 .1 0 0zm-2.9-.9c0 .1-.1.1-.2.2s-.1.1-.2.1l-.1-.1-.1-.1c0-.1 0-.1-.1-.2v-.4c0-.1 0-.1.1-.2 0-.1.1-.1.2-.1s.1-.1.2-.1h.1s.1 0 .1.1l.1.1v.4c0 .2 0 .3-.1.3zm-.5.9c0 .1.1.1.1.2v.4c0 .1 0 .1-.1.2 0 .1-.1.1-.2.2-.1 0-.2.1-.3.1h-.2c-.1 0-.1-.1-.1-.1l-.1-.1v-.5c0-.1.1-.2.1-.2l.2-.2c.2-.2.3-.3.4-.3l.1.1c0 .1.1.1.1.2zm-2.2.1s0-.1.1-.2l.1-.1.1-.1.1-.1.1-.1h.1v.3s0 .1-.1.1-.1.1-.1.1l-.1.1-.1.1s-.1 0-.2.1h-.2v-.1s.2 0 .2-.1zm-2.8-.8l-.1.1s-.1.1-.2.1c0 0 0-.1-.1-.1 0 0 0-.1-.1-.1v-.3s0-.1.1-.1l.1-.1h.2s.1 0 .1.1c0 0 0 .1.1.1s0 .1 0 .1v.2c0 .1-.1 0-.1 0zm-.3.6s0 .1.1.1v.2s0 .1-.1.1l-.1.1c-.1 0-.1 0-.2.1h-.1s-.1 0-.1-.1l-.1-.1v-.3c0-.1.1-.1.1-.2 0 0 .1-.1.2-.1s.1-.1.2-.1l.1.1c-.1.1-.1.2 0 .2zm-1.5.1s0-.1.1-.1 0-.1.1-.1 0-.1.1-.1l.1-.1s.1 0 .1-.1.1 0 .1 0V9s0 .1-.1.1c0 0 0 .1-.1.1 0 0-.1 0-.1.1 0 0-.1 0-.1.1h-.2c-.1.1-.1 0 0-.1-.1.1-.1.1 0 0z"/>
	</symbol>

	<symbol id="virtual-sport" viewBox="0 0 52 52">
		<path d="M26 52C11.7 52 .1 40.3.1 26S11.7 0 26 0s25.9 11.7 25.9 26S40.3 52 26 52zm0-49.5C13.1 2.5 2.5 13 2.5 26S13 49.5 26 49.5 49.5 39 49.5 26 38.9 2.5 26 2.5zm15.6 22.7c-.2-.3-.5.2-.7-.2-.1-.2-.2-.5-.5-.6-1.1 0-1.9 0-3-.2-.4.5-.6 1.1-.9 1.7l-.7 1.1v.8c-.1.7-.6 1.3-.8 2l-.5.2c.7.5 1.5.9 2.4 1.2.4.4.5.9.4 1.5-1 1.1-.8 2.7-2 3.7 0 .5-.6.7-.8 1.1-.1 0-.3 0-.3-.1 0-.6-.2-1.4.4-1.7.2 0 .3.2.5.2.5-.2 0-.6.2-.9.5-.7.9-1.5 1.1-2.3 0-.2-.1-.4-.3-.5-1.2-.2-2.2-.2-3.4-.2.1.7.3 1.4.5 2 .1.4.5.7.3 1.1-.8 1.3-2.6.1-3.7.8-.4 0-.6-.1-.9-.3-.6-.1-1.3-.1-1.8-.3-.2-.1 0-.3 0-.4.4-.4.8-.9 1.4-.8.1.1.3.1.3.2l-.1.4c.5.5 1-.4 1.5.1.5-.1 1.7.3 2.1-.4-.9-.9-1.9-2-2.6-3-.6-.7-1.7-.2-2.4-.8-1.3-.3-2.5-.7-3.6-1.4-.2 1-1.2 1.7-.7 2.9l.1.7c.9.5 1.7 1.2 2.7 1.5.3.8.9 1.5.7 2.5-.2.2-.5 0-.7-.1-.3-.2-.6-.5-.5-.9.1-.1.2-.2.2-.4-.4-.1-.7-.3-.9-.7l-1.1-.5c0 .4.4.8.6 1.2 1 .9 1.9 2 3 2.9.2.3.4.6.5.9-.5.3-1.2.3-1.7 0-.2-.3.4-.8-.1-1-.2-.1-.5 0-.6-.2-.9-1.4-2.1-2.9-3.5-3.7-.5-.2 0-1-.6-1.2-.2 0-.4-.2-.6-.3 0-.8 1-1.8 0-2.4-.9-1-2.1-1.4-2.8-2.6 0-.1-.1-.1-.1-.2-.6-.8-.8-1.9-.9-2.9 0-.1-.1-.1-.2 0-.3.3-.3.6-.4 1 .2.6.6 1.4 0 1.9-.5.5-1.2.6-1.8.8-.6-.1-.8.8-1.4.7-.7-.1-1.3-.4-2.1-.3-.1 0-.3-.1-.4-.1v-.1l2.8-.1c.4-.3 1-.6 1.4-1l.1-.1c-.1 0-.3 0-.4.1-.5.2-.8.7-1.3.8-1.6.1-3-.4-4.3-.8l-1-.1c.3-.2.6-.1.8-.3-.2-.2-.4-.3-.7-.4-.1-.1-.2-.1-.3-.2.2 0 .4-.1.5-.2l-.2-.1c.1 0 .3 0 .4-.1L8 26c.4-.2.8-.5 1.3-.5-.2-.2-.5 0-.7-.1-.3-.1-.6-.2-.9-.2.9-.1 1.7.2 2.7 0-.6-.3-1.1-.8-1.8-.9h.5c1 .4 2 .8 3 1 2 .5 3-1.5 4.8-1.8 1.5-.4 2.7-1.6 4.5-1.4l3.3.5c.4-.2-.2-1.1.5-.7 1.1.4 2.2.8 3.4.6.2-.1.2-.3.2-.5-.4-.2-.8-.2-1.1-.4l-2.2-1.2c-.4-.5-.5-1.2-.2-1.8.4-.4.5-1 1.1-1.2 1.3-.7 2.8-1.3 4.2-.6.1.1.3.3.4.2.1-.4.4-.9.8-1.1.7 0 1.4.1 1.8.7.1.4-.2.7.2.9.1 0 .2-.1.3.1v.1c-.4.2-.9-.2-1 .3-.3 0-.1.3-.2.4-.4.1-.6.5-.9.6-.1-.1-.2-.2-.3-.1-.1 0-.2-.2-.3-.3-.4.3-.8.7-1.2.8-.3.2-.2.6-.2.9.4.2.9.3 1.4.2.3.2.4.5.5.8.2 0 .6.2.7-.1v-.1c.2 0 .3-.2.5-.2v-.2c.1-.1.3 0 .4-.1v-.2c.1 0 .5.1.4-.1h.3c.1-.1 0-.3.2-.3.1 0 .2-.1.2-.2.3.1.6.1.8-.1l-.2-.3h.1l-.1-.2c.2 0 .6.1.8 0v-.1h.2c.1-.1 0-.2.1-.3.1.1.3.1.4.1.1-.1-.1-.3 0-.6.4 0 .5.6.9.4v-.4c.1-.1.2.1.3-.1.1 0 .1.2.2.2v-.3c.1.2.4.3.5.6.1-.1 0-.3 0-.4 0 0 .1 0 .1.1.1-.1.1-.2 0-.4.2 0 .2.2.3.3.2-.1.2-.4.3-.6.1.4.4 1 0 1.4.9 1.3 1.8 2.7 2.9 3.9.2.4.2.9.1 1.4-.2.4-.2 1.1-.7.8zm-32.9-.9h-.6.6z"/>
	</symbol>

	<symbol id="qipai" viewBox="0 0 52 52">
		<path d="M43.7 45.6l-26.4 5.3c-1.5.3-3.1-.7-3.4-2.3L6.1 9.8c-.3-1.6.7-3.1 2.2-3.4l26.4-5.3c1.5-.3 3.1.7 3.4 2.3L46 42.3c.3 1.5-.8 3-2.3 3.3zm0-2.9L35.8 3.8c-.1-.3-.3-.5-.6-.4L8.8 8.7c-.3 0-.5.3-.5.6l7.9 38.9c.1.3.4.5.6.4l26.4-5.3c.3 0 .5-.3.5-.6zm-4.1-8c-.2.1-.3.2-.3.6 0 .5-.1 1.2-.2 2.4l-.2 2.9v.7c-.2.1-.2.3-.3.5 0 0-.1 0-.1-.1-.2-.4-.4-.9-.6-1.3l-1.8-3.9c-.4-.8-.5-1-.8-.9h-.2c-.1 0-.1-.2-.1-.3.3 0 .5-.1.9-.1.3-.1.6-.1.8-.2.1 0 .1.2.1.2l-.2.1c-.1.1-.2.1-.2.2s.1.3.2.5l.6 1.3c.1.2.1.2.3.2l1.1-.2c.2 0 .2-.1.2-.3v-2c0-.1-.1-.2-.2-.2h-.2c-.1 0-.1-.2 0-.3.2 0 .4-.1.8-.1.2 0 .5-.1.7-.2.1 0 .1.2.1.3l-.4.2zm-1 3l-.9.2c-.2 0-.2.1-.1.3l.7 1.6c.1.2.2.5.3.6 0-.1 0-.3.1-.6l.1-1.8c0-.3 0-.3-.2-.3zm-.7-4.2c-.3.1-.6-.1-.8-.3-.1.3-.3.5-.6.6-.5.1-.9-.2-1-.6-.1-.5 0-1.4 1-2.9 1.5 1 2 1.8 2.1 2.3.1.3-.2.8-.7.9zm-5.6-5.4c-.1.2-.2.5-.4.7-.1.2-.3.4-.5.6-.2.2-.4.3-.6.5-.2.1-.5.3-.7.3-.2.1-.5.2-.8.2-.5.1-.9.1-1.3 0s-.7-.2-1-.4c-.3-.2-.6-.4-.8-.7-.2-.3-.4-.5-.5-.8-.1-.1-.1-.3-.1-.4v.1c-.1.2-.2.4-.3.7-.1.2-.3.5-.4.8-.2.3-.3.5-.5.8-.2.2-.4.5-.6.7-.2.2-.4.4-.7.5-.2.1-.5.2-.7.3-.3.1-.6.1-.9 0-.3-.1-.6-.2-.9-.4-.3-.2-.5-.4-.8-.7-.2-.3-.4-.6-.6-1-.1-.2-.1-.4-.2-.6 0-.2-.1-.4-.1-.6 0 .1-.1.2-.1.3 0 .1-.1.2-.1.2s0 .1-.1.1h-.1s-.1 0-.1-.1c0 0-.1-.1 0-.1 0-.1.1-.3.1-.4.1-.2.1-.4.2-.6.1-.2.2-.5.4-.7.1-.3.3-.5.5-.8.2-.3.4-.5.6-.8.2-.3.4-.5.7-.7.2-.2.5-.4.8-.5l.9-.3c.2 0 .5-.1.7 0 .2 0 .4.1.5.2.2.1.3.2.4.3s.2.3.3.4c.1.2.1.4.1.7 0 .2-.1.4-.1.7l-.3.6c-.1.2-.3.4-.5.6l-.6.6c-.2.2-.5.3-.7.5s-.5.3-.8.5-.5.3-.8.4c0 .2.1.4.1.5 0 .2.1.3.2.5s.2.4.3.5c.1.1.2.2.4.3.1.1.3.1.4.1h.4c.2 0 .3-.1.5-.2s.3-.2.5-.3c.1-.1.3-.3.4-.5.1-.2.3-.3.4-.5.1-.2.3-.4.4-.6l.3-.6.3-.6.3-.6s0-.1.1-.1l.1-.1c.1-.4.3-.8.5-1.1.3-.4.6-.8 1-1.2.4-.4.8-.8 1.3-1.2-.5-.3-.8-.7-1.2-1.1-.3-.4-.6-.8-.8-1.2-.1-.2-.2-.4-.2-.7v-.7c0-.2.1-.4.2-.6l.3-.6c.1-.2.3-.4.5-.5.2-.2.4-.3.6-.4l.6-.3c.2-.1.4-.2.6-.2.3-.1.5-.1.8-.1.3 0 .6.1.9.2.3.1.6.3.8.5.3.2.4.5.6.9.2.4.2.8.2 1.2 0 .4-.2.8-.4 1.1-.2.4-.5.7-.8 1-.3.3-.7.5-1.1.7l.6.6.6.6.6.6c.2.2.3.5.4.7.1.3.2.6.2.9v.8c-.3.1-.3.4-.4.6zm-11.1.7c.2-.1.4-.3.6-.4.2-.2.4-.3.5-.5.2-.2.3-.4.5-.6s.3-.4.3-.6c.1-.2.2-.4.2-.6 0-.2.1-.4.1-.6 0-.2 0-.4-.1-.5 0-.1-.1-.1-.1-.2s-.1-.1-.2-.1-.1-.1-.2-.1h-.2c-.2 0-.4.1-.5.2-.2.1-.3.3-.4.4-.1.2-.3.4-.4.6-.1.2-.2.4-.3.7-.1.2-.2.5-.2.7-.1.3-.1.5-.2.7 0 .2-.1.5-.1.7v.6c.2-.1.5-.2.7-.4zm9.5-6.7c.3-.3.5-.6.6-.9.1-.3.2-.6.2-1 0-.3-.1-.7-.2-1.1-.1-.2-.2-.5-.4-.6-.2-.2-.3-.3-.5-.4-.2-.1-.4-.2-.6-.2h-.6c-.3.1-.6.2-.9.4-.2.2-.4.4-.5.7-.1.3-.2.5-.2.8 0 .3 0 .6.1.8.1.2.2.4.4.6.2.2.3.4.5.6l.6.6c.2.2.4.3.5.5.4-.3.7-.5 1-.8zm.4 4.7c-.1-.3-.2-.5-.4-.7-.2-.2-.4-.5-.6-.7-.2-.2-.4-.4-.7-.6-.2-.2-.5-.4-.7-.5-.4.3-.8.6-1.1.9-.3.3-.6.7-.8 1-.2.4-.3.8-.4 1.2 0 .4 0 .8.2 1.3.1.3.2.5.4.7.2.2.4.4.6.5s.5.2.8.3c.3.1.6 0 .9 0 .5-.1.9-.3 1.2-.6.3-.2.5-.5.6-.8.1-.3.2-.6.1-.9 0-.5 0-.8-.1-1.1zM15.9 16.6c-.3.1-.6.1-.8.2-.1 0-.1-.2-.1-.3l.2-.1c.1-.1.2-.1.2-.2s-.1-.3-.2-.5l-.6-1.3c-.1-.2-.1-.2-.3-.2l-1.1.2c-.2 0-.2.1-.2.3v2c0 .1.1.2.2.2h.2c.1 0 .1.2 0 .3-.2 0-.4.1-.8.1-.2 0-.5.1-.7.2-.1 0-.1-.2-.1-.3l.2-.1c.2-.1.3-.2.3-.6 0-.5.1-1.2.2-2.4l.2-2.9v-.7c.2-.1.2-.3.3-.5 0 0 .1 0 .1.1.2.4.4.9.6 1.3l1.8 3.9c.4.8.5 1 .8.9h.2c.1 0 .1.2.1.3-.1 0-.3.1-.7.1zm-1.6-3.1l-.8-1.5c-.1-.2-.2-.5-.3-.6 0 .1 0 .3-.1.6l-.1 1.8c0 .2 0 .3.2.2l.9-.2c.3 0 .3 0 .2-.3zm-.3 4.8c.3-.1.6.1.8.3.1-.3.3-.5.6-.6.5-.1.9.2 1 .6.1.5 0 1.4-1 2.9-1.5-1-2-1.8-2.1-2.3-.1-.4.2-.8.7-.9z"/>
	</symbol>

	<symbol id="sidebar-download" viewBox="0 0 30.5 50">
		<path d="M26.4 50H4.2C1.9 50 0 48.1 0 45.8V4.2C0 1.9 1.9 0 4.2 0h22.2c2.3 0 4.2 1.9 4.2 4.2v41.7c-.1 2.2-2 4.1-4.2 4.1zm-11.1-1.7c1.4 0 2.5-1.1 2.5-2.5s-1.1-2.5-2.5-2.5-2.5 1.1-2.5 2.5 1.1 2.5 2.5 2.5zm2.5-45h-5c-.5 0-.8.4-.8.8 0 .5.4.8.8.8h5c.5 0 .8-.4.8-.8s-.4-.8-.8-.8zm10.8 5.1H1.9v33.1h26.6V8.4zm-16.9 9.8h7.2v7.1h3.9l-7.5 9.1-7.5-9.1h3.9v-7.1z"/>
	</symbol>

	<symbol id="sidebar-user" viewBox="0 0 24 24">
		<path d="M12 11.7c-4.2 0-7.6 3.1-7.6 8.9 0 .2.2.1.2.3h14.7c0-.2.2-.1.2-.3.1-5.8-3.3-8.9-7.5-8.9zm.1-1c2.1 0 3.8-1.7 3.8-3.8 0-2.1-1.7-3.8-3.8-3.8C10 3 8.3 4.7 8.3 6.8s1.7 3.9 3.8 3.9z"/>
	</symbol>

	<symbol id="sidebar-deposit" viewBox="0 0 24 24">
		<path d="M3.7 6.6h1.4v14.3h-.9C2.6 20.9 1 19.6 1 18V9.3c0-1.6 1.2-2.7 2.7-2.7zm8 9.7v-2c-.6-.2-1.1-.5-1.4-.8-.3-.5-.5-.9-.5-1.5 0-.5.2-1 .5-1.3.3-.4.8-.6 1.3-.6v-.5h.7v.5c.5.1.9.2 1.2.5.3.3.5.7.6 1.2l-1.2.2c-.1-.4-.3-.6-.6-.8v1.9c.8.2 1.3.5 1.6.8.3.3.4.8.4 1.3 0 .6-.2 1.1-.5 1.5-.4.4-.8.6-1.5.7v.9h-.7v-.9c-.6-.1-1-.3-1.3-.6-.3-.3-.5-.8-.6-1.5l1.3-.1c.1.3.1.5.3.7 0 .1.2.3.4.4zm0-5.2c-.2.1-.3.2-.5.3-.1.2-.2.4-.2.6 0 .2.1.3.2.5.1.1.3.3.5.4v-1.8zm.7 5.2c.2 0 .4-.2.6-.3.2-.2.2-.4.2-.6 0-.2-.1-.4-.2-.6s-.3-.3-.6-.4v1.9zM6.5 6.6V4.7c0-.9.7-1.6 1.6-1.6h7.8c.9 0 1.6.7 1.6 1.6v1.9h-1V5.4c0-.8-.6-1.4-1.3-1.4H8.8c-.8 0-1.4.7-1.4 1.4v1.2h-.9zm12.1 0h1.6c1.6 0 2.8 1.3 2.8 2.9v8.6c0 1.6-1.3 2.9-2.8 2.9h-1.6V6.6zm-3 14.3V6.6H8.1v14.3h7.5z"/>
	</symbol>

	<symbol id="sidebar-withdrawal" viewBox="0 0 24 24">
		<path d="M19.7 16.3c-2.4 0-4.3-1.2-4.3-2.6 0-.3.1-.6.2-.9.6 1 2.2 1.7 4 1.7 1.9 0 3.5-.7 4-1.7.2.3.2.6.2.9.2 1.4-1.7 2.6-4.1 2.6zm0-3.4c-2.4 0-4.3-1.2-4.3-2.6s1.9-2.6 4.3-2.6S24 8.9 24 10.3s-1.9 2.6-4.3 2.6zM6.9 19.7c-3.8 0-6.9-1.2-6.9-2.6 0-.3.1-.6.4-.9.9 1 3.5 1.7 6.5 1.7s5.5-.7 6.5-1.7c.3.3.4.6.4.9-.1 1.5-3.2 2.6-6.9 2.6zm0-3.4c-3.8 0-6.9-1.2-6.9-2.6 0-.3.1-.6.4-.9.9 1 3.5 1.7 6.5 1.7s5.5-.7 6.5-1.7c.3.3.4.6.4.9-.1 1.4-3.2 2.6-6.9 2.6zm0-3.4c-3.8 0-6.9-1.2-6.9-2.6 0-.3.1-.6.4-.9.9 1 3.5 1.7 6.5 1.7s5.5-.7 6.5-1.7c.3.3.4.6.4.9-.1 1.4-3.2 2.6-6.9 2.6zm0-3.5C3.1 9.4 0 8.3 0 6.8c0-1.4 3.1-2.6 6.9-2.6 3.8 0 6.9 1.2 6.9 2.6-.1 1.5-3.2 2.6-6.9 2.6zM19.7 18c1.9 0 3.5-.7 4-1.7.2.3.2.6.2.9 0 1.4-1.9 2.6-4.3 2.6s-4.3-1.2-4.3-2.6c0-.3.1-.6.2-.9.8 1 2.3 1.7 4.2 1.7z"/>
	</symbol>

	<symbol  id="sidebar-bonus" viewBox="0 0 50 50">
		<path d="M49.7 18c-.8-2.8-3.2-4.8-5.9-5.4.5-2.7-.6-5.5-2.9-7.3-2.5-1.9-5.9-2.1-8.6-.7C31 1.9 28.2 0 24.9 0c-3 0-5.6 1.6-7 4-2.5-1.2-5.6-1-8.1.7-2.4 1.7-3.6 4.5-3.2 7.2-2.8.5-5.2 2.4-6.1 5.1-1 2.8-.2 5.7 1.7 7.7-2 2-2.8 4.9-1.9 7.7.9 2.8 3.3 4.7 6 5.3-.3 2.7.8 5.5 3.2 7.3 2.4 1.8 5.5 2 8.1.8 1.3 2.4 3.9 4.1 6.9 4.2 3 .1 5.7-1.5 7.1-3.9 2.5 1.2 5.6 1.1 8.1-.5 2.5-1.7 3.7-4.5 3.4-7.2 2.8-.4 5.2-2.3 6.3-5 1-2.8.3-5.7-1.6-7.7 1.8-2 2.7-4.9 1.9-7.7m-39.1-.2c0-1.9.5-3.5 1.4-4.9 1-1.3 2.4-2 4.2-2 1.7 0 3.1.6 4.2 1.8 1.1 1.2 1.7 3 1.7 5.3s-.6 4-1.7 5.3c-1.1 1.2-2.5 1.8-4.1 1.8-1.6 0-3-.6-4.1-1.8-1.1-1.3-1.6-3.1-1.6-5.5zm5.7-4.7c-.8 0-1.5.4-2 1.1-.5.7-.8 2-.8 3.9 0 1.7.3 2.9.8 3.6.6.7 1.2 1.1 2 1.1s1.5-.4 2.1-1.1c.5-.7.8-2 .8-3.9 0-1.7-.3-3-.8-3.7-.6-.6-1.3-1-2.1-1zm0 26.1L31 10.8h2.7L19 39.2h-2.7zm11.6-7.3c0-1.9.5-3.6 1.4-4.9 1-1.3 2.4-2 4.2-2 1.7 0 3.1.6 4.2 1.8 1.1 1.2 1.7 3 1.7 5.3s-.6 4-1.7 5.3c-1.1 1.2-2.5 1.8-4.2 1.8-1.6 0-3-.6-4.1-1.8-.9-1.3-1.5-3.1-1.5-5.5zm5.8-4.7c-.8 0-1.5.4-2.1 1.1-.5.7-.8 2-.8 3.9 0 1.7.3 2.9.8 3.6.5.7 1.2 1.1 2 1.1s1.5-.4 2.1-1.1c.5-.7.8-2 .8-3.9 0-1.7-.3-3-.8-3.7-.5-.6-1.2-1-2-1z"/>
	</symbol>

	<symbol id="sidebar-message" viewBox="0 0 24 24">
		<path d="M20.5 5.2c-.2-.1-.5-.2-.9-.2H4.4c-.4 0-.7.1-.9.2C2.6 5.5 2 6.4 2 7.3v9.3c0 1 .6 1.8 1.5 2.2.2.1.5.2.9.2h15.3c.4 0 .7-.1.9-.2.9-.3 1.5-1.2 1.5-2.2V7.3c-.1-.9-.7-1.8-1.6-2.1zm.3 2.1v9.3c0 .2 0 .3-.1.4l-.3-.3-4.9-4.2 5.1-5.3.2-.2v.3zm-1.2-1.1h.3c0 .1-.1.1-.2.2l-7 7.4c-.4.4-1.1.4-1.6 0l-7-7.4s0-.1-.1-.2h15.6zM3.3 17.1c-.1-.1-.1-.3-.1-.4V7c0 .1.1.1.2.2l5.1 5.3-4.9 4.2c-.2.2-.3.3-.3.4zm1.1.7h-.2l.1-.1 4.9-4.3 1.1 1.2c.4.5 1 .7 1.6.7s1.2-.3 1.6-.7l1.1-1.2 4.9 4.3.1.1H4.4z"/>
	</symbol>

	<symbol id="sidebar-announcement" viewBox="0 0 24 24">
		<path d="M20.4 17.5l-5.1 1c-.3 1.4-1.3 2.6-2.8 2.8-1.5.3-2.9-.4-3.7-1.5l-5.1 1s-.6.2-.7-.4c-.1-.6.5-.8.5-.8 2-1.2 1.9-3.5 1.9-3.5s-.1-.6-.3-1.6l11.6-2.4c.2 1 .3 1.6.3 1.6s.8 2.2 3.1 2.5c0 0 .7-.1.8.5.1.8-.5.8-.5.8zM4.5 11.3L16.1 9c.2 1 .4 1.9.5 2.6L5 14c-.2-.8-.3-1.7-.5-2.7zm-.3-1.5C3.8 7.7 5.5 6.2 7 5.3c-.3-1.3.5-2.5 1.8-2.8 1.3-.3 2.5.6 2.8 1.8 1.7.2 3.7 1 4.2 3.1.1.3.1.6.2.9L4.3 10.7c0-.3-.1-.6-.1-.9z"/>
	</symbol>

	<symbol id="sidebar-logout" viewBox="0 0 24 24">
		<path d="M7.8 17.1h1.7v-2.5c0-.8-.8-.8-.8-.8V12h7c.5 1.5 1.9 2.5 3.6 2.5 2.1 0 3.8-1.7 3.8-3.8 0-2.1-1.7-3.8-3.8-3.8-1.7 0-3 1.1-3.6 2.5H2.3c-.7.1-1.3.6-1.3 1.3 0 .7.6 1.3 1.3 1.3h2.1v1.7s-.8 0-.8.8V17h1.7v-1.7h2.5v1.8zm12.7-6.4c0 .7-.6 1.3-1.3 1.3s-1.3-.6-1.3-1.3.6-1.3 1.3-1.3 1.3.6 1.3 1.3"/>
	</symbol>

	<symbol id="icon-cross" viewBox="0 0 58 54">
		<path d="M32.2 27l25.1 23.2c.9.9.9 2.3 0 3.2-.9.9-2.3.9-3.2 0L29 30.2 3.8 53.4c-.9.9-2.3.9-3.2 0-.9-.9-.9-2.3 0-3.2L25.8 27 .7 3.9C-.2 3-.2 1.6.7.7 1.6-.2 3-.2 3.9.7L29 23.8 54.2.7c.9-.9 2.3-.9 3.2 0 .9.9.9 2.3 0 3.2L32.2 27z"/>
	</symbol>

	<symbol id="tick" viewBox="0 0 16 16">
		<path d="M8 16c-4.4 0-8-3.6-8-8s3.6-8 8-8 8 3.6 8 8-3.6 8-8 8zM8 1C4.1 1 1 4.1 1 8s3.1 7 7 7 7-3.1 7-7-3.1-7-7-7zm3.2 4.2c.1-.2.1-.5-.2-.7s-.5-.1-.7.2l-3.2 5.5-1.8-1.6c-.2-.2-.5-.2-.7 0-.2.2-.2.5 0 .7l2.3 2.1c.2.2.5.2.7 0 .1 0 3.6-6.2 3.6-6.2z"/>
	</symbol>

	<symbol id="icon-arrow" viewBox="0 0 147.9 128.6">
		<path d="M58.4 125.9c3.6 3.6 9.5 3.6 13.1 0 3.6-3.5 3.6-9.3.1-12.9l-.1-.1-39.8-39.4h106.9c5.1 0 9.3-4.1 9.3-9.2s-4.2-9.2-9.3-9.2H31.7l39.9-39.4c3.6-3.5 3.6-9.3.1-12.9l-.1-.1C69.8 1 67.5 0 65 0c-2.4 0-4.8.9-6.6 2.7L2.7 57.8c-3.6 3.5-3.6 9.3-.1 12.9l.1.1 55.7 55.1z"/>
	</symbol>

	<symbol id="icon-transaction-filter" viewBox="0 0 18 18.6">
		<path d="M15.8.7v9.8c1.2.4 2.2 1.5 2.2 2.9s-1 2.5-2.3 2.8v1.7c0 .4-.3.7-.8.7s-.8-.3-.8-.7v-1.7c-1.1-.4-2.1-1.5-2.1-2.8s1-2.5 2.3-2.8V.7c0-.4.3-.7.7-.7s.8.3.8.7zm-6 0V4C11 4.3 12 5.5 12 6.8s-1 2.5-2.3 2.8v8.2c0 .4-.3.7-.8.7s-.8-.3-.8-.7V9.6C7 9.3 6 8.2 6 6.8S7 4.3 8.3 4V.7c0-.4.3-.7.7-.7s.8.3.8.7zm-6 0v9.8C5 10.9 6 12 6 13.4s-1 2.5-2.3 2.8v1.7c0 .4-.3.7-.8.7-.4 0-.8-.3-.8-.7v-1.7C1 15.8 0 14.7 0 13.4s1-2.5 2.3-2.8V.7c0-.4.3-.7.7-.7.4 0 .8.3.8.7z"/>
	</symbol>

	<symbol id="icon-trash" viewBox="0 0 70.002 70.002">
		<path d="M57.423 22.438v37.687c0 4.625-3.651 8.375-8.154 8.375H20.731c-4.503 0-8.154-3.75-8.154-8.375V22.438c-2.252 0-4.077-1.875-4.077-4.188v-4.188c0-2.312 1.825-4.187 4.077-4.187h12.231V5.688c0-2.313 1.825-4.188 4.076-4.188h12.231c2.252 0 4.077 1.875 4.077 4.188v4.187h12.231c2.252 0 4.077 1.875 4.077 4.187v4.188c0 2.313-1.825 4.188-4.077 4.188zm-40.769 0v37.687c0 2.313 1.825 4.188 4.077 4.188h28.538c2.252 0 4.077-1.875 4.077-4.188V22.438H16.654zm12.23-12.563V7.781c0-1.156.913-2.093 2.039-2.093h8.154c1.126 0 2.038.937 2.038 2.093v2.094H28.884m26.501 4.187h-40.77c-1.125 0-2.038.938-2.038 2.095 0 1.156.913 2.093 2.038 2.093h40.77c1.126 0 2.038-.937 2.038-2.093 0-1.157-.912-2.095-2.038-2.095zm-30.577 16.75c1.125 0 2.038.938 2.038 2.095v25.124c0 1.157-.913 2.094-2.038 2.094-1.126 0-2.039-.937-2.039-2.094V32.907c0-1.157.913-2.095 2.039-2.095zm10.192 0c1.126 0 2.038.938 2.038 2.095v25.124c0 1.157-.912 2.094-2.038 2.094s-2.038-.937-2.038-2.094V32.907c0-1.157.912-2.095 2.038-2.095zm10.192 0c1.126 0 2.039.938 2.039 2.095v25.124c0 1.157-.913 2.094-2.039 2.094-1.125 0-2.038-.937-2.038-2.094V32.907c0-1.157.913-2.095 2.038-2.095z"/>
	</symbol>

	<symbol id="icon-plus" viewBox="0 0 20 19.9">
		<path d="M18.6 11.4h-7.1v7.1c0 .8-.6 1.4-1.4 1.4-.8 0-1.4-.6-1.4-1.4v-7.1H1.4C.6 11.4 0 10.8 0 10s.6-1.4 1.4-1.4h7.1V1.4C8.6.7 9.2 0 10 0s1.4.6 1.4 1.4v7.1h7.1c.8 0 1.4.6 1.4 1.4s-.5 1.5-1.3 1.5z"/>
	</symbol>

	<symbol id="icon-refresh" viewBox="0 0 20 20">
		<path d="M18 13.9c-.6-.3-1.3-.2-1.6.4-1.8 3.2-6 4.2-9.3 2.3-3.3-1.9-4.5-6.1-2.7-9.3 1.8-3.2 6-4.2 9.3-2.3l-2.2 3.7L19 7.5 16.5 0l-1.6 3C10.4.5 4.7 1.9 2.2 6.2c-2.5 4.3-.9 9.9 3.6 12.5 4.5 2.6 10.1 1.2 12.6-3.1.4-.6.2-1.3-.4-1.7"/>
	</symbol>
</svg>
