<svg xmlns="http://www.w3.org/2000/svg" width="70" height="17" viewBox="0 0 70 17"><path d="M58.7 3.5L62 6.8c1.2-1.1 2.4-2.2 3.5-3.4l1.9 1.4c-1.2 1.3-2.5 2.5-3.8 3.6l3.3 3.5-2.4 1.8c-1-1.2-2-2.3-3-3.5-1.6 1.2-3.2 2.4-4.9 3.5-.2-.3-.7-1-1.4-1.8 1.7-1 3.3-2.1 4.8-3.3l-3.3-3.3 2-1.8zm10.9-.3H56.3l-1.9 10.4h13.8l-.4 2.4H51.5l2.8-15H70l-.4 2.2zM51.3 7.4H39.7l-.8 1.3h10.7l-.4 2.1c-1.6 1.1-3.2 2.1-4.8 3.1l2.2.9-1.8 2.1-9.7-4.1 1.5-1.9 5.4 2 3.4-2.2h-9.8L36 9l1-1.6h-3l.4-2.2h3.9L39 4h-3.3l.4-2.2h4.3l1-1.8h2.8l-1.1 1.8h8.2L50.9 4h-9.1L41 5.2h10.7l-.4 2.2zm-20.5.3c-1.2.7-2.7 1.1-4.7 1.1h-.8l-1.5 6.5h1.3l-.1.6h-5.8l.1-.6h1.1l3.2-12.8h-3.8l-3.2 12.8h1.1l-.1.6H12l.1-.6h1.1l3.2-12.8h-2.5l-11 13.7H1.6L1 1.9H0l.1-1h5.7l-.3 1h-2v11.2l7.4-10.6H9.4L9.5.9h18.3c2 0 3.4.3 4.2.9s1.1 1.6.8 2.8c-.1 1.4-.9 2.4-2 3.1zm-1.4-4.4c-.3-.5-.9-.8-1.9-.8H27l-1.5 5.7h.5c1 0 1.7-.3 2.2-.8.5-.5.9-1.4 1.2-2.6.3-1.2.3-1 0-1.5z" fill="#2a3094"/></svg>